<?xml version="1.0" encoding="UTF-8" standalone="no"?>
<!DOCTYPE svg PUBLIC "-//W3C//DTD SVG 1.1//EN"
 "http://www.w3.org/Graphics/SVG/1.1/DTD/svg11.dtd">
<!-- Generated by graphviz version 2.38.0 (20140413.2041)
 -->
<!-- Title: %3 Pages: 1 -->
<svg width="502pt" height="360pt"
 viewBox="0.00 0.00 501.79 360.00" xmlns="http://www.w3.org/2000/svg" xmlns:xlink="http://www.w3.org/1999/xlink">
<g id="graph0" class="graph" transform="scale(0.207254 0.207254) rotate(0) translate(4 1733)">
<title>%3</title>
<polygon fill="white" stroke="none" points="-4,4 -4,-1733 2417.16,-1733 2417.16,4 -4,4"/>
<!-- Hardware &amp; system software -->
<g id="node1" class="node"><title>Hardware &amp; system software</title>
<ellipse fill="none" stroke="black" cx="2298.12" cy="-1044" rx="115.08" ry="18"/>
<text text-anchor="middle" x="2298.12" y="-1040.3" font-family="Times,serif" font-size="14.00">Hardware &amp; system software</text>
</g>
<!-- Publishers -->
<g id="node2" class="node"><title>Publishers</title>
<ellipse fill="none" stroke="black" cx="948.097" cy="-737" rx="47.3916" ry="18"/>
<text text-anchor="middle" x="948.097" y="-733.3" font-family="Times,serif" font-size="14.00">Publishers</text>
</g>
<!-- Communities -->
<g id="node7" class="node"><title>Communities</title>
<ellipse fill="none" stroke="black" cx="1151.69" cy="-589" rx="59.2899" ry="18"/>
<text text-anchor="middle" x="1151.69" y="-585.3" font-family="Times,serif" font-size="14.00">Communities</text>
</g>
<!-- Publishers&#45;&gt;Communities -->
<g id="edge15" class="edge"><title>Publishers&#45;&gt;Communities</title>
<path fill="none" stroke="#a8a8a8" d="M975.638,-722.224C982.726,-717.395 989.96,-711.563 995.543,-705 1007.65,-690.766 999.8,-679.663 1013.54,-667 1034.85,-647.367 1051.19,-661.156 1074.54,-644 1085,-636.314 1082.66,-629.411 1092.54,-621 1097.67,-616.636 1103.49,-612.596 1109.42,-608.96"/>
<polygon fill="#a8a8a8" stroke="#a8a8a8" points="1111.2,-611.97 1118.11,-603.932 1107.7,-605.911 1111.2,-611.97"/>
<text text-anchor="middle" x="1044.04" y="-670.8" font-family="Times,serif" font-size="14.00">address</text>
</g>
<!-- Researchers -->
<g id="node10" class="node"><title>Researchers</title>
<ellipse fill="none" stroke="black" cx="758.356" cy="-771" rx="53.0913" ry="18"/>
<text text-anchor="middle" x="758.356" y="-767.3" font-family="Times,serif" font-size="14.00">Researchers</text>
</g>
<!-- Publishers&#45;&gt;Researchers -->
<g id="edge72" class="edge"><title>Publishers&#45;&gt;Researchers</title>
<path fill="none" stroke="#a8a8a8" d="M920.396,-722.189C896.206,-710.79 859.836,-698.73 829.652,-710 810.291,-717.229 792.73,-732.461 780.002,-745.894"/>
<polygon fill="#a8a8a8" stroke="#a8a8a8" points="777.212,-743.761 773.09,-753.522 782.399,-748.462 777.212,-743.761"/>
<text text-anchor="middle" x="856.152" y="-713.8" font-family="Times,serif" font-size="14.00">recognize</text>
</g>
<!-- Publishers&#45;&gt;Researchers -->
<g id="edge78" class="edge"><title>Publishers&#45;&gt;Researchers</title>
<path fill="none" stroke="#a8a8a8" d="M905.159,-744.856C897.666,-746.247 889.929,-747.673 882.652,-749 860.868,-752.971 836.905,-757.265 815.943,-760.995"/>
<polygon fill="#a8a8a8" stroke="#a8a8a8" points="815.15,-757.581 805.917,-762.777 816.375,-764.473 815.15,-757.581"/>
<text text-anchor="middle" x="856.152" y="-761.8" font-family="Times,serif" font-size="14.00">reward</text>
</g>
<!-- Research Software Engineers -->
<g id="node11" class="node"><title>Research Software Engineers</title>
<ellipse fill="none" stroke="black" cx="1416.22" cy="-819" rx="114.28" ry="18"/>
<text text-anchor="middle" x="1416.22" y="-815.3" font-family="Times,serif" font-size="14.00">Research Software Engineers</text>
</g>
<!-- Publishers&#45;&gt;Research Software Engineers -->
<g id="edge6" class="edge"><title>Publishers&#45;&gt;Research Software Engineers</title>
<path fill="none" stroke="#a8a8a8" d="M986.938,-726.583C1037.95,-713.958 1131.53,-695.803 1210.83,-708 1244.45,-713.171 1253.17,-716.275 1283.83,-731 1320.74,-748.724 1359.24,-775.664 1384.95,-795.066"/>
<polygon fill="#a8a8a8" stroke="#a8a8a8" points="1383.08,-798.046 1393.16,-801.333 1387.33,-792.483 1383.08,-798.046"/>
<text text-anchor="middle" x="1151.69" y="-711.8" font-family="Times,serif" font-size="14.00">reward</text>
</g>
<!-- Publishers&#45;&gt;Research Software Engineers -->
<g id="edge88" class="edge"><title>Publishers&#45;&gt;Research Software Engineers</title>
<path fill="none" stroke="#a8a8a8" d="M980.04,-723.455C990.598,-718.989 1002.52,-714.116 1013.54,-710 1096.4,-679.064 1123.42,-670.555 1210.83,-684 1244.45,-689.171 1254.07,-690.526 1283.83,-707 1325.9,-730.285 1366.83,-768.362 1391.54,-793.553"/>
<polygon fill="#a8a8a8" stroke="#a8a8a8" points="1389.2,-796.17 1398.67,-800.926 1394.23,-791.304 1389.2,-796.17"/>
<text text-anchor="middle" x="1151.69" y="-687.8" font-family="Times,serif" font-size="14.00">recognize</text>
</g>
<!-- Research software -->
<g id="node13" class="node"><title>Research software</title>
<ellipse fill="none" stroke="black" cx="2040.53" cy="-1044" rx="75.2868" ry="18"/>
<text text-anchor="middle" x="2040.53" y="-1040.3" font-family="Times,serif" font-size="14.00">Research software</text>
</g>
<!-- Publishers&#45;&gt;Research software -->
<g id="edge65" class="edge"><title>Publishers&#45;&gt;Research software</title>
<path fill="none" stroke="#a8a8a8" d="M951.41,-755.032C956.754,-790.637 972.774,-871.097 1013.54,-924 1083.81,-1015.18 1118.68,-1034.56 1228.83,-1068 1245.09,-1072.94 646.423,-1116.08 1875.99,-1065 1904.5,-1063.82 1911.66,-1063.38 1939.99,-1060 1949.41,-1058.88 1959.3,-1057.51 1969.04,-1056.06"/>
<polygon fill="#a8a8a8" stroke="#a8a8a8" points="1969.75,-1059.49 1979.11,-1054.52 1968.69,-1052.57 1969.75,-1059.49"/>
<text text-anchor="middle" x="1416.22" y="-1089.8" font-family="Times,serif" font-size="14.00">recognize</text>
</g>
<!-- Educators -->
<g id="node3" class="node"><title>Educators</title>
<ellipse fill="none" stroke="black" cx="301.531" cy="-691" rx="46.2923" ry="18"/>
<text text-anchor="middle" x="301.531" y="-687.3" font-family="Times,serif" font-size="14.00">Educators</text>
</g>
<!-- Software engineering processes -->
<g id="node4" class="node"><title>Software engineering processes</title>
<ellipse fill="none" stroke="black" cx="1753.8" cy="-1326" rx="122.379" ry="18"/>
<text text-anchor="middle" x="1753.8" y="-1322.3" font-family="Times,serif" font-size="14.00">Software engineering processes</text>
</g>
<!-- Educators&#45;&gt;Software engineering processes -->
<g id="edge81" class="edge"><title>Educators&#45;&gt;Software engineering processes</title>
<path fill="none" stroke="#a8a8a8" d="M303.475,-709.278C306.496,-754.717 318.705,-875.364 365.677,-962 456.412,-1129.35 779.736,-1226.47 829.652,-1247 1105.28,-1360.35 1465.49,-1351.01 1643.48,-1337.2"/>
<polygon fill="#a8a8a8" stroke="#a8a8a8" points="1643.94,-1340.67 1653.63,-1336.39 1643.39,-1333.69 1643.94,-1340.67"/>
<text text-anchor="middle" x="948.097" y="-1301.8" font-family="Times,serif" font-size="14.00">disseminate</text>
</g>
<!-- Funding organizations -->
<g id="node5" class="node"><title>Funding organizations</title>
<ellipse fill="none" stroke="black" cx="526.369" cy="-516" rx="89.8845" ry="18"/>
<text text-anchor="middle" x="526.369" y="-512.3" font-family="Times,serif" font-size="14.00">Funding organizations</text>
</g>
<!-- Educators&#45;&gt;Funding organizations -->
<g id="edge89" class="edge"><title>Educators&#45;&gt;Funding organizations</title>
<path fill="none" stroke="#a8a8a8" d="M313.465,-673.31C324.929,-655.755 344.235,-628.819 365.677,-610 400.266,-579.643 446.062,-553.862 479.741,-537.02"/>
<polygon fill="#a8a8a8" stroke="#a8a8a8" points="481.474,-540.069 488.899,-532.511 478.381,-533.789 481.474,-540.069"/>
<text text-anchor="middle" x="392.177" y="-613.8" font-family="Times,serif" font-size="14.00">educate</text>
</g>
<!-- Educators&#45;&gt;Communities -->
<g id="edge49" class="edge"><title>Educators&#45;&gt;Communities</title>
<path fill="none" stroke="#a8a8a8" d="M314.683,-673.671C325.252,-657.665 340.038,-632.832 347.677,-609 368.577,-543.799 336.457,-517.921 365.677,-456 385.128,-414.78 395.922,-402.407 436.677,-382 544.139,-328.193 585.106,-356.347 705.061,-349 871.045,-338.834 976.341,-273.798 1074.54,-408 1113.93,-461.831 1055.21,-501.72 1092.54,-557 1095.85,-561.894 1100.16,-566.111 1104.94,-569.726"/>
<polygon fill="#a8a8a8" stroke="#a8a8a8" points="1103.07,-572.68 1113.34,-575.254 1106.91,-566.833 1103.07,-572.68"/>
<text text-anchor="middle" x="758.356" y="-352.8" font-family="Times,serif" font-size="14.00">educate</text>
</g>
<!-- Educators&#45;&gt;Communities -->
<g id="edge90" class="edge"><title>Educators&#45;&gt;Communities</title>
<path fill="none" stroke="#a8a8a8" d="M314.887,-673.734C325.594,-657.771 340.466,-632.965 347.677,-609 361.874,-561.816 339.765,-429.91 365.677,-388 385.078,-356.622 401.686,-356.689 436.677,-345 571.122,-300.087 984.08,-236.871 1074.54,-346 1104.58,-382.23 1066.9,-517.544 1092.54,-557 1095.64,-561.77 1099.71,-565.89 1104.26,-569.434"/>
<polygon fill="#a8a8a8" stroke="#a8a8a8" points="1102.6,-572.536 1112.85,-575.207 1106.5,-566.725 1102.6,-572.536"/>
<text text-anchor="middle" x="758.356" y="-297.8" font-family="Times,serif" font-size="14.00">join</text>
</g>
<!-- Educators&#45;&gt;Researchers -->
<g id="edge1" class="edge"><title>Educators&#45;&gt;Researchers</title>
<path fill="none" stroke="#a8a8a8" d="M344.1,-698.312C425.9,-712.7 607.859,-744.705 700.617,-761.02"/>
<polygon fill="#a8a8a8" stroke="#a8a8a8" points="700.208,-764.502 710.663,-762.787 701.421,-757.608 700.208,-764.502"/>
<text text-anchor="middle" x="526.369" y="-748.8" font-family="Times,serif" font-size="14.00">train</text>
</g>
<!-- Educators&#45;&gt;Researchers -->
<g id="edge45" class="edge"><title>Educators&#45;&gt;Researchers</title>
<path fill="none" stroke="#a8a8a8" d="M345.463,-685.436C406.651,-678.901 521.955,-671.774 616.061,-696 656.832,-706.496 698.863,-730.861 726.365,-748.988"/>
<polygon fill="#a8a8a8" stroke="#a8a8a8" points="724.511,-751.959 734.764,-754.629 728.414,-746.148 724.511,-751.959"/>
<text text-anchor="middle" x="526.369" y="-699.8" font-family="Times,serif" font-size="14.00">educate</text>
</g>
<!-- Educators&#45;&gt;Research Software Engineers -->
<g id="edge19" class="edge"><title>Educators&#45;&gt;Research Software Engineers</title>
<path fill="none" stroke="#a8a8a8" d="M307.391,-708.938C315.497,-735.964 334.086,-787.42 365.677,-820 384.222,-839.126 403.685,-825.978 418.677,-848 439.061,-877.942 409.766,-985.756 436.677,-1010 500.597,-1067.58 1126.03,-1009.47 1210.83,-995 1243.88,-989.36 1255.51,-993.93 1283.83,-976 1336.63,-942.584 1378.87,-881.03 1400.16,-845.738"/>
<polygon fill="#a8a8a8" stroke="#a8a8a8" points="1403.28,-847.334 1405.36,-836.945 1397.25,-843.772 1403.28,-847.334"/>
<text text-anchor="middle" x="856.152" y="-1031.8" font-family="Times,serif" font-size="14.00">educate</text>
</g>
<!-- Educators&#45;&gt;Research Software Engineers -->
<g id="edge32" class="edge"><title>Educators&#45;&gt;Research Software Engineers</title>
<path fill="none" stroke="#a8a8a8" d="M308.485,-709.161C317.183,-732.736 335.674,-773.406 365.677,-795 464.565,-866.172 780.073,-897.53 900.652,-915 977.241,-926.096 997.256,-927.959 1074.54,-924 1168.27,-919.199 1196,-929.041 1283.83,-896 1319.47,-882.594 1356.6,-859.902 1382.25,-842.615"/>
<polygon fill="#a8a8a8" stroke="#a8a8a8" points="1384.55,-845.284 1390.83,-836.75 1380.6,-839.506 1384.55,-845.284"/>
<text text-anchor="middle" x="856.152" y="-915.8" font-family="Times,serif" font-size="14.00">train</text>
</g>
<!-- Hiring organizations -->
<g id="node12" class="node"><title>Hiring organizations</title>
<ellipse fill="none" stroke="black" cx="83.1926" cy="-886" rx="83.3857" ry="18"/>
<text text-anchor="middle" x="83.1926" y="-882.3" font-family="Times,serif" font-size="14.00">Hiring organizations</text>
</g>
<!-- Educators&#45;&gt;Hiring organizations -->
<g id="edge77" class="edge"><title>Educators&#45;&gt;Hiring organizations</title>
<path fill="none" stroke="#a8a8a8" d="M292.179,-708.801C281.846,-729.147 262.499,-762.299 237.385,-783 217.571,-799.332 206.388,-792.762 184.385,-806 157.563,-822.137 129.976,-844.685 110.557,-861.732"/>
<polygon fill="#a8a8a8" stroke="#a8a8a8" points="108.168,-859.173 103.02,-868.433 112.819,-864.405 108.168,-859.173"/>
<text text-anchor="middle" x="210.885" y="-809.8" font-family="Times,serif" font-size="14.00">educate</text>
</g>
<!-- Funding organizations&#45;&gt;Researchers -->
<g id="edge5" class="edge"><title>Funding organizations&#45;&gt;Researchers</title>
<path fill="none" stroke="#a8a8a8" d="M551.317,-533.297C584.439,-557.994 644.909,-605.939 687.061,-656 710.346,-683.654 731.128,-719.812 743.947,-744.14"/>
<polygon fill="#a8a8a8" stroke="#a8a8a8" points="740.91,-745.886 748.619,-753.155 747.125,-742.665 740.91,-745.886"/>
<text text-anchor="middle" x="660.561" y="-659.8" font-family="Times,serif" font-size="14.00">reward</text>
</g>
<!-- Funding organizations&#45;&gt;Researchers -->
<g id="edge69" class="edge"><title>Funding organizations&#45;&gt;Researchers</title>
<path fill="none" stroke="#a8a8a8" d="M575.583,-531.167C616.492,-544.869 671.023,-565.376 687.061,-582 698.691,-594.055 732.221,-693.72 748.405,-743.262"/>
<polygon fill="#a8a8a8" stroke="#a8a8a8" points="745.159,-744.597 751.582,-753.023 751.816,-742.431 745.159,-744.597"/>
<text text-anchor="middle" x="660.561" y="-585.8" font-family="Times,serif" font-size="14.00">recognize</text>
</g>
<!-- Funding organizations&#45;&gt;Research Software Engineers -->
<g id="edge36" class="edge"><title>Funding organizations&#45;&gt;Research Software Engineers</title>
<path fill="none" stroke="#a8a8a8" d="M565.635,-499.666C601.479,-484.512 656.637,-461.566 705.061,-443 752.022,-424.995 780.72,-444.658 811.652,-405 862.731,-339.512 782.051,-287.058 829.652,-219 849.704,-190.33 866.533,-192.748 900.652,-185 969.021,-169.474 1188.41,-200.191 1210.83,-205 1244.36,-212.192 1260.96,-204.449 1283.83,-230 1360.27,-315.382 1402.01,-684.937 1412.54,-790.652"/>
<polygon fill="#a8a8a8" stroke="#a8a8a8" points="1409.08,-791.25 1413.54,-800.86 1416.05,-790.567 1409.08,-791.25"/>
<text text-anchor="middle" x="948.097" y="-188.8" font-family="Times,serif" font-size="14.00">reward</text>
</g>
<!-- Funding organizations&#45;&gt;Research Software Engineers -->
<g id="edge87" class="edge"><title>Funding organizations&#45;&gt;Research Software Engineers</title>
<path fill="none" stroke="#a8a8a8" d="M614.948,-512.745C686.728,-508.459 781.248,-498.593 811.652,-476 826.974,-464.613 817.495,-451.72 829.652,-437 893.715,-359.428 917.773,-335.814 1013.54,-305 1039.35,-296.696 1048.8,-296.501 1074.54,-305 1294.52,-377.626 1386.03,-694.716 1409.08,-791.106"/>
<polygon fill="#a8a8a8" stroke="#a8a8a8" points="1405.7,-792.048 1411.38,-800.991 1412.52,-790.457 1405.7,-792.048"/>
<text text-anchor="middle" x="948.097" y="-364.8" font-family="Times,serif" font-size="14.00">recognize</text>
</g>
<!-- Funding organizations&#45;&gt;Hiring organizations -->
<g id="edge68" class="edge"><title>Funding organizations&#45;&gt;Hiring organizations</title>
<path fill="none" stroke="#a8a8a8" d="M451.397,-525.935C374.903,-539.933 256.729,-572.528 184.385,-646 124.473,-706.847 98.4003,-808.776 88.8669,-857.878"/>
<polygon fill="#a8a8a8" stroke="#a8a8a8" points="85.4096,-857.327 87.0286,-867.797 92.2924,-858.602 85.4096,-857.327"/>
<text text-anchor="middle" x="301.531" y="-593.8" font-family="Times,serif" font-size="14.00">fund</text>
</g>
<!-- Code repositories -->
<g id="node6" class="node"><title>Code repositories</title>
<ellipse fill="none" stroke="black" cx="1753.8" cy="-837" rx="72.5877" ry="18"/>
<text text-anchor="middle" x="1753.8" y="-833.3" font-family="Times,serif" font-size="14.00">Code repositories</text>
</g>
<!-- Code repositories&#45;&gt;Research Software Engineers -->
<g id="edge82" class="edge"><title>Code repositories&#45;&gt;Research Software Engineers</title>
<path fill="none" stroke="#a8a8a8" d="M1695.12,-826.318C1670.16,-822.209 1640.54,-818.02 1613.61,-816 1584.8,-813.839 1577.5,-815.67 1548.61,-816 1545.67,-816.034 1542.69,-816.071 1539.69,-816.113"/>
<polygon fill="#a8a8a8" stroke="#a8a8a8" points="1539.34,-812.618 1529.39,-816.268 1539.45,-819.617 1539.34,-812.618"/>
<text text-anchor="middle" x="1581.11" y="-819.8" font-family="Times,serif" font-size="14.00">recognize</text>
</g>
<!-- Code repositories&#45;&gt;Research software -->
<g id="edge4" class="edge"><title>Code repositories&#45;&gt;Research software</title>
<path fill="none" stroke="#a8a8a8" d="M1823.95,-831.885C1861.28,-832.476 1906.44,-838.935 1939.99,-862 1993.78,-898.973 2021.29,-974.806 2032.78,-1015.95"/>
<polygon fill="#a8a8a8" stroke="#a8a8a8" points="2029.47,-1017.1 2035.43,-1025.86 2036.23,-1015.29 2029.47,-1017.1"/>
<text text-anchor="middle" x="1916.99" y="-865.8" font-family="Times,serif" font-size="14.00">measure</text>
</g>
<!-- Code repositories&#45;&gt;Research software -->
<g id="edge38" class="edge"><title>Code repositories&#45;&gt;Research software</title>
<path fill="none" stroke="#a8a8a8" d="M1791.79,-821.568C1831.69,-807.577 1895.45,-793.159 1939.99,-822 2007.21,-865.526 2029.46,-966.341 2036.48,-1015.72"/>
<polygon fill="#a8a8a8" stroke="#a8a8a8" points="2033.02,-1016.25 2037.79,-1025.71 2039.96,-1015.34 2033.02,-1016.25"/>
<text text-anchor="middle" x="1916.99" y="-825.8" font-family="Times,serif" font-size="14.00">store</text>
</g>
<!-- Supporting software -->
<g id="node14" class="node"><title>Supporting software</title>
<ellipse fill="none" stroke="black" cx="2040.53" cy="-634" rx="82.5854" ry="18"/>
<text text-anchor="middle" x="2040.53" y="-630.3" font-family="Times,serif" font-size="14.00">Supporting software</text>
</g>
<!-- Code repositories&#45;&gt;Supporting software -->
<g id="edge52" class="edge"><title>Code repositories&#45;&gt;Supporting software</title>
<path fill="none" stroke="#a8a8a8" d="M1816.28,-827.687C1836.26,-822.895 1857.93,-815.711 1875.99,-805 1886,-799.067 1885.97,-794.423 1893.99,-786 1936.55,-741.314 1986.31,-689.426 2015.24,-659.292"/>
<polygon fill="#a8a8a8" stroke="#a8a8a8" points="2018.07,-661.393 2022.47,-651.755 2013.02,-656.544 2018.07,-661.393"/>
<text text-anchor="middle" x="1916.99" y="-789.8" font-family="Times,serif" font-size="14.00">measure</text>
</g>
<!-- Code repositories&#45;&gt;Supporting software -->
<g id="edge85" class="edge"><title>Code repositories&#45;&gt;Supporting software</title>
<path fill="none" stroke="#a8a8a8" d="M1823.92,-832.133C1843.08,-827.534 1862.34,-819.344 1875.99,-805 1902.61,-777.028 1870.11,-750.347 1893.99,-720 1908,-702.19 1920.2,-709.039 1939.99,-698 1962.71,-685.33 1987.3,-669.538 2006.36,-656.811"/>
<polygon fill="#a8a8a8" stroke="#a8a8a8" points="2008.36,-659.687 2014.7,-651.202 2004.45,-653.878 2008.36,-659.687"/>
<text text-anchor="middle" x="1916.99" y="-723.8" font-family="Times,serif" font-size="14.00">store</text>
</g>
<!-- Communities&#45;&gt;Educators -->
<g id="edge14" class="edge"><title>Communities&#45;&gt;Educators</title>
<path fill="none" stroke="#a8a8a8" d="M1121.66,-573.25C1054.97,-537.132 895.541,-451.183 882.652,-448 859.783,-442.352 848.242,-433.534 829.652,-448 803.959,-467.992 828.863,-491.368 811.652,-519 773.214,-580.711 753.11,-594.615 687.061,-625 555.673,-685.443 507.552,-647.934 365.677,-676 360.886,-676.948 355.907,-678.005 350.941,-679.106"/>
<polygon fill="#a8a8a8" stroke="#a8a8a8" points="349.804,-675.776 340.831,-681.411 351.359,-682.601 349.804,-675.776"/>
<text text-anchor="middle" x="758.356" y="-619.8" font-family="Times,serif" font-size="14.00">recognize</text>
</g>
<!-- Communities&#45;&gt;Educators -->
<g id="edge24" class="edge"><title>Communities&#45;&gt;Educators</title>
<path fill="none" stroke="#a8a8a8" d="M1115.6,-574.725C1107.22,-570.046 1098.88,-564.164 1092.54,-557 1078.27,-540.864 1086.38,-529.996 1074.54,-512 1031.12,-445.981 1028.12,-386 949.097,-386 525.369,-386 525.369,-386 525.369,-386 418.091,-386 423.017,-476.332 365.677,-567 354.822,-584.164 356.585,-590.749 347.677,-609 338.441,-627.923 326.989,-648.697 317.93,-664.6"/>
<polygon fill="#a8a8a8" stroke="#a8a8a8" points="314.851,-662.935 312.908,-673.351 320.922,-666.42 314.851,-662.935"/>
<text text-anchor="middle" x="758.356" y="-389.8" font-family="Times,serif" font-size="14.00">reward</text>
</g>
<!-- Communities&#45;&gt;Software engineering processes -->
<g id="edge63" class="edge"><title>Communities&#45;&gt;Software engineering processes</title>
<path fill="none" stroke="#a8a8a8" d="M1169.22,-606.338C1183.21,-622.261 1202.32,-647.233 1210.83,-673 1220.46,-702.135 1208.28,-1202.22 1228.83,-1225 1274.18,-1275.24 1464.28,-1252.59 1530.61,-1266 1585.23,-1277.04 1646.27,-1293.85 1690.54,-1306.88"/>
<polygon fill="#a8a8a8" stroke="#a8a8a8" points="1689.7,-1310.28 1700.28,-1309.76 1691.69,-1303.57 1689.7,-1310.28"/>
<text text-anchor="middle" x="1416.22" y="-1269.8" font-family="Times,serif" font-size="14.00">standardize</text>
</g>
<!-- Communities&#45;&gt;Researchers -->
<g id="edge9" class="edge"><title>Communities&#45;&gt;Researchers</title>
<path fill="none" stroke="#a8a8a8" d="M1103.74,-578.36C1034.68,-565.704 905.675,-553.929 829.652,-621 792.872,-653.448 773.899,-709.234 765.331,-742.862"/>
<polygon fill="#a8a8a8" stroke="#a8a8a8" points="761.842,-742.403 762.905,-752.944 768.647,-744.04 761.842,-742.403"/>
<text text-anchor="middle" x="948.097" y="-584.8" font-family="Times,serif" font-size="14.00">recognize</text>
</g>
<!-- Communities&#45;&gt;Researchers -->
<g id="edge74" class="edge"><title>Communities&#45;&gt;Researchers</title>
<path fill="none" stroke="#a8a8a8" d="M1111.25,-602.236C1028.24,-630.17 842.065,-693.226 829.652,-701 810.562,-712.955 792.631,-730.964 779.657,-745.721"/>
<polygon fill="#a8a8a8" stroke="#a8a8a8" points="776.821,-743.651 772.983,-753.526 782.142,-748.2 776.821,-743.651"/>
<text text-anchor="middle" x="948.097" y="-676.8" font-family="Times,serif" font-size="14.00">reward</text>
</g>
<!-- Communities&#45;&gt;Research Software Engineers -->
<g id="edge2" class="edge"><title>Communities&#45;&gt;Research Software Engineers</title>
<path fill="none" stroke="#a8a8a8" d="M1184.03,-604.211C1197.72,-610.754 1214,-618.399 1228.83,-625 1253.04,-635.776 1262.83,-631.842 1283.83,-648 1336.62,-688.623 1379.5,-755.378 1400.74,-792.32"/>
<polygon fill="#a8a8a8" stroke="#a8a8a8" points="1397.7,-794.053 1405.67,-801.035 1403.8,-790.607 1397.7,-794.053"/>
<text text-anchor="middle" x="1256.33" y="-651.8" font-family="Times,serif" font-size="14.00">reward</text>
</g>
<!-- Communities&#45;&gt;Research Software Engineers -->
<g id="edge83" class="edge"><title>Communities&#45;&gt;Research Software Engineers</title>
<path fill="none" stroke="#a8a8a8" d="M1209.99,-585.842C1234.43,-587.051 1262.23,-592.049 1283.83,-606 1352.37,-650.271 1391.06,-744.213 1406.81,-791.127"/>
<polygon fill="#a8a8a8" stroke="#a8a8a8" points="1403.57,-792.494 1409.99,-800.923 1410.23,-790.33 1403.57,-792.494"/>
<text text-anchor="middle" x="1256.33" y="-609.8" font-family="Times,serif" font-size="14.00">recognize</text>
</g>
<!-- Archival repositories -->
<g id="node8" class="node"><title>Archival repositories</title>
<ellipse fill="none" stroke="black" cx="1753.8" cy="-581" rx="85.2851" ry="18"/>
<text text-anchor="middle" x="1753.8" y="-577.3" font-family="Times,serif" font-size="14.00">Archival repositories</text>
</g>
<!-- Archival repositories&#45;&gt;Researchers -->
<g id="edge33" class="edge"><title>Archival repositories&#45;&gt;Researchers</title>
<path fill="none" stroke="#a8a8a8" d="M1736.91,-563.203C1713.04,-537.862 1665.17,-492.315 1613.61,-473 1450.45,-411.871 951.875,-361.822 829.652,-486 806.256,-509.77 819.698,-602.633 811.652,-635 801.977,-673.918 784.23,-716.789 772.119,-743.793"/>
<polygon fill="#a8a8a8" stroke="#a8a8a8" points="768.891,-742.435 767.937,-752.987 775.263,-745.333 768.891,-742.435"/>
<text text-anchor="middle" x="1151.69" y="-414.8" font-family="Times,serif" font-size="14.00">recognize</text>
</g>
<!-- Archival repositories&#45;&gt;Research Software Engineers -->
<g id="edge59" class="edge"><title>Archival repositories&#45;&gt;Research Software Engineers</title>
<path fill="none" stroke="#a8a8a8" d="M1712.72,-596.916C1684.98,-607.844 1647.15,-622.564 1613.61,-635 1584.88,-645.654 1573.67,-640.364 1548.61,-658 1496.75,-694.499 1454.16,-756.788 1432.56,-792.238"/>
<polygon fill="#a8a8a8" stroke="#a8a8a8" points="1429.41,-790.683 1427.28,-801.061 1435.42,-794.276 1429.41,-790.683"/>
<text text-anchor="middle" x="1581.11" y="-661.8" font-family="Times,serif" font-size="14.00">recognize</text>
</g>
<!-- Archival repositories&#45;&gt;Research software -->
<g id="edge20" class="edge"><title>Archival repositories&#45;&gt;Research software</title>
<path fill="none" stroke="#a8a8a8" d="M1805.8,-595.44C1847.78,-609.907 1905.77,-636.266 1939.99,-679 2022.82,-782.451 2036.92,-949.565 2039.18,-1015.73"/>
<polygon fill="#a8a8a8" stroke="#a8a8a8" points="2035.68,-1015.91 2039.45,-1025.81 2042.68,-1015.72 2035.68,-1015.91"/>
<text text-anchor="middle" x="1916.99" y="-682.8" font-family="Times,serif" font-size="14.00">archive</text>
</g>
<!-- Archival repositories&#45;&gt;Research software -->
<g id="edge30" class="edge"><title>Archival repositories&#45;&gt;Research software</title>
<path fill="none" stroke="#a8a8a8" d="M1830.18,-589.076C1874.26,-595.325 1924.27,-605.561 1939.99,-621 1954.46,-635.204 2014.83,-923.875 2033.8,-1016"/>
<polygon fill="#a8a8a8" stroke="#a8a8a8" points="2030.41,-1016.9 2035.85,-1025.99 2037.27,-1015.49 2030.41,-1016.9"/>
<text text-anchor="middle" x="1916.99" y="-624.8" font-family="Times,serif" font-size="14.00">measure</text>
</g>
<!-- Archival repositories&#45;&gt;Supporting software -->
<g id="edge67" class="edge"><title>Archival repositories&#45;&gt;Supporting software</title>
<path fill="none" stroke="#a8a8a8" d="M1831.04,-573.373C1864.87,-572.034 1904.89,-573.283 1939.99,-582 1963.41,-587.815 1987.45,-600.159 2006.03,-611.361"/>
<polygon fill="#a8a8a8" stroke="#a8a8a8" points="2004.35,-614.436 2014.69,-616.735 2008.04,-608.488 2004.35,-614.436"/>
<text text-anchor="middle" x="1916.99" y="-585.8" font-family="Times,serif" font-size="14.00">measure</text>
</g>
<!-- Archival repositories&#45;&gt;Supporting software -->
<g id="edge71" class="edge"><title>Archival repositories&#45;&gt;Supporting software</title>
<path fill="none" stroke="#a8a8a8" d="M1794.14,-565.063C1832.36,-551.976 1891.55,-538.115 1939.99,-555 1970.25,-565.549 1998.22,-589.559 2016.75,-608.359"/>
<polygon fill="#a8a8a8" stroke="#a8a8a8" points="2014.66,-611.233 2024.1,-616.043 2019.72,-606.396 2014.66,-611.233"/>
<text text-anchor="middle" x="1916.99" y="-558.8" font-family="Times,serif" font-size="14.00">archive</text>
</g>
<!-- Indices -->
<g id="node9" class="node"><title>Indices</title>
<ellipse fill="none" stroke="black" cx="526.369" cy="-983" rx="36.2938" ry="18"/>
<text text-anchor="middle" x="526.369" y="-979.3" font-family="Times,serif" font-size="14.00">Indices</text>
</g>
<!-- Indices&#45;&gt;Researchers -->
<g id="edge7" class="edge"><title>Indices&#45;&gt;Researchers</title>
<path fill="none" stroke="#a8a8a8" d="M559.031,-975.021C602.759,-963.77 677.371,-943.653 687.061,-935 727.439,-898.944 745.447,-835.694 752.81,-799.178"/>
<polygon fill="#a8a8a8" stroke="#a8a8a8" points="756.278,-799.672 754.691,-789.197 749.4,-798.376 756.278,-799.672"/>
<text text-anchor="middle" x="660.561" y="-956.8" font-family="Times,serif" font-size="14.00">recognize</text>
</g>
<!-- Indices&#45;&gt;Research Software Engineers -->
<g id="edge35" class="edge"><title>Indices&#45;&gt;Research Software Engineers</title>
<path fill="none" stroke="#a8a8a8" d="M562.865,-985.073C694.324,-992.226 1152.65,-1012.37 1283.83,-954 1335.18,-931.153 1376.8,-878.148 1398.61,-845.768"/>
<polygon fill="#a8a8a8" stroke="#a8a8a8" points="1401.66,-847.503 1404.23,-837.225 1395.81,-843.657 1401.66,-847.503"/>
<text text-anchor="middle" x="948.097" y="-997.8" font-family="Times,serif" font-size="14.00">recognize</text>
</g>
<!-- Indices&#45;&gt;Research software -->
<g id="edge75" class="edge"><title>Indices&#45;&gt;Research software</title>
<path fill="none" stroke="#a8a8a8" d="M527.624,-1001.21C529.878,-1087.96 551.575,-1455 757.356,-1455 757.356,-1455 757.356,-1455 1045.04,-1455 1414.63,-1455 1552.68,-1602.05 1875.99,-1423 2005.95,-1351.03 2032.68,-1147.09 2038.14,-1072.11"/>
<polygon fill="#a8a8a8" stroke="#a8a8a8" points="2041.64,-1072.22 2038.8,-1062.01 2034.65,-1071.76 2041.64,-1072.22"/>
<text text-anchor="middle" x="1151.69" y="-1467.8" font-family="Times,serif" font-size="14.00">index</text>
</g>
<!-- Researchers&#45;&gt;Publishers -->
<g id="edge42" class="edge"><title>Researchers&#45;&gt;Publishers</title>
<path fill="none" stroke="#a8a8a8" d="M782.909,-754.905C796.038,-746.912 813.05,-738.102 829.652,-734 850.233,-728.914 873.462,-728.453 893.796,-729.699"/>
<polygon fill="#a8a8a8" stroke="#a8a8a8" points="893.591,-733.193 903.828,-730.463 894.123,-726.214 893.591,-733.193"/>
<text text-anchor="middle" x="856.152" y="-737.8" font-family="Times,serif" font-size="14.00">publish</text>
</g>
<!-- Researchers&#45;&gt;Software engineering processes -->
<g id="edge54" class="edge"><title>Researchers&#45;&gt;Software engineering processes</title>
<path fill="none" stroke="#a8a8a8" d="M763.201,-789.066C772.586,-833.682 796.974,-952.74 811.652,-1053 817.059,-1089.93 803.427,-1193.44 829.652,-1220 889.598,-1280.71 1126.37,-1253.95 1210.83,-1266 1251.41,-1271.79 1261.2,-1275.63 1301.83,-1281 1415.17,-1295.98 1545.14,-1308.45 1636.34,-1316.44"/>
<polygon fill="#a8a8a8" stroke="#a8a8a8" points="1636.16,-1319.94 1646.43,-1317.32 1636.77,-1312.96 1636.16,-1319.94"/>
<text text-anchor="middle" x="1151.69" y="-1269.8" font-family="Times,serif" font-size="14.00">research</text>
</g>
<!-- Researchers&#45;&gt;Funding organizations -->
<g id="edge55" class="edge"><title>Researchers&#45;&gt;Funding organizations</title>
<path fill="none" stroke="#a8a8a8" d="M750.59,-753.063C739.938,-724.397 719.037,-666.353 705.061,-616 695.082,-580.047 714.779,-558.979 687.061,-534 677.321,-525.222 653.206,-520.464 626.585,-517.956"/>
<polygon fill="#a8a8a8" stroke="#a8a8a8" points="626.539,-514.44 616.284,-517.102 625.96,-521.416 626.539,-514.44"/>
<text text-anchor="middle" x="660.561" y="-537.8" font-family="Times,serif" font-size="14.00">propose</text>
</g>
<!-- Researchers&#45;&gt;Communities -->
<g id="edge13" class="edge"><title>Researchers&#45;&gt;Communities</title>
<path fill="none" stroke="#a8a8a8" d="M764.482,-752.759C773.135,-725.532 793.35,-674.72 829.652,-649 869.749,-620.591 1002.73,-603.146 1084.43,-594.841"/>
<polygon fill="#a8a8a8" stroke="#a8a8a8" points="1085.01,-598.3 1094.62,-593.826 1084.32,-591.335 1085.01,-598.3"/>
<text text-anchor="middle" x="948.097" y="-625.8" font-family="Times,serif" font-size="14.00">join</text>
</g>
<!-- Researchers&#45;&gt;Archival repositories -->
<g id="edge41" class="edge"><title>Researchers&#45;&gt;Archival repositories</title>
<path fill="none" stroke="#a8a8a8" d="M766.417,-753.008C776.582,-727.02 795.856,-677.436 811.652,-635 819.891,-612.865 813.247,-601.991 829.652,-585 868.703,-544.553 890.875,-538 947.097,-538 947.097,-538 947.097,-538 1417.22,-538 1509.27,-538 1614.37,-554.112 1682.05,-566.611"/>
<polygon fill="#a8a8a8" stroke="#a8a8a8" points="1681.7,-570.106 1692.17,-568.505 1682.99,-563.225 1681.7,-570.106"/>
<text text-anchor="middle" x="1151.69" y="-541.8" font-family="Times,serif" font-size="14.00">publish</text>
</g>
<!-- Researchers&#45;&gt;Archival repositories -->
<g id="edge62" class="edge"><title>Researchers&#45;&gt;Archival repositories</title>
<path fill="none" stroke="#a8a8a8" d="M767.507,-752.872C778.809,-727.127 799.245,-678.285 811.652,-635 823.252,-594.529 799.344,-571.222 829.652,-542 941.824,-433.846 1376.51,-500.958 1530.61,-524 1587.92,-532.568 1651.85,-549.809 1696.38,-563.096"/>
<polygon fill="#a8a8a8" stroke="#a8a8a8" points="1695.55,-566.502 1706.13,-566.038 1697.57,-559.8 1695.55,-566.502"/>
<text text-anchor="middle" x="1151.69" y="-490.8" font-family="Times,serif" font-size="14.00">disseminate</text>
</g>
<!-- Researchers&#45;&gt;Research Software Engineers -->
<g id="edge25" class="edge"><title>Researchers&#45;&gt;Research Software Engineers</title>
<path fill="none" stroke="#a8a8a8" d="M765.134,-789.039C774.283,-814.208 794.741,-858.919 829.652,-878 918.215,-926.406 1185.24,-899.613 1283.83,-878 1316.79,-870.775 1351.51,-854.776 1376.97,-841.259"/>
<polygon fill="#a8a8a8" stroke="#a8a8a8" points="1378.79,-844.254 1385.91,-836.412 1375.45,-838.1 1378.79,-844.254"/>
<text text-anchor="middle" x="1044.04" y="-908.8" font-family="Times,serif" font-size="14.00">collaborate</text>
</g>
<!-- Researchers&#45;&gt;Research Software Engineers -->
<g id="edge92" class="edge"><title>Researchers&#45;&gt;Research Software Engineers</title>
<path fill="none" stroke="#ff3030" d="M774.816,-788.237C787.957,-801.62 808.081,-819.314 829.652,-828 859.027,-839.829 869.058,-831.826 900.652,-834 1070.55,-845.691 1113.98,-847.342 1283.83,-835 1295.29,-834.167 1307.29,-833.05 1319.17,-831.79"/>
<polygon fill="#ff3030" stroke="#ff3030" points="1319.56,-835.269 1329.11,-830.702 1318.79,-828.311 1319.56,-835.269"/>
<text text-anchor="middle" x="1044.04" y="-846.8" font-family="Times,serif" font-size="14.00">are</text>
</g>
<!-- Researchers&#45;&gt;Research software -->
<g id="edge16" class="edge"><title>Researchers&#45;&gt;Research software</title>
<path fill="none" stroke="#a8a8a8" d="M763.295,-789.052C772.892,-833.638 797.719,-952.634 811.652,-1053 823.558,-1138.77 799.155,-1165.96 829.652,-1247 860.972,-1330.23 858.167,-1409 947.097,-1409 947.097,-1409 947.097,-1409 1754.8,-1409 1925.69,-1409 2009.13,-1157.19 2032.5,-1071.88"/>
<polygon fill="#a8a8a8" stroke="#a8a8a8" points="2035.91,-1072.67 2035.11,-1062.1 2029.15,-1070.86 2035.91,-1072.67"/>
<text text-anchor="middle" x="1256.33" y="-1412.8" font-family="Times,serif" font-size="14.00">reproduce</text>
</g>
<!-- Researchers&#45;&gt;Research software -->
<g id="edge43" class="edge"><title>Researchers&#45;&gt;Research software</title>
<path fill="none" stroke="#a8a8a8" d="M763.003,-789.096C771.944,-833.781 795.408,-952.982 811.652,-1053 816.292,-1081.57 809.839,-1160.9 829.652,-1182 866.12,-1220.84 893.821,-1206 947.097,-1206 947.097,-1206 947.097,-1206 1257.33,-1206 1561.01,-1206 1681.9,-1337.03 1939.99,-1177 1981.13,-1151.49 2011.11,-1102.26 2026.88,-1071.38"/>
<polygon fill="#a8a8a8" stroke="#a8a8a8" points="2030.2,-1072.57 2031.5,-1062.05 2023.93,-1069.46 2030.2,-1072.57"/>
<text text-anchor="middle" x="1256.33" y="-1209.8" font-family="Times,serif" font-size="14.00">cite</text>
</g>
<!-- Researchers&#45;&gt;Research software -->
<g id="edge46" class="edge"><title>Researchers&#45;&gt;Research software</title>
<path fill="none" stroke="#a8a8a8" d="M762.708,-789.156C776.479,-863.695 828.05,-1142.37 829.652,-1144 867.035,-1181.96 893.821,-1168 947.097,-1168 947.097,-1168 947.097,-1168 1257.33,-1168 1295.29,-1168 1905.06,-1153.86 1939.99,-1139 1973.91,-1124.57 2003.1,-1093.03 2020.94,-1070.24"/>
<polygon fill="#a8a8a8" stroke="#a8a8a8" points="2023.95,-1072.07 2027.21,-1061.99 2018.37,-1067.83 2023.95,-1072.07"/>
<text text-anchor="middle" x="1256.33" y="-1171.8" font-family="Times,serif" font-size="14.00">research</text>
</g>
<!-- Researchers&#45;&gt;Research software -->
<g id="edge80" class="edge"><title>Researchers&#45;&gt;Research software</title>
<path fill="none" stroke="#a8a8a8" d="M760.208,-789.296C764.68,-862.454 791.658,-1130 947.097,-1130 947.097,-1130 947.097,-1130 1257.33,-1130 1533.08,-1130 1601.42,-1108.44 1875.99,-1083 1904.48,-1080.36 1912.01,-1081.96 1939.99,-1076 1956.16,-1072.55 1973.42,-1067.51 1988.95,-1062.44"/>
<polygon fill="#a8a8a8" stroke="#a8a8a8" points="1990.5,-1065.62 1998.87,-1059.13 1988.28,-1058.98 1990.5,-1065.62"/>
<text text-anchor="middle" x="1256.33" y="-1133.8" font-family="Times,serif" font-size="14.00">use</text>
</g>
<!-- Researchers&#45;&gt;Supporting software -->
<g id="edge44" class="edge"><title>Researchers&#45;&gt;Supporting software</title>
<path fill="none" stroke="#a8a8a8" d="M768.082,-753.022C780.066,-727.456 801.308,-678.824 811.652,-635 859.286,-433.182 778.62,-344.653 900.652,-177 935.673,-128.886 957.029,-123.644 1013.54,-105 1266.92,-21.4145 1373.85,29.0495 1613.61,-88 1847.1,-201.989 1989.92,-512.665 2028.75,-606.683"/>
<polygon fill="#a8a8a8" stroke="#a8a8a8" points="2025.56,-608.138 2032.58,-616.077 2032.04,-605.496 2025.56,-608.138"/>
<text text-anchor="middle" x="1256.33" y="-40.8" font-family="Times,serif" font-size="14.00">use</text>
</g>
<!-- Research Software Engineers&#45;&gt;Publishers -->
<g id="edge66" class="edge"><title>Research Software Engineers&#45;&gt;Publishers</title>
<path fill="none" stroke="#a8a8a8" d="M1371.26,-802.375C1345.94,-793.197 1313.37,-782.059 1283.83,-774 1188.66,-748.038 1073.54,-740.226 1006.1,-737.916"/>
<polygon fill="#a8a8a8" stroke="#a8a8a8" points="1005.8,-734.406 995.699,-737.591 1005.58,-741.402 1005.8,-734.406"/>
<text text-anchor="middle" x="1151.69" y="-760.8" font-family="Times,serif" font-size="14.00">publish</text>
</g>
<!-- Research Software Engineers&#45;&gt;Software engineering processes -->
<g id="edge21" class="edge"><title>Research Software Engineers&#45;&gt;Software engineering processes</title>
<path fill="none" stroke="#a8a8a8" d="M1426.07,-837.216C1446.08,-877.905 1497.09,-978.823 1548.61,-1058 1609.1,-1150.96 1692.01,-1253.24 1730.93,-1300.04"/>
<polygon fill="#a8a8a8" stroke="#a8a8a8" points="1728.36,-1302.42 1737.46,-1307.85 1733.74,-1297.93 1728.36,-1302.42"/>
<text text-anchor="middle" x="1581.11" y="-1152.8" font-family="Times,serif" font-size="14.00">use</text>
</g>
<!-- Research Software Engineers&#45;&gt;Software engineering processes -->
<g id="edge76" class="edge"><title>Research Software Engineers&#45;&gt;Software engineering processes</title>
<path fill="none" stroke="#a8a8a8" d="M1427.61,-837.17C1449.95,-877.067 1502.81,-975.889 1530.61,-1065 1544.45,-1109.36 1524.62,-1128.2 1548.61,-1168 1586.67,-1231.11 1660.06,-1278.32 1707.7,-1304.03"/>
<polygon fill="#a8a8a8" stroke="#a8a8a8" points="1706.1,-1307.14 1716.58,-1308.73 1709.38,-1300.96 1706.1,-1307.14"/>
<text text-anchor="middle" x="1581.11" y="-1244.8" font-family="Times,serif" font-size="14.00">develop</text>
</g>
<!-- Research Software Engineers&#45;&gt;Funding organizations -->
<g id="edge3" class="edge"><title>Research Software Engineers&#45;&gt;Funding organizations</title>
<path fill="none" stroke="#a8a8a8" d="M1413.81,-800.863C1406.55,-712.405 1370.29,-327.485 1283.83,-253 1257.35,-230.184 910.121,-151.28 829.652,-258 804.784,-290.98 838.736,-411.814 811.652,-443 758.402,-504.315 712.628,-465.45 634.061,-486 619.096,-489.914 603.009,-494.328 587.98,-498.543"/>
<polygon fill="#a8a8a8" stroke="#a8a8a8" points="586.955,-495.195 578.279,-501.276 588.854,-501.933 586.955,-495.195"/>
<text text-anchor="middle" x="948.097" y="-219.8" font-family="Times,serif" font-size="14.00">propose</text>
</g>
<!-- Research Software Engineers&#45;&gt;Code repositories -->
<g id="edge51" class="edge"><title>Research Software Engineers&#45;&gt;Code repositories</title>
<path fill="none" stroke="#a8a8a8" d="M1502.97,-830.837C1518.14,-832.533 1533.82,-834.03 1548.61,-835 1588.71,-837.629 1633.33,-838.323 1670.6,-838.279"/>
<polygon fill="#a8a8a8" stroke="#a8a8a8" points="1670.92,-841.778 1680.91,-838.248 1670.9,-834.778 1670.92,-841.778"/>
<text text-anchor="middle" x="1581.11" y="-840.8" font-family="Times,serif" font-size="14.00">publish</text>
</g>
<!-- Research Software Engineers&#45;&gt;Communities -->
<g id="edge86" class="edge"><title>Research Software Engineers&#45;&gt;Communities</title>
<path fill="none" stroke="#a8a8a8" d="M1412.2,-800.727C1403.08,-752.291 1370.94,-620.719 1283.83,-568 1256.13,-551.232 1219.35,-559.182 1191.8,-569.776"/>
<polygon fill="#a8a8a8" stroke="#a8a8a8" points="1190.39,-566.569 1182.46,-573.597 1193.04,-573.047 1190.39,-566.569"/>
<text text-anchor="middle" x="1256.33" y="-571.8" font-family="Times,serif" font-size="14.00">join</text>
</g>
<!-- Research Software Engineers&#45;&gt;Archival repositories -->
<g id="edge47" class="edge"><title>Research Software Engineers&#45;&gt;Archival repositories</title>
<path fill="none" stroke="#a8a8a8" d="M1420.83,-800.723C1431.13,-754.157 1465.43,-631.27 1548.61,-582 1590.54,-557.163 1646.33,-558.714 1688.99,-565.474"/>
<polygon fill="#a8a8a8" stroke="#a8a8a8" points="1688.54,-568.947 1698.98,-567.189 1689.72,-562.048 1688.54,-568.947"/>
<text text-anchor="middle" x="1581.11" y="-585.8" font-family="Times,serif" font-size="14.00">disseminate</text>
</g>
<!-- Research Software Engineers&#45;&gt;Archival repositories -->
<g id="edge56" class="edge"><title>Research Software Engineers&#45;&gt;Archival repositories</title>
<path fill="none" stroke="#a8a8a8" d="M1423.56,-800.894C1438.48,-761.076 1479.89,-665.813 1548.61,-620 1568.2,-606.941 1620.86,-597.063 1667.79,-590.516"/>
<polygon fill="#a8a8a8" stroke="#a8a8a8" points="1668.27,-593.983 1677.71,-589.169 1667.33,-587.047 1668.27,-593.983"/>
<text text-anchor="middle" x="1581.11" y="-623.8" font-family="Times,serif" font-size="14.00">publish</text>
</g>
<!-- Research Software Engineers&#45;&gt;Researchers -->
<g id="edge28" class="edge"><title>Research Software Engineers&#45;&gt;Researchers</title>
<path fill="none" stroke="#a8a8a8" d="M1302.37,-820.746C1144.95,-822.708 873.715,-824.194 829.652,-812 815.546,-808.096 801.345,-800.638 789.437,-793.142"/>
<polygon fill="#a8a8a8" stroke="#a8a8a8" points="791.092,-790.041 780.816,-787.459 787.239,-795.885 791.092,-790.041"/>
<text text-anchor="middle" x="1044.04" y="-824.8" font-family="Times,serif" font-size="14.00">support</text>
</g>
<!-- Research Software Engineers&#45;&gt;Researchers -->
<g id="edge91" class="edge"><title>Research Software Engineers&#45;&gt;Researchers</title>
<path fill="none" stroke="#ff3030" d="M1310.74,-811.934C1193.58,-803.912 997.943,-790.217 829.652,-777 826.576,-776.758 823.425,-776.506 820.244,-776.248"/>
<polygon fill="#ff3030" stroke="#ff3030" points="820.286,-772.74 810.033,-775.408 819.712,-779.716 820.286,-772.74"/>
<text text-anchor="middle" x="1044.04" y="-798.8" font-family="Times,serif" font-size="14.00">are</text>
</g>
<!-- Research Software Engineers&#45;&gt;Research Software Engineers -->
<g id="edge93" class="edge"><title>Research Software Engineers&#45;&gt;Research Software Engineers</title>
<path fill="none" stroke="black" d="M1387.82,-836.782C1382.99,-846.315 1392.46,-855 1416.22,-855 1430.7,-855 1439.87,-851.775 1443.74,-847.098"/>
<polygon fill="black" stroke="black" points="1447.26,-847.045 1444.63,-836.782 1440.28,-846.445 1447.26,-847.045"/>
<text text-anchor="middle" x="1416.22" y="-858.8" font-family="Times,serif" font-size="14.00">collaborate</text>
</g>
<!-- Research Software Engineers&#45;&gt;Research software -->
<g id="edge17" class="edge"><title>Research Software Engineers&#45;&gt;Research software</title>
<path fill="none" stroke="#a8a8a8" d="M1492.06,-805.476C1619.48,-784.226 1871.45,-750.461 1939.99,-802 2009.48,-854.254 2030.71,-963.634 2036.99,-1015.52"/>
<polygon fill="#a8a8a8" stroke="#a8a8a8" points="2033.54,-1016.12 2038.12,-1025.68 2040.49,-1015.35 2033.54,-1016.12"/>
<text text-anchor="middle" x="1753.8" y="-788.8" font-family="Times,serif" font-size="14.00">own</text>
</g>
<!-- Research Software Engineers&#45;&gt;Research software -->
<g id="edge18" class="edge"><title>Research Software Engineers&#45;&gt;Research software</title>
<path fill="none" stroke="#a8a8a8" d="M1423.62,-836.975C1438.56,-875.925 1479.77,-967.762 1548.61,-1007 1615.87,-1045.33 1833.78,-1047.94 1955.44,-1046.19"/>
<polygon fill="#a8a8a8" stroke="#a8a8a8" points="1955.52,-1049.69 1965.46,-1046.03 1955.41,-1042.69 1955.52,-1049.69"/>
<text text-anchor="middle" x="1753.8" y="-1049.8" font-family="Times,serif" font-size="14.00">develop</text>
</g>
<!-- Research Software Engineers&#45;&gt;Research software -->
<g id="edge22" class="edge"><title>Research Software Engineers&#45;&gt;Research software</title>
<path fill="none" stroke="#a8a8a8" d="M1428.85,-837.197C1449.16,-867.327 1494.18,-927.114 1548.61,-956 1679.01,-1025.19 1730.8,-985.381 1875.99,-1012 1907.68,-1017.81 1942.75,-1024.62 1972.26,-1030.46"/>
<polygon fill="#a8a8a8" stroke="#a8a8a8" points="1971.96,-1033.97 1982.45,-1032.49 1973.33,-1027.11 1971.96,-1033.97"/>
<text text-anchor="middle" x="1753.8" y="-1015.8" font-family="Times,serif" font-size="14.00">reuse</text>
</g>
<!-- Research Software Engineers&#45;&gt;Research software -->
<g id="edge31" class="edge"><title>Research Software Engineers&#45;&gt;Research software</title>
<path fill="none" stroke="#a8a8a8" d="M1438.54,-836.713C1463.39,-856.432 1506.46,-887.784 1548.61,-905 1685.94,-961.093 1734.74,-924.683 1875.99,-970 1919.74,-984.037 1967.35,-1006.45 1999.85,-1022.94"/>
<polygon fill="#a8a8a8" stroke="#a8a8a8" points="1998.52,-1026.19 2009.02,-1027.63 2001.72,-1019.96 1998.52,-1026.19"/>
<text text-anchor="middle" x="1753.8" y="-973.8" font-family="Times,serif" font-size="14.00">test</text>
</g>
<!-- Research Software Engineers&#45;&gt;Research software -->
<g id="edge84" class="edge"><title>Research Software Engineers&#45;&gt;Research software</title>
<path fill="none" stroke="#a8a8a8" d="M1469.33,-835.034C1493.32,-842.065 1522.26,-850.053 1548.61,-856 1692.61,-888.496 1741.46,-851.237 1875.99,-912 1933.01,-937.754 1987.02,-988.227 2016.47,-1018.75"/>
<polygon fill="#a8a8a8" stroke="#a8a8a8" points="2013.98,-1021.22 2023.41,-1026.06 2019.06,-1016.4 2013.98,-1021.22"/>
<text text-anchor="middle" x="1753.8" y="-915.8" font-family="Times,serif" font-size="14.00">design</text>
</g>
<!-- Research Software Engineers&#45;&gt;Supporting software -->
<g id="edge11" class="edge"><title>Research Software Engineers&#45;&gt;Supporting software</title>
<path fill="none" stroke="#a8a8a8" d="M1461.05,-802.416C1486.46,-793.027 1519.17,-781.332 1548.61,-772 1719.65,-717.79 1768.98,-727.312 1939.99,-673 1957.44,-667.458 1976.22,-660.397 1992.72,-653.81"/>
<polygon fill="#a8a8a8" stroke="#a8a8a8" points="1994.18,-656.994 2002.14,-650.001 1991.56,-650.504 1994.18,-656.994"/>
<text text-anchor="middle" x="1753.8" y="-750.8" font-family="Times,serif" font-size="14.00">use</text>
</g>
<!-- Hiring organizations&#45;&gt;Hardware &amp; system software -->
<g id="edge48" class="edge"><title>Hiring organizations&#45;&gt;Hardware &amp; system software</title>
<path fill="none" stroke="#a8a8a8" d="M84.1472,-904.265C84.2295,-1009.69 89.4147,-1540.01 184.385,-1665 218.28,-1709.61 244.505,-1714 300.531,-1714 300.531,-1714 300.531,-1714 2041.53,-1714 2181.1,-1714 2272.25,-1200.05 2292.73,-1072.42"/>
<polygon fill="#a8a8a8" stroke="#a8a8a8" points="2296.23,-1072.69 2294.34,-1062.27 2289.32,-1071.6 2296.23,-1072.69"/>
<text text-anchor="middle" x="1044.04" y="-1717.8" font-family="Times,serif" font-size="14.00">own</text>
</g>
<!-- Hiring organizations&#45;&gt;Educators -->
<g id="edge34" class="edge"><title>Hiring organizations&#45;&gt;Educators</title>
<path fill="none" stroke="#a8a8a8" d="M95.446,-868.173C112.157,-842.93 145.746,-796.656 184.385,-768 205.01,-752.704 215.608,-758.606 237.385,-745 251.068,-736.451 264.849,-725.064 276.03,-714.95"/>
<polygon fill="#a8a8a8" stroke="#a8a8a8" points="278.716,-717.234 283.674,-707.871 273.959,-712.098 278.716,-717.234"/>
<text text-anchor="middle" x="210.885" y="-771.8" font-family="Times,serif" font-size="14.00">promote</text>
</g>
<!-- Hiring organizations&#45;&gt;Educators -->
<g id="edge39" class="edge"><title>Hiring organizations&#45;&gt;Educators</title>
<path fill="none" stroke="#a8a8a8" d="M90.5676,-867.9C103.181,-834.723 134.497,-764.084 184.385,-726 190.175,-721.58 223.634,-711.714 253.161,-703.58"/>
<polygon fill="#a8a8a8" stroke="#a8a8a8" points="254.254,-706.91 262.978,-700.898 252.409,-700.157 254.254,-706.91"/>
<text text-anchor="middle" x="210.885" y="-729.8" font-family="Times,serif" font-size="14.00">reward</text>
</g>
<!-- Hiring organizations&#45;&gt;Educators -->
<g id="edge53" class="edge"><title>Hiring organizations&#45;&gt;Educators</title>
<path fill="none" stroke="#a8a8a8" d="M87.031,-867.909C94.4907,-827.281 118.804,-729.222 184.385,-689 204.735,-676.519 231.098,-676.008 253.563,-679.066"/>
<polygon fill="#a8a8a8" stroke="#a8a8a8" points="253.142,-682.543 263.574,-680.691 254.265,-675.634 253.142,-682.543"/>
<text text-anchor="middle" x="210.885" y="-692.8" font-family="Times,serif" font-size="14.00">hire</text>
</g>
<!-- Hiring organizations&#45;&gt;Educators -->
<g id="edge60" class="edge"><title>Hiring organizations&#45;&gt;Educators</title>
<path fill="none" stroke="#a8a8a8" d="M85.7367,-867.899C90.6611,-822.94 110.348,-706.336 184.385,-658 210.649,-640.854 245.888,-655.024 270.639,-669.76"/>
<polygon fill="#a8a8a8" stroke="#a8a8a8" points="268.916,-672.811 279.247,-675.158 272.635,-666.88 268.916,-672.811"/>
<text text-anchor="middle" x="210.885" y="-661.8" font-family="Times,serif" font-size="14.00">recognize</text>
</g>
<!-- Hiring organizations&#45;&gt;Software engineering processes -->
<g id="edge29" class="edge"><title>Hiring organizations&#45;&gt;Software engineering processes</title>
<path fill="none" stroke="#a8a8a8" d="M85.9396,-904.151C94.2999,-988.635 131.992,-1343.33 184.385,-1440 216.296,-1498.88 233.56,-1536 300.531,-1536 300.531,-1536 300.531,-1536 1045.04,-1536 1307.25,-1536 1602.36,-1401.89 1710.34,-1348.02"/>
<polygon fill="#a8a8a8" stroke="#a8a8a8" points="1712.24,-1350.98 1719.6,-1343.36 1709.09,-1344.73 1712.24,-1350.98"/>
<text text-anchor="middle" x="856.152" y="-1539.8" font-family="Times,serif" font-size="14.00">formalize</text>
</g>
<!-- Hiring organizations&#45;&gt;Software engineering processes -->
<g id="edge61" class="edge"><title>Hiring organizations&#45;&gt;Software engineering processes</title>
<path fill="none" stroke="#a8a8a8" d="M85.3948,-904.166C91.5909,-993.776 122.066,-1388.56 184.385,-1492 216.993,-1546.13 237.342,-1574 300.531,-1574 300.531,-1574 300.531,-1574 1045.04,-1574 1265.03,-1574 1327.79,-1563.18 1530.61,-1478 1607.41,-1445.75 1684.97,-1384.73 1725,-1350.64"/>
<polygon fill="#a8a8a8" stroke="#a8a8a8" points="1727.43,-1353.16 1732.73,-1343.99 1722.87,-1347.86 1727.43,-1353.16"/>
<text text-anchor="middle" x="856.152" y="-1577.8" font-family="Times,serif" font-size="14.00">require</text>
</g>
<!-- Hiring organizations&#45;&gt;Code repositories -->
<g id="edge40" class="edge"><title>Hiring organizations&#45;&gt;Code repositories</title>
<path fill="none" stroke="#a8a8a8" d="M84.3041,-904.191C85.4291,-971.312 95.7936,-1209.88 184.385,-1378 218.988,-1443.66 226.308,-1498 300.531,-1498 300.531,-1498 300.531,-1498 1045.04,-1498 1318.99,-1498 1469.18,-1492.77 1613.61,-1260 1636.78,-1222.67 1603.49,-898.754 1631.61,-865 1641.7,-852.888 1655.9,-845.407 1671.03,-840.9"/>
<polygon fill="#a8a8a8" stroke="#a8a8a8" points="1672.24,-844.203 1681.08,-838.35 1670.52,-837.418 1672.24,-844.203"/>
<text text-anchor="middle" x="856.152" y="-1501.8" font-family="Times,serif" font-size="14.00">own</text>
</g>
<!-- Hiring organizations&#45;&gt;Archival repositories -->
<g id="edge23" class="edge"><title>Hiring organizations&#45;&gt;Archival repositories</title>
<path fill="none" stroke="#a8a8a8" d="M85.0971,-867.715C90.2815,-767.714 118.342,-286.739 184.385,-156 216.859,-91.7161 228.511,-43 300.531,-43 300.531,-43 300.531,-43 1045.04,-43 1386.98,-43 1667.15,-445.92 1736.37,-554.384"/>
<polygon fill="#a8a8a8" stroke="#a8a8a8" points="1733.58,-556.518 1741.88,-563.1 1739.5,-552.777 1733.58,-556.518"/>
<text text-anchor="middle" x="856.152" y="-46.8" font-family="Times,serif" font-size="14.00">own</text>
</g>
<!-- Hiring organizations&#45;&gt;Researchers -->
<g id="edge37" class="edge"><title>Hiring organizations&#45;&gt;Researchers</title>
<path fill="none" stroke="#a8a8a8" d="M122.987,-901.864C141.28,-908.539 163.609,-915.549 184.385,-919 294.599,-937.307 593.146,-970.516 687.061,-910 725.624,-885.152 743.946,-832.198 751.92,-799.299"/>
<polygon fill="#a8a8a8" stroke="#a8a8a8" points="755.37,-799.908 754.158,-789.383 748.542,-798.367 755.37,-799.908"/>
<text text-anchor="middle" x="392.177" y="-946.8" font-family="Times,serif" font-size="14.00">promote</text>
</g>
<!-- Hiring organizations&#45;&gt;Researchers -->
<g id="edge50" class="edge"><title>Hiring organizations&#45;&gt;Researchers</title>
<path fill="none" stroke="#a8a8a8" d="M166.005,-888.52C270.66,-890.778 457.374,-891.558 616.061,-875 647.891,-871.679 659.659,-879.533 687.061,-863 712.698,-847.532 732.3,-818.916 744.21,-797.69"/>
<polygon fill="#a8a8a8" stroke="#a8a8a8" points="747.328,-799.283 748.987,-788.819 741.165,-795.965 747.328,-799.283"/>
<text text-anchor="middle" x="392.177" y="-891.8" font-family="Times,serif" font-size="14.00">recognize</text>
</g>
<!-- Hiring organizations&#45;&gt;Researchers -->
<g id="edge57" class="edge"><title>Hiring organizations&#45;&gt;Researchers</title>
<path fill="none" stroke="#a8a8a8" d="M158.657,-878.162C273.191,-865.29 499.056,-836.66 687.061,-793 694.768,-791.21 702.857,-789 710.691,-786.678"/>
<polygon fill="#a8a8a8" stroke="#a8a8a8" points="711.892,-789.971 720.432,-783.7 709.845,-783.277 711.892,-789.971"/>
<text text-anchor="middle" x="392.177" y="-854.8" font-family="Times,serif" font-size="14.00">hire</text>
</g>
<!-- Hiring organizations&#45;&gt;Researchers -->
<g id="edge79" class="edge"><title>Hiring organizations&#45;&gt;Researchers</title>
<path fill="none" stroke="#a8a8a8" d="M136.057,-872.018C204.449,-854.057 328.765,-823.052 436.677,-805 526.305,-790.006 631.195,-780.357 695.961,-775.303"/>
<polygon fill="#a8a8a8" stroke="#a8a8a8" points="696.3,-778.788 706.002,-774.532 695.764,-771.808 696.3,-778.788"/>
<text text-anchor="middle" x="392.177" y="-820.8" font-family="Times,serif" font-size="14.00">reward</text>
</g>
<!-- Hiring organizations&#45;&gt;Research Software Engineers -->
<g id="edge10" class="edge"><title>Hiring organizations&#45;&gt;Research Software Engineers</title>
<path fill="none" stroke="#a8a8a8" d="M85.7407,-904.154C92.6511,-981.119 123.067,-1279.6 184.385,-1347 220.844,-1387.07 246.355,-1384 300.531,-1384 300.531,-1384 300.531,-1384 661.561,-1384 730.825,-1384 1234.7,-1395.82 1283.83,-1347 1305.4,-1325.57 1294.54,-1103.51 1301.83,-1074 1323.47,-986.393 1373.64,-891.284 1399.38,-845.963"/>
<polygon fill="#a8a8a8" stroke="#a8a8a8" points="1402.54,-847.484 1404.48,-837.068 1396.47,-844.001 1402.54,-847.484"/>
<text text-anchor="middle" x="758.356" y="-1388.8" font-family="Times,serif" font-size="14.00">promote</text>
</g>
<!-- Hiring organizations&#45;&gt;Research Software Engineers -->
<g id="edge27" class="edge"><title>Hiring organizations&#45;&gt;Research Software Engineers</title>
<path fill="none" stroke="#a8a8a8" d="M84.4077,-904.077C86.4342,-987.703 106.547,-1333 300.531,-1333 300.531,-1333 300.531,-1333 1152.69,-1333 1228.2,-1333 1247.62,-1291.25 1283.83,-1225 1316.25,-1165.7 1283.9,-1139.16 1301.83,-1074 1325.77,-986.994 1374.9,-891.612 1399.89,-846.097"/>
<polygon fill="#a8a8a8" stroke="#a8a8a8" points="1403.05,-847.606 1404.84,-837.162 1396.93,-844.214 1403.05,-847.606"/>
<text text-anchor="middle" x="758.356" y="-1336.8" font-family="Times,serif" font-size="14.00">hire</text>
</g>
<!-- Hiring organizations&#45;&gt;Research Software Engineers -->
<g id="edge64" class="edge"><title>Hiring organizations&#45;&gt;Research Software Engineers</title>
<path fill="none" stroke="#a8a8a8" d="M93.5894,-904.122C119.563,-951.427 197.294,-1075 300.531,-1075 300.531,-1075 300.531,-1075 661.561,-1075 940.236,-1075 1051.22,-1151.47 1283.83,-998 1342.1,-959.56 1383.67,-885.947 1403.02,-846.148"/>
<polygon fill="#a8a8a8" stroke="#a8a8a8" points="1406.22,-847.567 1407.35,-837.032 1399.9,-844.564 1406.22,-847.567"/>
<text text-anchor="middle" x="758.356" y="-1084.8" font-family="Times,serif" font-size="14.00">reward</text>
</g>
<!-- Hiring organizations&#45;&gt;Research Software Engineers -->
<g id="edge70" class="edge"><title>Hiring organizations&#45;&gt;Research Software Engineers</title>
<path fill="none" stroke="#a8a8a8" d="M85.261,-867.797C92.5592,-751.647 139.693,-119 300.531,-119 300.531,-119 300.531,-119 1152.69,-119 1222.15,-119 1244.44,-146.795 1283.83,-204 1351.71,-302.56 1399.69,-683.303 1412.07,-790.669"/>
<polygon fill="#a8a8a8" stroke="#a8a8a8" points="1408.61,-791.202 1413.22,-800.741 1415.56,-790.409 1408.61,-791.202"/>
<text text-anchor="middle" x="758.356" y="-122.8" font-family="Times,serif" font-size="14.00">recognize</text>
</g>
<!-- Hiring organizations&#45;&gt;Research software -->
<g id="edge58" class="edge"><title>Hiring organizations&#45;&gt;Research software</title>
<path fill="none" stroke="#a8a8a8" d="M84.0874,-904.007C83.8462,-1006.77 87.575,-1518.54 184.385,-1634 219.194,-1675.51 246.355,-1671 300.531,-1671 300.531,-1671 300.531,-1671 1754.8,-1671 1838.73,-1671 1881.54,-1694.23 1939.99,-1634 2019.2,-1552.37 2035.74,-1178.63 2038.86,-1072.3"/>
<polygon fill="#a8a8a8" stroke="#a8a8a8" points="2042.37,-1072.13 2039.14,-1062.04 2035.37,-1071.94 2042.37,-1072.13"/>
<text text-anchor="middle" x="948.097" y="-1674.8" font-family="Times,serif" font-size="14.00">own</text>
</g>
<!-- Hiring organizations&#45;&gt;Research software -->
<g id="edge73" class="edge"><title>Hiring organizations&#45;&gt;Research software</title>
<path fill="none" stroke="#a8a8a8" d="M85.0761,-904.016C89.9366,-997.485 115.747,-1427.11 184.385,-1538 217.643,-1591.73 237.342,-1620 300.531,-1620 300.531,-1620 300.531,-1620 1754.8,-1620 2002,-1620 2034.59,-1188.39 2038.88,-1072.4"/>
<polygon fill="#a8a8a8" stroke="#a8a8a8" points="2042.39,-1072.3 2039.22,-1062.19 2035.39,-1072.07 2042.39,-1072.3"/>
<text text-anchor="middle" x="948.097" y="-1623.8" font-family="Times,serif" font-size="14.00">measure</text>
</g>
<!-- Hiring organizations&#45;&gt;Supporting software -->
<g id="edge8" class="edge"><title>Hiring organizations&#45;&gt;Supporting software</title>
<path fill="none" stroke="#a8a8a8" d="M84.1646,-867.857C84.3201,-759.524 89.7378,-198.159 184.385,-61 217.501,-13.0102 242.224,-0 300.531,-0 300.531,-0 300.531,-0 1754.8,-0 2024.19,-0 2040.27,-482.212 2039.97,-605.546"/>
<polygon fill="#a8a8a8" stroke="#a8a8a8" points="2036.47,-605.687 2039.91,-615.709 2043.47,-605.732 2036.47,-605.687"/>
<text text-anchor="middle" x="948.097" y="-3.8" font-family="Times,serif" font-size="14.00">own</text>
</g>
<!-- Research software&#45;&gt;Hardware &amp; system software -->
<g id="edge26" class="edge"><title>Research software&#45;&gt;Hardware &amp; system software</title>
<path fill="none" stroke="#a8a8a8" d="M2116.15,-1044C2133.96,-1044 2153.46,-1044 2172.84,-1044"/>
<polygon fill="#a8a8a8" stroke="#a8a8a8" points="2172.96,-1047.5 2182.96,-1044 2172.96,-1040.5 2172.96,-1047.5"/>
<text text-anchor="middle" x="2153.08" y="-1047.8" font-family="Times,serif" font-size="14.00">uses</text>
</g>
<!-- Research software&#45;&gt;Research software -->
<g id="edge94" class="edge"><title>Research software&#45;&gt;Research software</title>
<path fill="none" stroke="black" d="M2020.54,-1061.41C2016.81,-1071.09 2023.47,-1080 2040.53,-1080 2051.2,-1080 2057.8,-1076.52 2060.34,-1071.54"/>
<polygon fill="black" stroke="black" points="2063.84,-1071.47 2060.53,-1061.41 2056.84,-1071.34 2063.84,-1071.47"/>
<text text-anchor="middle" x="2040.53" y="-1083.8" font-family="Times,serif" font-size="14.00">depends</text>
</g>
<!-- Supporting software&#45;&gt;Hardware &amp; system software -->
<g id="edge12" class="edge"><title>Supporting software&#45;&gt;Hardware &amp; system software</title>
<path fill="none" stroke="#a8a8a8" d="M2052.68,-651.881C2093.12,-716.752 2232.25,-939.95 2280.49,-1017.33"/>
<polygon fill="#a8a8a8" stroke="#a8a8a8" points="2277.65,-1019.39 2285.91,-1026.03 2283.59,-1015.69 2277.65,-1019.39"/>
<text text-anchor="middle" x="2153.08" y="-829.8" font-family="Times,serif" font-size="14.00">uses</text>
</g>
</g>
</svg>
