<?xml version="1.0" encoding="UTF-8" standalone="no"?>
<!DOCTYPE svg PUBLIC "-//W3C//DTD SVG 1.1//EN"
 "http://www.w3.org/Graphics/SVG/1.1/DTD/svg11.dtd">
<!-- Generated by graphviz version 2.38.0 (20140413.2041)
 -->
<!-- Title: %3 Pages: 1 -->
<svg width="538pt" height="360pt"
 viewBox="0.00 0.00 538.43 360.00" xmlns="http://www.w3.org/2000/svg" xmlns:xlink="http://www.w3.org/1999/xlink">
<g id="graph0" class="graph" transform="scale(0.188364 0.188364) rotate(0) translate(4 1907.19)">
<title>%3</title>
<polygon fill="white" stroke="none" points="-4,4 -4,-1907.19 2854.44,-1907.19 2854.44,4 -4,4"/>
<!-- Code platforms -->
<g id="node1" class="node"><title>Code platforms</title>
<ellipse fill="none" stroke="black" cx="65.6442" cy="-908.649" rx="65.7887" ry="18"/>
<text text-anchor="middle" x="65.6442" y="-904.949" font-family="Times,serif" font-size="14.00">Code platforms</text>
</g>
<!-- Research Software Engineers -->
<g id="node3" class="node"><title>Research Software Engineers</title>
<ellipse fill="none" stroke="black" cx="450.678" cy="-870.649" rx="114.28" ry="18"/>
<text text-anchor="middle" x="450.678" y="-866.949" font-family="Times,serif" font-size="14.00">Research Software Engineers</text>
</g>
<!-- Code platforms&#45;&gt;Research Software Engineers -->
<g id="edge65" class="edge"><title>Code platforms&#45;&gt;Research Software Engineers</title>
<path fill="none" stroke="#a8a8a8" d="M129.008,-903.789C179.965,-899.676 253.844,-893.388 318.288,-886.649 328.875,-885.542 339.932,-884.312 350.942,-883.039"/>
<polygon fill="#a8a8a8" stroke="#a8a8a8" points="351.5,-886.498 361.026,-881.861 350.688,-879.545 351.5,-886.498"/>
<text text-anchor="middle" x="233.788" y="-905.449" font-family="Times,serif" font-size="14.00">recognize</text>
</g>
<!-- Research software -->
<g id="node9" class="node"><title>Research software</title>
<ellipse fill="none" stroke="black" cx="2482.82" cy="-397.649" rx="75.2868" ry="18"/>
<text text-anchor="middle" x="2482.82" y="-393.949" font-family="Times,serif" font-size="14.00">Research software</text>
</g>
<!-- Code platforms&#45;&gt;Research software -->
<g id="edge30" class="edge"><title>Code platforms&#45;&gt;Research software</title>
<path fill="none" stroke="#a8a8a8" d="M66.4081,-890.425C65.4778,-791.882 65.5641,-323.07 149.288,-211.649 236.363,-95.7695 304.73,-84.6488 449.678,-84.6488 449.678,-84.6488 449.678,-84.6488 2197.09,-84.6488 2282.58,-84.6488 2320,-78.085 2382.28,-136.649 2450.37,-200.675 2472.35,-316.22 2479.06,-369.429"/>
<polygon fill="#a8a8a8" stroke="#a8a8a8" points="2475.6,-369.976 2480.24,-379.501 2482.56,-369.162 2475.6,-369.976"/>
<text text-anchor="middle" x="1286.84" y="-88.4488" font-family="Times,serif" font-size="14.00">measure</text>
</g>
<!-- Code platforms&#45;&gt;Research software -->
<g id="edge69" class="edge"><title>Code platforms&#45;&gt;Research software</title>
<path fill="none" stroke="#a8a8a8" d="M67.1243,-890.338C70.3316,-774.723 90.351,-148.915 149.288,-90.6488 227.316,-13.5101 531.347,-46.6488 641.068,-46.6488 641.068,-46.6488 641.068,-46.6488 2197.09,-46.6488 2282.7,-46.6488 2324.94,-36.075 2382.28,-99.6488 2453.84,-178.989 2474.17,-311.378 2479.77,-369.187"/>
<polygon fill="#a8a8a8" stroke="#a8a8a8" points="2476.31,-369.75 2480.68,-379.4 2483.28,-369.129 2476.31,-369.75"/>
<text text-anchor="middle" x="1286.84" y="-50.4488" font-family="Times,serif" font-size="14.00">store</text>
</g>
<!-- Supporting software -->
<g id="node11" class="node"><title>Supporting software</title>
<ellipse fill="none" stroke="black" cx="2482.82" cy="-1582.65" rx="82.5854" ry="18"/>
<text text-anchor="middle" x="2482.82" y="-1578.95" font-family="Times,serif" font-size="14.00">Supporting software</text>
</g>
<!-- Code platforms&#45;&gt;Supporting software -->
<g id="edge37" class="edge"><title>Code platforms&#45;&gt;Supporting software</title>
<path fill="none" stroke="#a8a8a8" d="M66.8553,-926.883C68.4855,-1052.43 80.9085,-1785.78 149.288,-1853.65 244.347,-1948 315.746,-1877.65 449.678,-1877.65 449.678,-1877.65 449.678,-1877.65 2197.09,-1877.65 2280.08,-1877.65 2317.42,-1905.44 2382.28,-1853.65 2458.66,-1792.66 2476.43,-1667.35 2480.57,-1611.09"/>
<polygon fill="#a8a8a8" stroke="#a8a8a8" points="2484.08,-1611 2481.23,-1600.8 2477.1,-1610.55 2484.08,-1611"/>
<text text-anchor="middle" x="1286.84" y="-1881.45" font-family="Times,serif" font-size="14.00">measure</text>
</g>
<!-- Code platforms&#45;&gt;Supporting software -->
<g id="edge44" class="edge"><title>Code platforms&#45;&gt;Supporting software</title>
<path fill="none" stroke="#a8a8a8" d="M66.3052,-926.679C65.506,-1000.23 68.1312,-1283.77 149.288,-1496.65 221.475,-1686 247.037,-1839.65 449.678,-1839.65 449.678,-1839.65 449.678,-1839.65 2197.09,-1839.65 2293.05,-1839.65 2322.46,-1803.68 2382.28,-1728.65 2414,-1688.87 2446.4,-1639.36 2465.28,-1609.42"/>
<polygon fill="#a8a8a8" stroke="#a8a8a8" points="2468.35,-1611.12 2470.69,-1600.79 2462.42,-1607.4 2468.35,-1611.12"/>
<text text-anchor="middle" x="1286.84" y="-1843.45" font-family="Times,serif" font-size="14.00">store</text>
</g>
<!-- Software engineering processes -->
<g id="node2" class="node"><title>Software engineering processes</title>
<ellipse fill="none" stroke="black" cx="2196.09" cy="-1173.65" rx="122.379" ry="18"/>
<text text-anchor="middle" x="2196.09" y="-1169.95" font-family="Times,serif" font-size="14.00">Software engineering processes</text>
</g>
<!-- Research Software Engineers&#45;&gt;Code platforms -->
<g id="edge85" class="edge"><title>Research Software Engineers&#45;&gt;Code platforms</title>
<path fill="none" stroke="#a8a8a8" d="M363.352,-859.004C302.659,-853.418 219.995,-851.074 149.288,-867.649 132.659,-871.547 115.543,-879.312 101.232,-887.046"/>
<polygon fill="#a8a8a8" stroke="#a8a8a8" points="99.2697,-884.134 92.2653,-892.083 102.698,-890.237 99.2697,-884.134"/>
<text text-anchor="middle" x="233.788" y="-871.449" font-family="Times,serif" font-size="14.00">use as a development platform</text>
</g>
<!-- Research Software Engineers&#45;&gt;Software engineering processes -->
<g id="edge21" class="edge"><title>Research Software Engineers&#45;&gt;Software engineering processes</title>
<path fill="none" stroke="#a8a8a8" d="M452.515,-888.871C457.54,-990.609 486.791,-1487.81 583.068,-1599.65 638.942,-1664.55 679.873,-1661.65 765.514,-1661.65 765.514,-1661.65 765.514,-1661.65 1287.84,-1661.65 1459.23,-1661.65 1926.35,-1703.86 2055.9,-1591.65 2057.85,-1589.96 2155.3,-1294.46 2185.96,-1201.38"/>
<polygon fill="#a8a8a8" stroke="#a8a8a8" points="2189.31,-1202.39 2189.12,-1191.8 2182.66,-1200.2 2189.31,-1202.39"/>
<text text-anchor="middle" x="1286.84" y="-1665.45" font-family="Times,serif" font-size="14.00">develop</text>
</g>
<!-- Research Software Engineers&#45;&gt;Software engineering processes -->
<g id="edge77" class="edge"><title>Research Software Engineers&#45;&gt;Software engineering processes</title>
<path fill="none" stroke="#a8a8a8" d="M452.68,-888.753C458.398,-985.578 490.015,-1441.52 583.068,-1539.65 640.61,-1600.33 681.889,-1585.65 765.514,-1585.65 765.514,-1585.65 765.514,-1585.65 1055.05,-1585.65 1349.64,-1585.65 1427.93,-1617.74 1717.52,-1563.65 1759.84,-1555.74 1930.35,-1495.62 1984.9,-1466.65 2019.22,-1448.43 2029.85,-1444.47 2055.9,-1415.65 2117.19,-1347.84 2163.71,-1248.61 2183.97,-1201.05"/>
<polygon fill="#a8a8a8" stroke="#a8a8a8" points="2187.24,-1202.29 2187.89,-1191.71 2180.79,-1199.58 2187.24,-1202.29"/>
<text text-anchor="middle" x="1286.84" y="-1597.45" font-family="Times,serif" font-size="14.00">use</text>
</g>
<!-- Research Software Engineers&#45;&gt;Research Software Engineers -->
<g id="edge89" class="edge"><title>Research Software Engineers&#45;&gt;Research Software Engineers</title>
<path fill="none" stroke="black" d="M416.758,-888.059C410.426,-897.737 421.733,-906.649 450.678,-906.649 468.769,-906.649 479.97,-903.168 484.28,-898.194"/>
<polygon fill="black" stroke="black" points="487.783,-898.164 484.598,-888.059 480.787,-897.944 487.783,-898.164"/>
<text text-anchor="middle" x="450.678" y="-910.449" font-family="Times,serif" font-size="14.00">collaborate</text>
</g>
<!-- Communities -->
<g id="node4" class="node"><title>Communities</title>
<ellipse fill="none" stroke="black" cx="1157.69" cy="-820.649" rx="59.2899" ry="18"/>
<text text-anchor="middle" x="1157.69" y="-816.949" font-family="Times,serif" font-size="14.00">Communities</text>
</g>
<!-- Research Software Engineers&#45;&gt;Communities -->
<g id="edge60" class="edge"><title>Research Software Engineers&#45;&gt;Communities</title>
<path fill="none" stroke="#a8a8a8" d="M459.712,-852.429C476.642,-816.475 519.715,-736.839 583.068,-701.649 680.296,-647.643 720.89,-681.434 831.96,-675.649 942.403,-669.896 986.564,-628.362 1080.55,-686.649 1118.75,-710.342 1139.61,-760.651 1149.43,-792.436"/>
<polygon fill="#a8a8a8" stroke="#a8a8a8" points="1146.19,-793.819 1152.35,-802.44 1152.91,-791.86 1146.19,-793.819"/>
<text text-anchor="middle" x="858.46" y="-679.449" font-family="Times,serif" font-size="14.00">join</text>
</g>
<!-- Publishers -->
<g id="node7" class="node"><title>Publishers</title>
<ellipse fill="none" stroke="black" cx="766.514" cy="-908.649" rx="47.3916" ry="18"/>
<text text-anchor="middle" x="766.514" y="-904.949" font-family="Times,serif" font-size="14.00">Publishers</text>
</g>
<!-- Research Software Engineers&#45;&gt;Publishers -->
<g id="edge7" class="edge"><title>Research Software Engineers&#45;&gt;Publishers</title>
<path fill="none" stroke="#a8a8a8" d="M542.911,-859.931C590.784,-857.063 649.952,-857.909 701.068,-871.649 713.017,-874.861 725.058,-880.859 735.445,-887.105"/>
<polygon fill="#a8a8a8" stroke="#a8a8a8" points="733.784,-890.196 744.103,-892.594 737.532,-884.284 733.784,-890.196"/>
<text text-anchor="middle" x="642.068" y="-875.449" font-family="Times,serif" font-size="14.00">publish software with</text>
</g>
<!-- Funding organizations -->
<g id="node8" class="node"><title>Funding organizations</title>
<ellipse fill="none" stroke="black" cx="1627.82" cy="-1135.65" rx="89.8845" ry="18"/>
<text text-anchor="middle" x="1627.82" y="-1131.95" font-family="Times,serif" font-size="14.00">Funding organizations</text>
</g>
<!-- Research Software Engineers&#45;&gt;Funding organizations -->
<g id="edge70" class="edge"><title>Research Software Engineers&#45;&gt;Funding organizations</title>
<path fill="none" stroke="#a8a8a8" d="M453.174,-888.948C458.894,-947.515 484.316,-1132.7 583.068,-1238.65 643.436,-1303.42 676.974,-1318.65 765.514,-1318.65 765.514,-1318.65 765.514,-1318.65 1055.05,-1318.65 1230.36,-1318.65 1281.02,-1351.39 1449.13,-1301.65 1482.87,-1291.67 1492.61,-1288.57 1520.13,-1266.65 1557.81,-1236.64 1591.05,-1191.22 1610.05,-1162.51"/>
<polygon fill="#a8a8a8" stroke="#a8a8a8" points="1613.18,-1164.11 1615.7,-1153.82 1607.31,-1160.3 1613.18,-1164.11"/>
<text text-anchor="middle" x="1054.05" y="-1322.45" font-family="Times,serif" font-size="14.00">propose</text>
</g>
<!-- Research Software Engineers&#45;&gt;Research software -->
<g id="edge13" class="edge"><title>Research Software Engineers&#45;&gt;Research software</title>
<path fill="none" stroke="#a8a8a8" d="M452.411,-852.547C456.832,-752.6 483.206,-269.053 583.068,-167.649 641.123,-108.698 682.776,-130.649 765.514,-130.649 765.514,-130.649 765.514,-130.649 2197.09,-130.649 2281.02,-130.649 2317,-114.887 2382.28,-167.649 2446.43,-219.503 2470.16,-320.699 2478.15,-369.713"/>
<polygon fill="#a8a8a8" stroke="#a8a8a8" points="2474.7,-370.264 2479.67,-379.62 2481.62,-369.205 2474.7,-370.264"/>
<text text-anchor="middle" x="1402.99" y="-134.449" font-family="Times,serif" font-size="14.00">own</text>
</g>
<!-- Research Software Engineers&#45;&gt;Research software -->
<g id="edge57" class="edge"><title>Research Software Engineers&#45;&gt;Research software</title>
<path fill="none" stroke="#a8a8a8" d="M452.331,-888.903C456.449,-994.239 482.002,-1523.88 583.068,-1643.65 638.485,-1709.32 679.583,-1707.65 765.514,-1707.65 765.514,-1707.65 765.514,-1707.65 1494.63,-1707.65 1865.65,-1707.65 2072.08,-1849.22 2318.28,-1571.65 2328.19,-1560.48 2454.6,-604.212 2478.08,-426.053"/>
<polygon fill="#a8a8a8" stroke="#a8a8a8" points="2481.58,-426.273 2479.42,-415.901 2474.64,-425.358 2481.58,-426.273"/>
<text text-anchor="middle" x="1402.99" y="-1711.45" font-family="Times,serif" font-size="14.00">test</text>
</g>
<!-- Research Software Engineers&#45;&gt;Research software -->
<g id="edge66" class="edge"><title>Research Software Engineers&#45;&gt;Research software</title>
<path fill="none" stroke="#a8a8a8" d="M452.584,-852.437C458.566,-753.358 500.88,-283.649 765.514,-283.649 765.514,-283.649 765.514,-283.649 1287.84,-283.649 1501.01,-283.649 1553.84,-262.649 1767.02,-262.649 1767.02,-262.649 1767.02,-262.649 2197.09,-262.649 2284.03,-262.649 2309.88,-277.515 2382.28,-325.649 2405.8,-341.284 2431.62,-360.006 2451.06,-374.44"/>
<polygon fill="#a8a8a8" stroke="#a8a8a8" points="2449.14,-377.373 2459.25,-380.542 2453.32,-371.76 2449.14,-377.373"/>
<text text-anchor="middle" x="1402.99" y="-287.449" font-family="Times,serif" font-size="14.00">design</text>
</g>
<!-- Research Software Engineers&#45;&gt;Research software -->
<g id="edge75" class="edge"><title>Research Software Engineers&#45;&gt;Research software</title>
<path fill="none" stroke="#a8a8a8" d="M453.388,-852.456C462.08,-763.671 504.065,-376.672 583.068,-290.649 640.621,-227.981 680.428,-232.649 765.514,-232.649 765.514,-232.649 765.514,-232.649 1287.84,-232.649 1500.84,-232.649 1554.02,-224.649 1767.02,-224.649 1767.02,-224.649 1767.02,-224.649 2197.09,-224.649 2284.77,-224.649 2315.63,-235.684 2382.28,-292.649 2411.36,-317.503 2441.07,-349.947 2460.37,-372.153"/>
<polygon fill="#a8a8a8" stroke="#a8a8a8" points="2457.81,-374.545 2466.99,-379.838 2463.11,-369.977 2457.81,-374.545"/>
<text text-anchor="middle" x="1402.99" y="-236.449" font-family="Times,serif" font-size="14.00">develop</text>
</g>
<!-- Research Software Engineers&#45;&gt;Research software -->
<g id="edge80" class="edge"><title>Research Software Engineers&#45;&gt;Research software</title>
<path fill="none" stroke="#a8a8a8" d="M452.877,-852.387C459.452,-757.72 494.15,-323.605 583.068,-229.649 640.701,-168.75 681.667,-181.649 765.514,-181.649 765.514,-181.649 765.514,-181.649 2197.09,-181.649 2285.72,-181.649 2319.65,-192.931 2382.28,-255.649 2417.75,-291.173 2449.25,-340.666 2466.9,-370.858"/>
<polygon fill="#a8a8a8" stroke="#a8a8a8" points="2463.89,-372.655 2471.92,-379.572 2469.96,-369.16 2463.89,-372.655"/>
<text text-anchor="middle" x="1402.99" y="-185.449" font-family="Times,serif" font-size="14.00">reuse</text>
</g>
<!-- Research Software Engineers&#45;&gt;Supporting software -->
<g id="edge83" class="edge"><title>Research Software Engineers&#45;&gt;Supporting software</title>
<path fill="none" stroke="#a8a8a8" d="M452.197,-888.838C455.638,-997.421 478.369,-1559.67 583.068,-1688.65 637.804,-1756.08 678.663,-1758.65 765.514,-1758.65 765.514,-1758.65 765.514,-1758.65 1287.84,-1758.65 1501.1,-1758.65 1553.76,-1783.65 1767.02,-1783.65 1767.02,-1783.65 1767.02,-1783.65 2197.09,-1783.65 2317.13,-1783.65 2422.12,-1662.94 2463.29,-1608.61"/>
<polygon fill="#a8a8a8" stroke="#a8a8a8" points="2466.17,-1610.6 2469.34,-1600.49 2460.56,-1606.41 2466.17,-1610.6"/>
<text text-anchor="middle" x="1402.99" y="-1767.45" font-family="Times,serif" font-size="14.00">use</text>
</g>
<!-- Archival repositories -->
<g id="node12" class="node"><title>Archival repositories</title>
<ellipse fill="none" stroke="black" cx="2196.09" cy="-702.649" rx="85.2851" ry="18"/>
<text text-anchor="middle" x="2196.09" y="-698.949" font-family="Times,serif" font-size="14.00">Archival repositories</text>
</g>
<!-- Research Software Engineers&#45;&gt;Archival repositories -->
<g id="edge14" class="edge"><title>Research Software Engineers&#45;&gt;Archival repositories</title>
<path fill="none" stroke="#a8a8a8" d="M452.051,-852.549C454.354,-792.176 470.555,-596.352 583.068,-504.649 646.558,-452.902 683.608,-478.649 765.514,-478.649 765.514,-478.649 765.514,-478.649 1494.63,-478.649 1594.26,-478.649 1621.03,-477.813 1717.52,-502.649 1886.7,-546.197 2074.25,-638.894 2154.77,-681.015"/>
<polygon fill="#a8a8a8" stroke="#a8a8a8" points="2153.58,-684.339 2164.06,-685.894 2156.83,-678.143 2153.58,-684.339"/>
<text text-anchor="middle" x="1286.84" y="-482.449" font-family="Times,serif" font-size="14.00">deposit software in</text>
</g>
<!-- Researchers -->
<g id="node13" class="node"><title>Researchers</title>
<ellipse fill="none" stroke="black" cx="956.255" cy="-945.649" rx="53.0913" ry="18"/>
<text text-anchor="middle" x="956.255" y="-941.949" font-family="Times,serif" font-size="14.00">Researchers</text>
</g>
<!-- Research Software Engineers&#45;&gt;Researchers -->
<g id="edge56" class="edge"><title>Research Software Engineers&#45;&gt;Researchers</title>
<path fill="none" stroke="#a8a8a8" d="M532.257,-857.955C606.635,-848.992 719.525,-842.414 813.96,-866.649 846.976,-875.122 855.095,-879.217 884.96,-895.649 899.245,-903.509 914.094,-913.727 926.444,-922.876"/>
<polygon fill="#a8a8a8" stroke="#a8a8a8" points="924.466,-925.768 934.556,-928.997 928.682,-920.18 924.466,-925.768"/>
<text text-anchor="middle" x="766.514" y="-870.449" font-family="Times,serif" font-size="14.00">support</text>
</g>
<!-- Research Software Engineers&#45;&gt;Researchers -->
<g id="edge91" class="edge"><title>Research Software Engineers&#45;&gt;Researchers</title>
<path fill="none" stroke="#ff3030" d="M473.218,-888.6C497.938,-907.945 540.565,-937.579 583.068,-949.649 691.713,-980.503 825.492,-967.362 899.444,-955.918"/>
<polygon fill="#ff3030" stroke="#ff3030" points="900.148,-959.35 909.473,-954.32 899.046,-952.438 900.148,-959.35"/>
<text text-anchor="middle" x="766.514" y="-972.449" font-family="Times,serif" font-size="14.00">are</text>
</g>
<!-- Communities&#45;&gt;Software engineering processes -->
<g id="edge28" class="edge"><title>Communities&#45;&gt;Software engineering processes</title>
<path fill="none" stroke="#a8a8a8" d="M1189.66,-805.309C1198.77,-800.213 1208.52,-794.161 1216.84,-787.649 1226,-780.477 1224.15,-773.245 1234.84,-768.649 1277.3,-750.385 1292.62,-768.327 1338.84,-768.649 1498.24,-769.759 1948.28,-670.056 2055.9,-787.649 2082.19,-816.375 2049.82,-1107.05 2073.9,-1137.65 2080.21,-1145.67 2088.23,-1151.96 2097.12,-1156.89"/>
<polygon fill="#a8a8a8" stroke="#a8a8a8" points="2095.76,-1160.12 2106.28,-1161.38 2098.84,-1153.84 2095.76,-1160.12"/>
<text text-anchor="middle" x="1627.82" y="-754.449" font-family="Times,serif" font-size="14.00">standardize</text>
</g>
<!-- Communities&#45;&gt;Research Software Engineers -->
<g id="edge25" class="edge"><title>Communities&#45;&gt;Research Software Engineers</title>
<path fill="none" stroke="#a8a8a8" d="M1151.83,-802.45C1143.05,-773.699 1121.54,-718.673 1080.55,-695.649 1060.01,-684.112 1051.07,-694.304 1027.55,-695.649 829.031,-707.001 763.364,-662.79 583.068,-746.649 535.441,-768.801 493.899,-815.036 470.863,-844.364"/>
<polygon fill="#a8a8a8" stroke="#a8a8a8" points="467.915,-842.455 464.594,-852.516 473.464,-846.723 467.915,-842.455"/>
<text text-anchor="middle" x="858.46" y="-700.449" font-family="Times,serif" font-size="14.00">recognize</text>
</g>
<!-- Communities&#45;&gt;Research Software Engineers -->
<g id="edge72" class="edge"><title>Communities&#45;&gt;Research Software Engineers</title>
<path fill="none" stroke="#a8a8a8" d="M1109.3,-810.296C1009.94,-790.471 773.283,-753.14 583.068,-800.649 546.954,-809.669 509.89,-830.694 484.375,-847.363"/>
<polygon fill="#a8a8a8" stroke="#a8a8a8" points="482.227,-844.588 475.852,-853.05 486.112,-850.411 482.227,-844.588"/>
<text text-anchor="middle" x="858.46" y="-783.449" font-family="Times,serif" font-size="14.00">reward</text>
</g>
<!-- Educators -->
<g id="node10" class="node"><title>Educators</title>
<ellipse fill="none" stroke="black" cx="1402.99" cy="-893.649" rx="46.2923" ry="18"/>
<text text-anchor="middle" x="1402.99" y="-889.949" font-family="Times,serif" font-size="14.00">Educators</text>
</g>
<!-- Communities&#45;&gt;Educators -->
<g id="edge48" class="edge"><title>Communities&#45;&gt;Educators</title>
<path fill="none" stroke="#a8a8a8" d="M1185.29,-804.595C1222.16,-784.619 1289.79,-756.379 1338.84,-784.649 1368.95,-802.003 1386.01,-839.811 1394.62,-865.993"/>
<polygon fill="#a8a8a8" stroke="#a8a8a8" points="1391.33,-867.2 1397.61,-875.73 1398.02,-865.143 1391.33,-867.2"/>
<text text-anchor="middle" x="1286.84" y="-788.449" font-family="Times,serif" font-size="14.00">recognize</text>
</g>
<!-- Communities&#45;&gt;Educators -->
<g id="edge64" class="edge"><title>Communities&#45;&gt;Educators</title>
<path fill="none" stroke="#a8a8a8" d="M1176.78,-837.924C1191.27,-850.658 1212.76,-867.177 1234.84,-875.649 1270.52,-889.342 1313.44,-893.736 1346.85,-894.762"/>
<polygon fill="#a8a8a8" stroke="#a8a8a8" points="1346.82,-898.262 1356.89,-894.978 1346.97,-891.263 1346.82,-898.262"/>
<text text-anchor="middle" x="1286.84" y="-897.449" font-family="Times,serif" font-size="14.00">reward</text>
</g>
<!-- Communities&#45;&gt;Researchers -->
<g id="edge23" class="edge"><title>Communities&#45;&gt;Researchers</title>
<path fill="none" stroke="#a8a8a8" d="M1125.1,-835.914C1111.51,-842.288 1095.37,-849.601 1080.55,-855.649 1057.38,-865.105 1048.65,-861.202 1027.55,-874.649 1008.3,-886.917 990.257,-905.34 977.275,-920.344"/>
<polygon fill="#a8a8a8" stroke="#a8a8a8" points="974.368,-918.363 970.607,-928.268 979.724,-922.87 974.368,-918.363"/>
<text text-anchor="middle" x="1054.05" y="-878.449" font-family="Times,serif" font-size="14.00">recognize</text>
</g>
<!-- Communities&#45;&gt;Researchers -->
<g id="edge52" class="edge"><title>Communities&#45;&gt;Researchers</title>
<path fill="none" stroke="#a8a8a8" d="M1099.45,-817.415C1075.65,-818.579 1048.69,-823.375 1027.55,-836.649 1011.7,-846.599 986.8,-889.577 971.283,-918.5"/>
<polygon fill="#a8a8a8" stroke="#a8a8a8" points="967.996,-917.228 966.406,-927.702 974.181,-920.505 967.996,-917.228"/>
<text text-anchor="middle" x="1054.05" y="-840.449" font-family="Times,serif" font-size="14.00">reward</text>
</g>
<!-- Hiring organizations -->
<g id="node5" class="node"><title>Hiring organizations</title>
<ellipse fill="none" stroke="black" cx="1901.71" cy="-1135.65" rx="83.3857" ry="18"/>
<text text-anchor="middle" x="1901.71" y="-1131.95" font-family="Times,serif" font-size="14.00">Hiring organizations</text>
</g>
<!-- Hiring organizations&#45;&gt;Code platforms -->
<g id="edge73" class="edge"><title>Hiring organizations&#45;&gt;Code platforms</title>
<path fill="none" stroke="#a8a8a8" d="M1898.83,-1153.64C1892.25,-1211.56 1866.93,-1397.39 1800.52,-1534.65 1688.62,-1765.91 1544.74,-1801.65 1287.84,-1801.65 449.678,-1801.65 449.678,-1801.65 449.678,-1801.65 256.725,-1801.65 102.759,-1088.58 72.1778,-936.83"/>
<polygon fill="#a8a8a8" stroke="#a8a8a8" points="75.5834,-936.011 70.1903,-926.891 68.7193,-937.384 75.5834,-936.011"/>
<text text-anchor="middle" x="1054.05" y="-1805.45" font-family="Times,serif" font-size="14.00">own</text>
</g>
<!-- Hiring organizations&#45;&gt;Software engineering processes -->
<g id="edge2" class="edge"><title>Hiring organizations&#45;&gt;Software engineering processes</title>
<path fill="none" stroke="#a8a8a8" d="M1968.13,-1146.52C1979.7,-1148.33 1991.64,-1150.11 2002.9,-1151.65 2029.87,-1155.34 2059.02,-1158.9 2086.28,-1162.04"/>
<polygon fill="#a8a8a8" stroke="#a8a8a8" points="2085.89,-1165.52 2096.22,-1163.18 2086.69,-1158.57 2085.89,-1165.52"/>
<text text-anchor="middle" x="2029.4" y="-1161.45" font-family="Times,serif" font-size="14.00">require</text>
</g>
<!-- Hiring organizations&#45;&gt;Software engineering processes -->
<g id="edge50" class="edge"><title>Hiring organizations&#45;&gt;Software engineering processes</title>
<path fill="none" stroke="#a8a8a8" d="M1984.18,-1133.01C1990.51,-1132.86 1996.81,-1132.74 2002.9,-1132.65 2026.45,-1132.3 2032.59,-1129.29 2055.9,-1132.65 2084.41,-1136.76 2115.21,-1145.38 2140.58,-1153.65"/>
<polygon fill="#a8a8a8" stroke="#a8a8a8" points="2139.78,-1157.08 2150.37,-1156.92 2141.99,-1150.44 2139.78,-1157.08"/>
<text text-anchor="middle" x="2029.4" y="-1136.45" font-family="Times,serif" font-size="14.00">formalize</text>
</g>
<!-- Hiring organizations&#45;&gt;Research Software Engineers -->
<g id="edge8" class="edge"><title>Hiring organizations&#45;&gt;Research Software Engineers</title>
<path fill="none" stroke="#a8a8a8" d="M1899.8,-1117.4C1896.21,-1062.15 1879.06,-893.819 1800.52,-785.649 1719.39,-673.922 1352.05,-600.603 1216.84,-572.649 1104.43,-549.409 678.619,-466.239 583.068,-532.649 478.268,-605.487 457.055,-774.908 452.765,-842.281"/>
<polygon fill="#a8a8a8" stroke="#a8a8a8" points="449.254,-842.371 452.194,-852.55 456.243,-842.759 449.254,-842.371"/>
<text text-anchor="middle" x="1157.69" y="-576.449" font-family="Times,serif" font-size="14.00">hire</text>
</g>
<!-- Hiring organizations&#45;&gt;Research Software Engineers -->
<g id="edge36" class="edge"><title>Hiring organizations&#45;&gt;Research Software Engineers</title>
<path fill="none" stroke="#a8a8a8" d="M1898.59,-1153.74C1890.25,-1221.66 1857.27,-1459.94 1800.52,-1505.65 1671.33,-1609.68 1220.91,-1542.65 1055.05,-1542.65 765.514,-1542.65 765.514,-1542.65 765.514,-1542.65 682.776,-1542.65 641.688,-1564.04 583.068,-1505.65 495.166,-1418.09 461.23,-1010.59 453.494,-898.978"/>
<polygon fill="#a8a8a8" stroke="#a8a8a8" points="456.975,-898.576 452.807,-888.835 449.991,-899.049 456.975,-898.576"/>
<text text-anchor="middle" x="1157.69" y="-1554.45" font-family="Times,serif" font-size="14.00">reward</text>
</g>
<!-- Hiring organizations&#45;&gt;Research Software Engineers -->
<g id="edge49" class="edge"><title>Hiring organizations&#45;&gt;Research Software Engineers</title>
<path fill="none" stroke="#a8a8a8" d="M1899.73,-1153.89C1896.06,-1204.55 1878.89,-1348.51 1800.52,-1428.65 1743.68,-1486.76 1710.11,-1491.65 1628.82,-1491.65 765.514,-1491.65 765.514,-1491.65 765.514,-1491.65 677.843,-1491.65 640.113,-1483.22 583.068,-1416.65 514.132,-1336.2 467.548,-998.834 455.047,-898.752"/>
<polygon fill="#a8a8a8" stroke="#a8a8a8" points="458.515,-898.277 453.817,-888.78 451.568,-899.134 458.515,-898.277"/>
<text text-anchor="middle" x="1157.69" y="-1495.45" font-family="Times,serif" font-size="14.00">promote</text>
</g>
<!-- Hiring organizations&#45;&gt;Research Software Engineers -->
<g id="edge68" class="edge"><title>Hiring organizations&#45;&gt;Research Software Engineers</title>
<path fill="none" stroke="#a8a8a8" d="M1890.04,-1153.49C1873.81,-1179.17 1840.53,-1226.47 1800.52,-1253.65 1521.03,-1443.5 1392.92,-1402.65 1055.05,-1402.65 765.514,-1402.65 765.514,-1402.65 765.514,-1402.65 679.132,-1402.65 641.767,-1399.02 583.068,-1335.65 464.107,-1207.21 451.784,-979.175 451.293,-899.269"/>
<polygon fill="#a8a8a8" stroke="#a8a8a8" points="454.793,-899.002 451.292,-889.002 447.793,-899.003 454.793,-899.002"/>
<text text-anchor="middle" x="1157.69" y="-1408.45" font-family="Times,serif" font-size="14.00">recognize</text>
</g>
<!-- Hiring organizations&#45;&gt;Research software -->
<g id="edge1" class="edge"><title>Hiring organizations&#45;&gt;Research software</title>
<path fill="none" stroke="#a8a8a8" d="M1978.37,-1128.64C2111.67,-1116.12 2375.08,-1090.59 2382.28,-1083.65 2478.36,-990.977 2482.67,-543.764 2482.11,-426.077"/>
<polygon fill="#a8a8a8" stroke="#a8a8a8" points="2485.61,-425.717 2482.04,-415.739 2478.61,-425.762 2485.61,-425.717"/>
<text text-anchor="middle" x="2196.09" y="-1122.45" font-family="Times,serif" font-size="14.00">measure</text>
</g>
<!-- Hiring organizations&#45;&gt;Research software -->
<g id="edge12" class="edge"><title>Hiring organizations&#45;&gt;Research software</title>
<path fill="none" stroke="#a8a8a8" d="M1931.65,-1118.84C2014.73,-1069.13 2256.06,-914.053 2382.28,-720.649 2445.38,-623.963 2470.28,-485.101 2478.43,-426.005"/>
<polygon fill="#a8a8a8" stroke="#a8a8a8" points="2481.92,-426.3 2479.77,-415.927 2474.99,-425.383 2481.92,-426.3"/>
<text text-anchor="middle" x="2196.09" y="-1024.45" font-family="Times,serif" font-size="14.00">own</text>
</g>
<!-- Hiring organizations&#45;&gt;Educators -->
<g id="edge17" class="edge"><title>Hiring organizations&#45;&gt;Educators</title>
<path fill="none" stroke="#a8a8a8" d="M1894.01,-1117.61C1881.08,-1085.3 1849.54,-1017.55 1800.52,-981.649 1678.07,-891.965 1615.59,-939.223 1467.13,-907.649 1462.69,-906.703 1458.07,-905.707 1453.44,-904.7"/>
<polygon fill="#a8a8a8" stroke="#a8a8a8" points="1453.89,-901.214 1443.37,-902.491 1452.39,-908.052 1453.89,-901.214"/>
<text text-anchor="middle" x="1627.82" y="-939.449" font-family="Times,serif" font-size="14.00">reward</text>
</g>
<!-- Hiring organizations&#45;&gt;Educators -->
<g id="edge24" class="edge"><title>Hiring organizations&#45;&gt;Educators</title>
<path fill="none" stroke="#a8a8a8" d="M1895.74,-1117.64C1884.55,-1080.08 1854.11,-992.517 1800.52,-939.649 1707.56,-847.963 1536.67,-866.31 1452.9,-882.395"/>
<polygon fill="#a8a8a8" stroke="#a8a8a8" points="1452.01,-879.004 1442.88,-884.388 1453.37,-885.869 1452.01,-879.004"/>
<text text-anchor="middle" x="1627.82" y="-892.449" font-family="Times,serif" font-size="14.00">hire</text>
</g>
<!-- Hiring organizations&#45;&gt;Educators -->
<g id="edge71" class="edge"><title>Hiring organizations&#45;&gt;Educators</title>
<path fill="none" stroke="#a8a8a8" d="M1897.65,-1117.5C1889.43,-1073.72 1863.11,-960.935 1800.52,-892.649 1772.44,-862.023 1757.88,-859.484 1717.52,-849.649 1609.09,-823.229 1573.09,-833.625 1467.13,-868.649 1459.65,-871.12 1451.78,-874.004 1444.22,-876.917"/>
<polygon fill="#a8a8a8" stroke="#a8a8a8" points="1442.9,-873.675 1434.88,-880.593 1445.47,-880.19 1442.9,-873.675"/>
<text text-anchor="middle" x="1627.82" y="-853.449" font-family="Times,serif" font-size="14.00">promote</text>
</g>
<!-- Hiring organizations&#45;&gt;Educators -->
<g id="edge84" class="edge"><title>Hiring organizations&#45;&gt;Educators</title>
<path fill="none" stroke="#a8a8a8" d="M1876.7,-1118.38C1857.07,-1104.98 1828.13,-1086.86 1800.52,-1075.65 1689.5,-1030.56 1644.48,-1068.87 1538.13,-1013.65 1513.74,-1000.98 1459.54,-949.071 1428,-917.823"/>
<polygon fill="#a8a8a8" stroke="#a8a8a8" points="1430.44,-915.31 1420.88,-910.737 1425.5,-920.272 1430.44,-915.31"/>
<text text-anchor="middle" x="1627.82" y="-1056.45" font-family="Times,serif" font-size="14.00">recognize</text>
</g>
<!-- Hiring organizations&#45;&gt;Supporting software -->
<g id="edge87" class="edge"><title>Hiring organizations&#45;&gt;Supporting software</title>
<path fill="none" stroke="#a8a8a8" d="M1904.93,-1153.8C1913.68,-1222 1947.89,-1461.47 2002.9,-1510.65 2058.54,-1560.38 2267.28,-1575.76 2390.06,-1580.52"/>
<polygon fill="#a8a8a8" stroke="#a8a8a8" points="2390.08,-1584.02 2400.2,-1580.9 2390.34,-1577.03 2390.08,-1584.02"/>
<text text-anchor="middle" x="2196.09" y="-1580.45" font-family="Times,serif" font-size="14.00">own</text>
</g>
<!-- Hiring organizations&#45;&gt;Archival repositories -->
<g id="edge62" class="edge"><title>Hiring organizations&#45;&gt;Archival repositories</title>
<path fill="none" stroke="#a8a8a8" d="M1906.99,-1117.56C1917.81,-1074.28 1949.31,-962.502 2002.9,-883.649 2047.73,-817.684 2120.41,-757.767 2162.37,-726.155"/>
<polygon fill="#a8a8a8" stroke="#a8a8a8" points="2164.66,-728.814 2170.59,-720.031 2160.48,-723.201 2164.66,-728.814"/>
<text text-anchor="middle" x="2029.4" y="-887.449" font-family="Times,serif" font-size="14.00">own</text>
</g>
<!-- Hiring organizations&#45;&gt;Researchers -->
<g id="edge15" class="edge"><title>Hiring organizations&#45;&gt;Researchers</title>
<path fill="none" stroke="#a8a8a8" d="M1832.39,-1125.58C1743.15,-1112.08 1591.97,-1087.94 1538.13,-1071.65 1496.8,-1059.14 1490.57,-1044.8 1449.13,-1032.65 1267.08,-979.252 1212.81,-1006.57 1027.55,-965.649 1020.72,-964.141 1013.58,-962.356 1006.57,-960.483"/>
<polygon fill="#a8a8a8" stroke="#a8a8a8" points="1007.02,-956.977 996.453,-957.697 1005.17,-963.726 1007.02,-956.977"/>
<text text-anchor="middle" x="1402.99" y="-1036.45" font-family="Times,serif" font-size="14.00">reward</text>
</g>
<!-- Hiring organizations&#45;&gt;Researchers -->
<g id="edge41" class="edge"><title>Hiring organizations&#45;&gt;Researchers</title>
<path fill="none" stroke="#a8a8a8" d="M1889.09,-1153.64C1872.66,-1177.22 1840.17,-1217.48 1800.52,-1233.65 1720.97,-1266.08 1094.66,-1272.27 1027.55,-1218.65 989.145,-1187.97 967.729,-1037.34 960.287,-973.901"/>
<polygon fill="#a8a8a8" stroke="#a8a8a8" points="963.746,-973.345 959.135,-963.806 956.791,-974.138 963.746,-973.345"/>
<text text-anchor="middle" x="1402.99" y="-1261.45" font-family="Times,serif" font-size="14.00">hire</text>
</g>
<!-- Hiring organizations&#45;&gt;Researchers -->
<g id="edge67" class="edge"><title>Hiring organizations&#45;&gt;Researchers</title>
<path fill="none" stroke="#a8a8a8" d="M1879.24,-1153.24C1859.97,-1167.82 1830.22,-1187.44 1800.52,-1195.65 1717.69,-1218.55 1095.5,-1222.25 1027.55,-1169.65 966.725,-1122.56 957.378,-1023.16 956.665,-974.17"/>
<polygon fill="#a8a8a8" stroke="#a8a8a8" points="960.165,-973.953 956.634,-963.964 953.165,-973.975 960.165,-973.953"/>
<text text-anchor="middle" x="1402.99" y="-1214.45" font-family="Times,serif" font-size="14.00">recognize</text>
</g>
<!-- Hiring organizations&#45;&gt;Researchers -->
<g id="edge78" class="edge"><title>Hiring organizations&#45;&gt;Researchers</title>
<path fill="none" stroke="#a8a8a8" d="M1840.72,-1147.95C1827.52,-1150.4 1813.57,-1152.79 1800.52,-1154.65 1763.83,-1159.88 1754.53,-1160.87 1717.52,-1162.65 1441.91,-1175.9 1368.16,-1173.34 1098.55,-1114.65 1066.63,-1107.7 1052.6,-1116.62 1027.55,-1095.65 989.843,-1064.08 971.146,-1007.76 962.887,-973.84"/>
<polygon fill="#a8a8a8" stroke="#a8a8a8" points="966.203,-972.641 960.561,-963.673 959.38,-974.202 966.203,-972.641"/>
<text text-anchor="middle" x="1402.99" y="-1171.45" font-family="Times,serif" font-size="14.00">promote</text>
</g>
<!-- Hardware &amp; system software -->
<g id="node14" class="node"><title>Hardware &amp; system software</title>
<ellipse fill="none" stroke="black" cx="2735.4" cy="-1496.65" rx="115.08" ry="18"/>
<text text-anchor="middle" x="2735.4" y="-1492.95" font-family="Times,serif" font-size="14.00">Hardware &amp; system software</text>
</g>
<!-- Hiring organizations&#45;&gt;Hardware &amp; system software -->
<g id="edge51" class="edge"><title>Hiring organizations&#45;&gt;Hardware &amp; system software</title>
<path fill="none" stroke="#a8a8a8" d="M1939.79,-1151.74C2073.97,-1209.98 2534.25,-1409.77 2685.68,-1475.5"/>
<polygon fill="#a8a8a8" stroke="#a8a8a8" points="2684.63,-1478.86 2695.2,-1479.63 2687.42,-1472.44 2684.63,-1478.86"/>
<text text-anchor="middle" x="2359.28" y="-1344.45" font-family="Times,serif" font-size="14.00">own</text>
</g>
<!-- Indices -->
<g id="node6" class="node"><title>Indices</title>
<ellipse fill="none" stroke="black" cx="65.6442" cy="-34.6488" rx="36.2938" ry="18"/>
<text text-anchor="middle" x="65.6442" y="-30.9488" font-family="Times,serif" font-size="14.00">Indices</text>
</g>
<!-- Indices&#45;&gt;Research Software Engineers -->
<g id="edge22" class="edge"><title>Indices&#45;&gt;Research Software Engineers</title>
<path fill="none" stroke="#a8a8a8" d="M74.6444,-52.1098C123.122,-157.916 377.458,-713.024 437.137,-843.276"/>
<polygon fill="#a8a8a8" stroke="#a8a8a8" points="434.05,-844.942 441.398,-852.576 440.414,-842.026 434.05,-844.942"/>
<text text-anchor="middle" x="233.788" y="-580.449" font-family="Times,serif" font-size="14.00">recognize</text>
</g>
<!-- Indices&#45;&gt;Research software -->
<g id="edge19" class="edge"><title>Indices&#45;&gt;Research software</title>
<path fill="none" stroke="#a8a8a8" d="M101.186,-30.7282C168.262,-23.4648 320.873,-8.64879 449.678,-8.64879 449.678,-8.64879 449.678,-8.64879 2197.09,-8.64879 2280.08,-8.64879 2319.7,21.8713 2382.28,-32.6488 2433.95,-77.6699 2467.53,-291.837 2478.17,-369.466"/>
<polygon fill="#a8a8a8" stroke="#a8a8a8" points="2474.72,-370.039 2479.52,-379.482 2481.66,-369.104 2474.72,-370.039"/>
<text text-anchor="middle" x="1286.84" y="-12.4488" font-family="Times,serif" font-size="14.00">index</text>
</g>
<!-- Indices&#45;&gt;Researchers -->
<g id="edge32" class="edge"><title>Indices&#45;&gt;Researchers</title>
<path fill="none" stroke="#a8a8a8" d="M89.0966,-48.6185C134.225,-77.0833 238.433,-144.78 318.288,-211.649 335.285,-225.882 874.519,-754.092 884.96,-773.649 904.787,-810.788 887.033,-827.677 902.96,-866.649 910.814,-885.868 923.637,-905.34 934.619,-920.144"/>
<polygon fill="#a8a8a8" stroke="#a8a8a8" points="931.976,-922.451 940.821,-928.284 937.544,-918.208 931.976,-922.451"/>
<text text-anchor="middle" x="642.068" y="-587.449" font-family="Times,serif" font-size="14.00">recognize</text>
</g>
<!-- Publishers&#45;&gt;Research Software Engineers -->
<g id="edge46" class="edge"><title>Publishers&#45;&gt;Research Software Engineers</title>
<path fill="none" stroke="#a8a8a8" d="M728.316,-919.515C719.463,-921.646 709.994,-923.557 701.068,-924.649 649.011,-931.014 634.519,-934.809 583.068,-924.649 551.638,-918.442 518.273,-904.63 493.031,-892.529"/>
<polygon fill="#a8a8a8" stroke="#a8a8a8" points="494.295,-889.251 483.775,-887.994 491.215,-895.537 494.295,-889.251"/>
<text text-anchor="middle" x="642.068" y="-934.449" font-family="Times,serif" font-size="14.00">reward</text>
</g>
<!-- Publishers&#45;&gt;Research Software Engineers -->
<g id="edge86" class="edge"><title>Publishers&#45;&gt;Research Software Engineers</title>
<path fill="none" stroke="#a8a8a8" d="M720.899,-903.284C683.96,-898.838 630.102,-892.348 583.068,-886.649 572.955,-885.423 562.404,-884.142 551.871,-882.862"/>
<polygon fill="#a8a8a8" stroke="#a8a8a8" points="552.141,-879.369 541.792,-881.637 551.296,-886.318 552.141,-879.369"/>
<text text-anchor="middle" x="642.068" y="-904.449" font-family="Times,serif" font-size="14.00">recognize</text>
</g>
<!-- Publishers&#45;&gt;Communities -->
<g id="edge3" class="edge"><title>Publishers&#45;&gt;Communities</title>
<path fill="none" stroke="#a8a8a8" d="M796.239,-894.505C843.229,-872.239 940.075,-829.974 1027.55,-814.649 1048.92,-810.904 1072.57,-810.844 1093.73,-812.219"/>
<polygon fill="#a8a8a8" stroke="#a8a8a8" points="1093.66,-815.723 1103.9,-812.999 1094.19,-808.744 1093.66,-815.723"/>
<text text-anchor="middle" x="956.255" y="-851.449" font-family="Times,serif" font-size="14.00">address</text>
</g>
<!-- Publishers&#45;&gt;Research software -->
<g id="edge11" class="edge"><title>Publishers&#45;&gt;Research software</title>
<path fill="none" stroke="#a8a8a8" d="M800.177,-895.703C805.139,-892.857 809.938,-889.515 813.96,-885.649 826.004,-874.071 822.013,-866.072 831.96,-852.649 851.98,-825.63 862.891,-824.023 884.96,-798.649 944.567,-730.112 977.481,-721.63 1009.55,-636.649 1030.94,-579.973 988.174,-410.682 1027.55,-364.649 1044.58,-344.746 1267.82,-300.649 1767.02,-300.649 1767.02,-300.649 1767.02,-300.649 2197.09,-300.649 2289.95,-300.649 2391.19,-347.451 2444.36,-376.036"/>
<polygon fill="#a8a8a8" stroke="#a8a8a8" points="2442.95,-379.254 2453.41,-380.974 2446.31,-373.11 2442.95,-379.254"/>
<text text-anchor="middle" x="1493.63" y="-310.449" font-family="Times,serif" font-size="14.00">recognize</text>
</g>
<!-- Publishers&#45;&gt;Researchers -->
<g id="edge5" class="edge"><title>Publishers&#45;&gt;Researchers</title>
<path fill="none" stroke="#a8a8a8" d="M805.914,-918.681C814.461,-920.774 823.496,-922.88 831.96,-924.649 853.239,-929.096 876.732,-933.277 897.452,-936.719"/>
<polygon fill="#a8a8a8" stroke="#a8a8a8" points="896.945,-940.182 907.38,-938.348 898.078,-933.275 896.945,-940.182"/>
<text text-anchor="middle" x="858.46" y="-937.449" font-family="Times,serif" font-size="14.00">reward</text>
</g>
<!-- Publishers&#45;&gt;Researchers -->
<g id="edge53" class="edge"><title>Publishers&#45;&gt;Researchers</title>
<path fill="none" stroke="#a8a8a8" d="M810.59,-901.812C833.103,-899.667 860.904,-899.284 884.96,-905.649 898.914,-909.341 912.996,-916.518 924.853,-923.785"/>
<polygon fill="#a8a8a8" stroke="#a8a8a8" points="923.142,-926.846 933.448,-929.304 926.925,-920.956 923.142,-926.846"/>
<text text-anchor="middle" x="858.46" y="-909.449" font-family="Times,serif" font-size="14.00">recognize</text>
</g>
<!-- Funding organizations&#45;&gt;Research Software Engineers -->
<g id="edge33" class="edge"><title>Funding organizations&#45;&gt;Research Software Engineers</title>
<path fill="none" stroke="#a8a8a8" d="M1611.99,-1153.45C1584.05,-1185.41 1520.03,-1251.53 1449.13,-1276.65 1284.03,-1335.14 1230.21,-1280.65 1055.05,-1280.65 765.514,-1280.65 765.514,-1280.65 765.514,-1280.65 572.603,-1280.65 482.248,-990.906 458.35,-898.564"/>
<polygon fill="#a8a8a8" stroke="#a8a8a8" points="461.725,-897.633 455.881,-888.795 454.938,-899.348 461.725,-897.633"/>
<text text-anchor="middle" x="1054.05" y="-1284.45" font-family="Times,serif" font-size="14.00">recognize</text>
</g>
<!-- Funding organizations&#45;&gt;Research Software Engineers -->
<g id="edge81" class="edge"><title>Funding organizations&#45;&gt;Research Software Engineers</title>
<path fill="none" stroke="#a8a8a8" d="M1618.99,-1153.58C1604.09,-1185.83 1568.74,-1254.06 1520.13,-1294.65 1360.07,-1428.31 1263.58,-1356.65 1055.05,-1356.65 765.514,-1356.65 765.514,-1356.65 765.514,-1356.65 679.132,-1356.65 642.663,-1352.18 583.068,-1289.65 474.536,-1175.77 455.602,-973.239 452.341,-898.965"/>
<polygon fill="#a8a8a8" stroke="#a8a8a8" points="455.838,-898.824 451.964,-888.963 448.843,-899.088 455.838,-898.824"/>
<text text-anchor="middle" x="1054.05" y="-1360.45" font-family="Times,serif" font-size="14.00">reward</text>
</g>
<!-- Funding organizations&#45;&gt;Hiring organizations -->
<g id="edge18" class="edge"><title>Funding organizations&#45;&gt;Hiring organizations</title>
<path fill="none" stroke="#a8a8a8" d="M1717.85,-1135.65C1746.8,-1135.65 1778.99,-1135.65 1808.2,-1135.65"/>
<polygon fill="#a8a8a8" stroke="#a8a8a8" points="1808.39,-1139.15 1818.39,-1135.65 1808.39,-1132.15 1808.39,-1139.15"/>
<text text-anchor="middle" x="1768.02" y="-1139.45" font-family="Times,serif" font-size="14.00">fund</text>
</g>
<!-- Funding organizations&#45;&gt;Researchers -->
<g id="edge6" class="edge"><title>Funding organizations&#45;&gt;Researchers</title>
<path fill="none" stroke="#a8a8a8" d="M1568.05,-1122.17C1533.46,-1114.3 1488.84,-1104.26 1449.13,-1095.65 1400.2,-1085.04 1388.4,-1079.78 1338.84,-1072.65 1201.46,-1052.89 1147.74,-1117.07 1027.55,-1047.65 998.742,-1031.01 979.083,-997.238 968.034,-973.112"/>
<polygon fill="#a8a8a8" stroke="#a8a8a8" points="971.161,-971.528 963.956,-963.76 964.745,-974.325 971.161,-971.528"/>
<text text-anchor="middle" x="1286.84" y="-1076.45" font-family="Times,serif" font-size="14.00">recognize</text>
</g>
<!-- Funding organizations&#45;&gt;Researchers -->
<g id="edge43" class="edge"><title>Funding organizations&#45;&gt;Researchers</title>
<path fill="none" stroke="#a8a8a8" d="M1581.92,-1120.16C1567.82,-1115.1 1552.26,-1109.33 1538.13,-1103.65 1530.01,-1100.38 1528.27,-1098.88 1520.13,-1095.65 1489.04,-1083.29 1481.43,-1079.36 1449.13,-1070.65 1400.95,-1057.66 1388.12,-1057.5 1338.84,-1049.65 1201.09,-1027.7 1154.16,-1068.2 1027.55,-1009.65 1008.39,-1000.79 990.83,-984.807 978.052,-971.031"/>
<polygon fill="#a8a8a8" stroke="#a8a8a8" points="980.375,-968.377 971.106,-963.245 975.152,-973.037 980.375,-968.377"/>
<text text-anchor="middle" x="1286.84" y="-1053.45" font-family="Times,serif" font-size="14.00">reward</text>
</g>
<!-- Research software&#45;&gt;Research software -->
<g id="edge90" class="edge"><title>Research software&#45;&gt;Research software</title>
<path fill="none" stroke="black" d="M2463.18,-415.059C2459.52,-424.737 2466.06,-433.649 2482.82,-433.649 2493.3,-433.649 2499.78,-430.168 2502.28,-425.194"/>
<polygon fill="black" stroke="black" points="2505.78,-425.121 2502.46,-415.059 2498.78,-424.993 2505.78,-425.121"/>
<text text-anchor="middle" x="2482.82" y="-437.449" font-family="Times,serif" font-size="14.00">depends</text>
</g>
<!-- Research software&#45;&gt;Hardware &amp; system software -->
<g id="edge61" class="edge"><title>Research software&#45;&gt;Hardware &amp; system software</title>
<path fill="none" stroke="#a8a8a8" d="M2487.96,-415.807C2517.17,-543.894 2692.04,-1310.83 2727.96,-1468.37"/>
<polygon fill="#a8a8a8" stroke="#a8a8a8" points="2724.57,-1469.28 2730.21,-1478.25 2731.4,-1467.72 2724.57,-1469.28"/>
<text text-anchor="middle" x="2592.86" y="-917.449" font-family="Times,serif" font-size="14.00">use</text>
</g>
<!-- Educators&#45;&gt;Software engineering processes -->
<g id="edge79" class="edge"><title>Educators&#45;&gt;Software engineering processes</title>
<path fill="none" stroke="#a8a8a8" d="M1422.37,-877.23C1434.35,-867.327 1450.75,-855.206 1467.13,-847.649 1496.59,-834.055 1505.96,-834.903 1538.13,-830.649 1652.23,-815.559 1972.26,-738.582 2055.9,-817.649 2081.78,-842.113 2051.81,-1109.72 2073.9,-1137.65 2080.23,-1145.65 2088.26,-1151.94 2097.16,-1156.86"/>
<polygon fill="#a8a8a8" stroke="#a8a8a8" points="2095.8,-1160.1 2106.33,-1161.35 2098.88,-1153.81 2095.8,-1160.1"/>
<text text-anchor="middle" x="1768.02" y="-801.449" font-family="Times,serif" font-size="14.00">disseminate</text>
</g>
<!-- Educators&#45;&gt;Research Software Engineers -->
<g id="edge9" class="edge"><title>Educators&#45;&gt;Research Software Engineers</title>
<path fill="none" stroke="#a8a8a8" d="M1400,-875.546C1393.88,-823.072 1373.57,-672.53 1338.84,-639.649 1325.31,-626.843 1028.09,-578.407 1009.55,-576.649 820.797,-558.755 741.206,-482.052 583.068,-586.649 493.489,-645.899 463.908,-783.005 455.08,-842.385"/>
<polygon fill="#a8a8a8" stroke="#a8a8a8" points="451.58,-842.144 453.663,-852.531 458.513,-843.111 451.58,-842.144"/>
<text text-anchor="middle" x="956.255" y="-581.449" font-family="Times,serif" font-size="14.00">train</text>
</g>
<!-- Educators&#45;&gt;Research Software Engineers -->
<g id="edge10" class="edge"><title>Educators&#45;&gt;Research Software Engineers</title>
<path fill="none" stroke="#a8a8a8" d="M1397.17,-875.496C1389.22,-848.765 1370.95,-798.736 1338.84,-768.649 1126.04,-569.282 992.467,-625.497 701.068,-614.649 648.66,-612.698 627.825,-587.313 583.068,-614.649 500.133,-665.303 467.372,-786.796 456.421,-842.22"/>
<polygon fill="#a8a8a8" stroke="#a8a8a8" points="452.919,-841.909 454.513,-852.383 459.798,-843.2 452.919,-841.909"/>
<text text-anchor="middle" x="956.255" y="-621.449" font-family="Times,serif" font-size="14.00">educate</text>
</g>
<!-- Educators&#45;&gt;Communities -->
<g id="edge47" class="edge"><title>Educators&#45;&gt;Communities</title>
<path fill="none" stroke="#a8a8a8" d="M1376.88,-878.576C1365.57,-872.304 1351.86,-865.394 1338.84,-860.649 1294.36,-844.434 1281.05,-847.917 1234.84,-837.649 1228.68,-836.28 1222.24,-834.846 1215.82,-833.416"/>
<polygon fill="#a8a8a8" stroke="#a8a8a8" points="1216.33,-829.944 1205.81,-831.183 1214.81,-836.776 1216.33,-829.944"/>
<text text-anchor="middle" x="1286.84" y="-864.449" font-family="Times,serif" font-size="14.00">educate</text>
</g>
<!-- Educators&#45;&gt;Communities -->
<g id="edge58" class="edge"><title>Educators&#45;&gt;Communities</title>
<path fill="none" stroke="#a8a8a8" d="M1393,-875.78C1382.72,-857.559 1363.99,-830.353 1338.84,-818.649 1300.22,-800.678 1251.7,-802.395 1214.75,-807.937"/>
<polygon fill="#a8a8a8" stroke="#a8a8a8" points="1213.96,-804.521 1204.66,-809.589 1215.09,-811.429 1213.96,-804.521"/>
<text text-anchor="middle" x="1286.84" y="-822.449" font-family="Times,serif" font-size="14.00">join</text>
</g>
<!-- Educators&#45;&gt;Hiring organizations -->
<g id="edge59" class="edge"><title>Educators&#45;&gt;Hiring organizations</title>
<path fill="none" stroke="#a8a8a8" d="M1431.1,-907.999C1442.18,-913.699 1455.17,-920.186 1467.13,-925.649 1498.14,-939.809 1505.98,-943.334 1538.13,-954.649 1652.89,-995.033 1696.42,-969.674 1800.52,-1032.65 1833.59,-1052.66 1863.34,-1086.19 1881.67,-1109.53"/>
<polygon fill="#a8a8a8" stroke="#a8a8a8" points="1879.02,-1111.83 1887.89,-1117.63 1884.57,-1107.57 1879.02,-1111.83"/>
<text text-anchor="middle" x="1627.82" y="-998.449" font-family="Times,serif" font-size="14.00">educate</text>
</g>
<!-- Educators&#45;&gt;Funding organizations -->
<g id="edge29" class="edge"><title>Educators&#45;&gt;Funding organizations</title>
<path fill="none" stroke="#a8a8a8" d="M1414.65,-911.18C1423.84,-926.35 1437.45,-948.895 1449.13,-968.649 1457.24,-982.363 1457.11,-987.265 1467.13,-999.649 1487.13,-1024.35 1497.11,-1025.74 1520.13,-1047.65 1528.33,-1055.45 1529.68,-1058.13 1538.13,-1065.65 1556.4,-1081.89 1577.9,-1098.91 1595.15,-1112.09"/>
<polygon fill="#a8a8a8" stroke="#a8a8a8" points="1593.17,-1114.98 1603.25,-1118.24 1597.4,-1109.41 1593.17,-1114.98"/>
<text text-anchor="middle" x="1493.63" y="-1051.45" font-family="Times,serif" font-size="14.00">educate</text>
</g>
<!-- Educators&#45;&gt;Researchers -->
<g id="edge39" class="edge"><title>Educators&#45;&gt;Researchers</title>
<path fill="none" stroke="#a8a8a8" d="M1368.3,-905.68C1358.89,-908.52 1348.57,-911.154 1338.84,-912.649 1325.64,-914.675 1111,-910.826 1098.55,-915.649 1088.57,-919.515 1090.32,-927.286 1080.55,-931.649 1061.7,-940.063 1039.69,-944.139 1019.53,-945.947"/>
<polygon fill="#a8a8a8" stroke="#a8a8a8" points="1019.21,-942.461 1009.49,-946.679 1019.72,-949.442 1019.21,-942.461"/>
<text text-anchor="middle" x="1157.69" y="-919.449" font-family="Times,serif" font-size="14.00">educate</text>
</g>
<!-- Educators&#45;&gt;Researchers -->
<g id="edge40" class="edge"><title>Educators&#45;&gt;Researchers</title>
<path fill="none" stroke="#a8a8a8" d="M1378.03,-908.964C1366.6,-915.523 1352.47,-922.594 1338.84,-926.649 1228.29,-959.521 1195.75,-946.087 1080.55,-951.649 1057.02,-952.785 1051.08,-952.651 1027.55,-951.649 1024.47,-951.517 1021.31,-951.354 1018.13,-951.166"/>
<polygon fill="#a8a8a8" stroke="#a8a8a8" points="1018.11,-947.657 1007.9,-950.49 1017.65,-954.642 1018.11,-947.657"/>
<text text-anchor="middle" x="1157.69" y="-954.449" font-family="Times,serif" font-size="14.00">train</text>
</g>
<!-- Supporting software&#45;&gt;Hardware &amp; system software -->
<g id="edge34" class="edge"><title>Supporting software&#45;&gt;Hardware &amp; system software</title>
<path fill="none" stroke="#a8a8a8" d="M2528.04,-1567.47C2569.54,-1553.23 2631.82,-1531.85 2677.11,-1516.31"/>
<polygon fill="#a8a8a8" stroke="#a8a8a8" points="2678.46,-1519.55 2686.79,-1512.99 2676.19,-1512.93 2678.46,-1519.55"/>
<text text-anchor="middle" x="2592.86" y="-1550.45" font-family="Times,serif" font-size="14.00">use</text>
</g>
<!-- Archival repositories&#45;&gt;Research Software Engineers -->
<g id="edge76" class="edge"><title>Archival repositories&#45;&gt;Research Software Engineers</title>
<path fill="none" stroke="#a8a8a8" d="M2179.12,-684.738C2146.42,-649.281 2067.92,-570.173 1984.9,-530.649 1784.87,-435.419 1716.17,-440.649 1494.63,-440.649 765.514,-440.649 765.514,-440.649 765.514,-440.649 683.477,-440.649 645.623,-415.575 583.068,-468.649 467.536,-566.672 452.887,-767.863 451.551,-842.214"/>
<polygon fill="#a8a8a8" stroke="#a8a8a8" points="448.051,-842.198 451.44,-852.236 455.05,-842.275 448.051,-842.198"/>
<text text-anchor="middle" x="1286.84" y="-444.449" font-family="Times,serif" font-size="14.00">recognize</text>
</g>
<!-- Archival repositories&#45;&gt;Research software -->
<g id="edge27" class="edge"><title>Archival repositories&#45;&gt;Research software</title>
<path fill="none" stroke="#a8a8a8" d="M2273.65,-710.218C2310.15,-709.786 2352.27,-702.896 2382.28,-678.649 2461.32,-614.782 2477.67,-483.585 2481,-425.909"/>
<polygon fill="#a8a8a8" stroke="#a8a8a8" points="2484.51,-425.869 2481.5,-415.711 2477.52,-425.53 2484.51,-425.869"/>
<text text-anchor="middle" x="2359.28" y="-705.449" font-family="Times,serif" font-size="14.00">archive</text>
</g>
<!-- Archival repositories&#45;&gt;Research software -->
<g id="edge31" class="edge"><title>Archival repositories&#45;&gt;Research software</title>
<path fill="none" stroke="#a8a8a8" d="M2246.78,-688.063C2298.09,-672.64 2372.07,-649.241 2382.28,-639.649 2445.2,-580.529 2469.56,-475.81 2477.94,-425.782"/>
<polygon fill="#a8a8a8" stroke="#a8a8a8" points="2481.43,-426.116 2479.53,-415.692 2474.51,-425.024 2481.43,-426.116"/>
<text text-anchor="middle" x="2359.28" y="-662.449" font-family="Times,serif" font-size="14.00">measure</text>
</g>
<!-- Archival repositories&#45;&gt;Supporting software -->
<g id="edge45" class="edge"><title>Archival repositories&#45;&gt;Supporting software</title>
<path fill="none" stroke="#a8a8a8" d="M2211.67,-720.355C2237.23,-752.319 2290.09,-822.673 2318.28,-890.649 2332.74,-925.517 2327.89,-936.846 2336.28,-973.649 2387.41,-1198 2453.49,-1467.7 2474.84,-1554.37"/>
<polygon fill="#a8a8a8" stroke="#a8a8a8" points="2471.48,-1555.37 2477.27,-1564.25 2478.28,-1553.7 2471.48,-1555.37"/>
<text text-anchor="middle" x="2359.28" y="-1161.45" font-family="Times,serif" font-size="14.00">archive</text>
</g>
<!-- Archival repositories&#45;&gt;Supporting software -->
<g id="edge55" class="edge"><title>Archival repositories&#45;&gt;Supporting software</title>
<path fill="none" stroke="#a8a8a8" d="M2214.92,-720.317C2252.73,-758.95 2340.86,-855.446 2382.28,-954.649 2473.1,-1172.21 2481.67,-1463.84 2482.01,-1554.54"/>
<polygon fill="#a8a8a8" stroke="#a8a8a8" points="2478.51,-1554.59 2482.02,-1564.59 2485.51,-1554.58 2478.51,-1554.59"/>
<text text-anchor="middle" x="2359.28" y="-958.449" font-family="Times,serif" font-size="14.00">measure</text>
</g>
<!-- Archival repositories&#45;&gt;Researchers -->
<g id="edge63" class="edge"><title>Archival repositories&#45;&gt;Researchers</title>
<path fill="none" stroke="#a8a8a8" d="M2111.42,-700.245C1943.62,-696.962 1554.69,-697.104 1234.84,-755.649 1207.67,-760.621 1051.39,-797.036 1027.55,-820.649 1011.95,-836.098 1019.67,-847.164 1009.55,-866.649 999.92,-885.197 986.967,-904.795 976.361,-919.831"/>
<polygon fill="#a8a8a8" stroke="#a8a8a8" points="973.406,-917.946 970.431,-928.114 979.098,-922.02 973.406,-917.946"/>
<text text-anchor="middle" x="1493.63" y="-727.449" font-family="Times,serif" font-size="14.00">recognize</text>
</g>
<!-- Researchers&#45;&gt;Software engineering processes -->
<g id="edge42" class="edge"><title>Researchers&#45;&gt;Software engineering processes</title>
<path fill="none" stroke="#a8a8a8" d="M958.273,-963.64C962.656,-1036.06 981.814,-1305.69 1027.55,-1375.65 1123.9,-1523.03 1374.44,-1452.65 1492.63,-1452.65 1492.63,-1452.65 1492.63,-1452.65 1902.71,-1452.65 2047.45,-1452.65 2148.78,-1271.47 2182.67,-1201.12"/>
<polygon fill="#a8a8a8" stroke="#a8a8a8" points="2185.9,-1202.49 2187.01,-1191.95 2179.57,-1199.5 2185.9,-1202.49"/>
<text text-anchor="middle" x="1493.63" y="-1456.45" font-family="Times,serif" font-size="14.00">research</text>
</g>
<!-- Researchers&#45;&gt;Research Software Engineers -->
<g id="edge26" class="edge"><title>Researchers&#45;&gt;Research Software Engineers</title>
<path fill="none" stroke="#a8a8a8" d="M943.573,-927.737C922.271,-897.169 873.751,-836.673 813.96,-820.649 714.831,-794.083 683.985,-804.994 583.068,-823.649 554.151,-828.994 523.116,-839.838 498.473,-849.763"/>
<polygon fill="#a8a8a8" stroke="#a8a8a8" points="496.934,-846.612 489.017,-853.652 499.597,-853.085 496.934,-846.612"/>
<text text-anchor="middle" x="766.514" y="-824.449" font-family="Times,serif" font-size="14.00">collaborate</text>
</g>
<!-- Researchers&#45;&gt;Research Software Engineers -->
<g id="edge88" class="edge"><title>Researchers&#45;&gt;Research Software Engineers</title>
<path fill="none" stroke="#ff3030" d="M935.135,-962.408C921.788,-972.5 903.392,-984.543 884.96,-990.649 757.591,-1032.84 707.247,-1041.47 583.068,-990.649 535.187,-971.054 493.723,-925.743 470.771,-896.747"/>
<polygon fill="#ff3030" stroke="#ff3030" points="473.415,-894.444 464.527,-888.677 467.879,-898.728 473.415,-894.444"/>
<text text-anchor="middle" x="766.514" y="-1028.45" font-family="Times,serif" font-size="14.00">are</text>
</g>
<!-- Researchers&#45;&gt;Communities -->
<g id="edge4" class="edge"><title>Researchers&#45;&gt;Communities</title>
<path fill="none" stroke="#a8a8a8" d="M990.763,-931.869C1025.88,-917.376 1076.52,-896.297 1080.55,-893.649 1091.73,-886.297 1114.96,-863.554 1132.83,-845.385"/>
<polygon fill="#a8a8a8" stroke="#a8a8a8" points="1135.63,-847.534 1140.12,-837.937 1130.62,-842.639 1135.63,-847.534"/>
<text text-anchor="middle" x="1054.05" y="-918.449" font-family="Times,serif" font-size="14.00">join</text>
</g>
<!-- Researchers&#45;&gt;Funding organizations -->
<g id="edge38" class="edge"><title>Researchers&#45;&gt;Funding organizations</title>
<path fill="none" stroke="#a8a8a8" d="M962.008,-963.613C970.375,-991.606 990.464,-1045.35 1027.55,-1073.65 1066.56,-1103.41 1370.31,-1122.85 1529.77,-1131.11"/>
<polygon fill="#a8a8a8" stroke="#a8a8a8" points="1529.89,-1134.62 1540.06,-1131.64 1530.25,-1127.63 1529.89,-1134.62"/>
<text text-anchor="middle" x="1286.84" y="-1122.45" font-family="Times,serif" font-size="14.00">propose</text>
</g>
<!-- Researchers&#45;&gt;Research software -->
<g id="edge16" class="edge"><title>Researchers&#45;&gt;Research software</title>
<path fill="none" stroke="#a8a8a8" d="M972.842,-928.313C985.34,-913.222 1002,-890.136 1009.55,-866.649 1025.82,-816.053 990.329,-426.588 1027.55,-388.649 1085.18,-329.904 1684.72,-346.649 1767.02,-346.649 1767.02,-346.649 1767.02,-346.649 2197.09,-346.649 2276.68,-346.649 2366.85,-366.195 2424,-381.086"/>
<polygon fill="#a8a8a8" stroke="#a8a8a8" points="2423.36,-384.538 2433.93,-383.713 2425.15,-377.771 2423.36,-384.538"/>
<text text-anchor="middle" x="1627.82" y="-350.449" font-family="Times,serif" font-size="14.00">use</text>
</g>
<!-- Researchers&#45;&gt;Research software -->
<g id="edge20" class="edge"><title>Researchers&#45;&gt;Research software</title>
<path fill="none" stroke="#a8a8a8" d="M971.36,-928.144C983.113,-912.766 999.502,-889.362 1009.55,-866.649 1022.72,-836.878 1007.42,-821.235 1027.55,-795.649 1044.02,-774.71 1057.92,-781.704 1080.55,-767.649 1088.93,-762.442 1089.49,-758.558 1098.55,-754.649 1376.29,-634.811 1464.52,-626.649 1767.02,-626.649 1767.02,-626.649 1767.02,-626.649 2197.09,-626.649 2281.02,-626.649 2315.2,-640.099 2382.28,-589.649 2437.05,-548.454 2464.32,-468.394 2475.47,-425.834"/>
<polygon fill="#a8a8a8" stroke="#a8a8a8" points="2478.93,-426.419 2477.96,-415.868 2472.14,-424.72 2478.93,-426.419"/>
<text text-anchor="middle" x="1627.82" y="-635.449" font-family="Times,serif" font-size="14.00">develop</text>
</g>
<!-- Researchers&#45;&gt;Research software -->
<g id="edge35" class="edge"><title>Researchers&#45;&gt;Research software</title>
<path fill="none" stroke="#a8a8a8" d="M971.723,-928.298C983.703,-913.016 1000.22,-889.667 1009.55,-866.649 1025.86,-826.417 1006.6,-808.669 1027.55,-770.649 1118.1,-606.313 1214.35,-575.649 1401.99,-575.649 1401.99,-575.649 1401.99,-575.649 2197.09,-575.649 2310.85,-575.649 2416.62,-472.226 2460.48,-423.048"/>
<polygon fill="#a8a8a8" stroke="#a8a8a8" points="2463.26,-425.192 2467.22,-415.367 2458,-420.575 2463.26,-425.192"/>
<text text-anchor="middle" x="1627.82" y="-579.449" font-family="Times,serif" font-size="14.00">reproduce</text>
</g>
<!-- Researchers&#45;&gt;Research software -->
<g id="edge74" class="edge"><title>Researchers&#45;&gt;Research software</title>
<path fill="none" stroke="#a8a8a8" d="M972.466,-928.185C984.735,-913.016 1001.26,-889.888 1009.55,-866.649 1036.4,-791.336 1005.2,-764.417 1027.55,-687.649 1053.39,-598.908 1064.27,-524.649 1156.69,-524.649 1156.69,-524.649 1156.69,-524.649 1628.82,-524.649 1928.26,-524.649 2280.44,-447.138 2420.2,-413.224"/>
<polygon fill="#a8a8a8" stroke="#a8a8a8" points="2421.41,-416.533 2430.29,-410.762 2419.75,-409.732 2421.41,-416.533"/>
<text text-anchor="middle" x="1627.82" y="-528.449" font-family="Times,serif" font-size="14.00">cite</text>
</g>
<!-- Researchers&#45;&gt;Research software -->
<g id="edge82" class="edge"><title>Researchers&#45;&gt;Research software</title>
<path fill="none" stroke="#a8a8a8" d="M972.727,-928.275C985.155,-913.161 1001.77,-890.063 1009.55,-866.649 1031.79,-799.689 991.761,-610.457 1027.55,-549.649 1197.74,-260.491 1431.49,-397.649 1767.02,-397.649 1767.02,-397.649 1767.02,-397.649 2197.09,-397.649 2264.22,-397.649 2340.25,-397.649 2396.85,-397.649"/>
<polygon fill="#a8a8a8" stroke="#a8a8a8" points="2397.18,-401.149 2407.18,-397.649 2397.18,-394.149 2397.18,-401.149"/>
<text text-anchor="middle" x="1627.82" y="-400.449" font-family="Times,serif" font-size="14.00">research</text>
</g>
<!-- Researchers&#45;&gt;Supporting software -->
<g id="edge54" class="edge"><title>Researchers&#45;&gt;Supporting software</title>
<path fill="none" stroke="#a8a8a8" d="M958.535,-963.784C966.628,-1071.6 1014.98,-1623.65 1156.69,-1623.65 1156.69,-1623.65 1156.69,-1623.65 2197.09,-1623.65 2272.47,-1623.65 2357.94,-1609.4 2415.4,-1597.7"/>
<polygon fill="#a8a8a8" stroke="#a8a8a8" points="2416.36,-1601.07 2425.44,-1595.62 2414.94,-1594.22 2416.36,-1601.07"/>
<text text-anchor="middle" x="1627.82" y="-1627.45" font-family="Times,serif" font-size="14.00">use</text>
</g>
</g>
</svg>
