<?xml version="1.0" encoding="UTF-8" standalone="no"?>
<!DOCTYPE svg PUBLIC "-//W3C//DTD SVG 1.1//EN"
 "http://www.w3.org/Graphics/SVG/1.1/DTD/svg11.dtd">
<!-- Generated by graphviz version 2.38.0 (20140413.2041)
 -->
<!-- Title: %3 Pages: 1 -->
<svg width="488pt" height="360pt"
 viewBox="0.00 0.00 487.86 360.00" xmlns="http://www.w3.org/2000/svg" xmlns:xlink="http://www.w3.org/1999/xlink">
<g id="graph0" class="graph" transform="scale(0.19685 0.19685) rotate(0) translate(4 1824.8)">
<title>%3</title>
<polygon fill="white" stroke="none" points="-4,4 -4,-1824.8 2474.35,-1824.8 2474.35,4 -4,4"/>
<!-- Publishers -->
<g id="node1" class="node"><title>Publishers</title>
<ellipse fill="none" stroke="black" cx="47.4458" cy="-649" rx="47.3916" ry="18"/>
<text text-anchor="middle" x="47.4458" y="-645.3" font-family="Times,serif" font-size="14.00">Publishers</text>
</g>
<!-- Communities -->
<g id="node5" class="node"><title>Communities</title>
<ellipse fill="none" stroke="black" cx="231.036" cy="-375" rx="59.2899" ry="18"/>
<text text-anchor="middle" x="231.036" y="-371.3" font-family="Times,serif" font-size="14.00">Communities</text>
</g>
<!-- Publishers&#45;&gt;Communities -->
<g id="edge13" class="edge"><title>Publishers&#45;&gt;Communities</title>
<path fill="none" stroke="#a8a8a8" d="M50.153,-630.791C54.5031,-593.168 68.9659,-505.649 112.892,-449 131.779,-424.642 161.106,-406.129 185.69,-393.712"/>
<polygon fill="#a8a8a8" stroke="#a8a8a8" points="187.39,-396.777 194.849,-389.252 184.326,-390.484 187.39,-396.777"/>
<text text-anchor="middle" x="133.392" y="-452.8" font-family="Times,serif" font-size="14.00">address</text>
</g>
<!-- Researchers -->
<g id="node10" class="node"><title>Researchers</title>
<ellipse fill="none" stroke="black" cx="432.476" cy="-820" rx="53.0913" ry="18"/>
<text text-anchor="middle" x="432.476" y="-816.3" font-family="Times,serif" font-size="14.00">Researchers</text>
</g>
<!-- Publishers&#45;&gt;Researchers -->
<g id="edge17" class="edge"><title>Publishers&#45;&gt;Researchers</title>
<path fill="none" stroke="#a8a8a8" d="M89.4543,-657.383C151.475,-671.268 271.411,-702.906 361.181,-756 378.994,-766.535 396.221,-782.104 409.164,-795.248"/>
<polygon fill="#a8a8a8" stroke="#a8a8a8" points="406.814,-797.855 416.261,-802.651 411.867,-793.01 406.814,-797.855"/>
<text text-anchor="middle" x="231.036" y="-723.8" font-family="Times,serif" font-size="14.00">recognize</text>
</g>
<!-- Publishers&#45;&gt;Researchers -->
<g id="edge87" class="edge"><title>Publishers&#45;&gt;Researchers</title>
<path fill="none" stroke="#a8a8a8" d="M56.9739,-666.762C73.7592,-699.469 114.503,-768.562 171.892,-798 234.65,-830.192 317.277,-831.327 372.277,-827.297"/>
<polygon fill="#a8a8a8" stroke="#a8a8a8" points="372.871,-830.76 382.554,-826.46 372.303,-823.783 372.871,-830.76"/>
<text text-anchor="middle" x="231.036" y="-830.8" font-family="Times,serif" font-size="14.00">reward</text>
</g>
<!-- Research software -->
<g id="node11" class="node"><title>Research software</title>
<ellipse fill="none" stroke="black" cx="2063.08" cy="-1150" rx="75.2868" ry="18"/>
<text text-anchor="middle" x="2063.08" y="-1146.3" font-family="Times,serif" font-size="14.00">Research software</text>
</g>
<!-- Publishers&#45;&gt;Research software -->
<g id="edge15" class="edge"><title>Publishers&#45;&gt;Research software</title>
<path fill="none" stroke="#a8a8a8" d="M49.4735,-666.993C57.7918,-808.584 116.71,-1738 230.036,-1738 230.036,-1738 230.036,-1738 973.446,-1738 1358.72,-1738 1475.23,-1835.31 1839.89,-1711 1882.98,-1696.31 1901.11,-1690.97 1922.89,-1651 1958.99,-1584.76 1915.19,-1382.93 1940.89,-1312 1960.89,-1256.83 2006.4,-1204.67 2035.61,-1175.09"/>
<polygon fill="#a8a8a8" stroke="#a8a8a8" points="2038.4,-1177.25 2043.02,-1167.72 2033.46,-1172.29 2038.4,-1177.25"/>
<text text-anchor="middle" x="972.446" y="-1741.8" font-family="Times,serif" font-size="14.00">recognize</text>
</g>
<!-- Research Software Engineers -->
<g id="node12" class="node"><title>Research Software Engineers</title>
<ellipse fill="none" stroke="black" cx="972.446" cy="-821" rx="114.28" ry="18"/>
<text text-anchor="middle" x="972.446" y="-817.3" font-family="Times,serif" font-size="14.00">Research Software Engineers</text>
</g>
<!-- Publishers&#45;&gt;Research Software Engineers -->
<g id="edge36" class="edge"><title>Publishers&#45;&gt;Research Software Engineers</title>
<path fill="none" stroke="#a8a8a8" d="M51.3101,-631.022C57.0911,-601.287 73.1685,-542.43 112.892,-515 179.405,-469.071 781.152,-438.649 840.057,-494 883.07,-534.419 826.249,-709.279 858.057,-759 870.06,-777.763 889.806,-791.298 909.485,-800.837"/>
<polygon fill="#a8a8a8" stroke="#a8a8a8" points="908.246,-804.119 918.798,-805.074 911.145,-797.747 908.246,-804.119"/>
<text text-anchor="middle" x="432.476" y="-474.8" font-family="Times,serif" font-size="14.00">recognize</text>
</g>
<!-- Publishers&#45;&gt;Research Software Engineers -->
<g id="edge89" class="edge"><title>Publishers&#45;&gt;Research Software Engineers</title>
<path fill="none" stroke="#a8a8a8" d="M87.3141,-639.039C137.844,-626.49 229,-605.214 308.181,-594 425.447,-577.393 752.619,-480.114 840.057,-560 872.838,-589.95 833.711,-721.866 858.057,-759 870.322,-777.709 890.235,-791.249 909.976,-800.809"/>
<polygon fill="#a8a8a8" stroke="#a8a8a8" points="908.76,-804.101 919.312,-805.057 911.659,-797.73 908.76,-804.101"/>
<text text-anchor="middle" x="432.476" y="-583.8" font-family="Times,serif" font-size="14.00">reward</text>
</g>
<!-- Software engineering processes -->
<g id="node2" class="node"><title>Software engineering processes</title>
<ellipse fill="none" stroke="black" cx="2063.08" cy="-651" rx="122.379" ry="18"/>
<text text-anchor="middle" x="2063.08" y="-647.3" font-family="Times,serif" font-size="14.00">Software engineering processes</text>
</g>
<!-- Hardware &amp; system software -->
<g id="node3" class="node"><title>Hardware &amp; system software</title>
<ellipse fill="none" stroke="black" cx="2355.31" cy="-1150" rx="115.08" ry="18"/>
<text text-anchor="middle" x="2355.31" y="-1146.3" font-family="Times,serif" font-size="14.00">Hardware &amp; system software</text>
</g>
<!-- Indices -->
<g id="node4" class="node"><title>Indices</title>
<ellipse fill="none" stroke="black" cx="231.036" cy="-1508" rx="36.2938" ry="18"/>
<text text-anchor="middle" x="231.036" y="-1504.3" font-family="Times,serif" font-size="14.00">Indices</text>
</g>
<!-- Indices&#45;&gt;Researchers -->
<g id="edge46" class="edge"><title>Indices&#45;&gt;Researchers</title>
<path fill="none" stroke="#a8a8a8" d="M237.268,-1489.95C264.505,-1395.99 390.09,-962.768 423.366,-847.977"/>
<polygon fill="#a8a8a8" stroke="#a8a8a8" points="426.784,-848.757 426.207,-838.177 420.061,-846.808 426.784,-848.757"/>
<text text-anchor="middle" x="334.681" y="-1228.8" font-family="Times,serif" font-size="14.00">recognize</text>
</g>
<!-- Indices&#45;&gt;Research software -->
<g id="edge16" class="edge"><title>Indices&#45;&gt;Research software</title>
<path fill="none" stroke="#a8a8a8" d="M240.441,-1525.64C263.747,-1571.7 333.959,-1692 431.476,-1692 431.476,-1692 431.476,-1692 808.557,-1692 1074.86,-1692 1141.42,-1697 1407.72,-1697 1407.72,-1697 1407.72,-1697 1775.25,-1697 1854.26,-1697 1883.54,-1666.5 1922.89,-1598 1954.62,-1542.78 1918.9,-1371.76 1940.89,-1312 1961.16,-1256.93 2006.59,-1204.74 2035.71,-1175.13"/>
<polygon fill="#a8a8a8" stroke="#a8a8a8" points="2038.49,-1177.29 2043.09,-1167.74 2033.55,-1172.34 2038.49,-1177.29"/>
<text text-anchor="middle" x="1135.84" y="-1698.8" font-family="Times,serif" font-size="14.00">index</text>
</g>
<!-- Indices&#45;&gt;Research Software Engineers -->
<g id="edge47" class="edge"><title>Indices&#45;&gt;Research Software Engineers</title>
<path fill="none" stroke="#a8a8a8" d="M259.168,-1496.45C352.087,-1455.69 661.612,-1309.73 840.057,-1102 907.993,-1022.91 948.318,-902.745 963.941,-848.856"/>
<polygon fill="#a8a8a8" stroke="#a8a8a8" points="967.376,-849.569 966.737,-838.993 960.642,-847.659 967.376,-849.569"/>
<text text-anchor="middle" x="536.272" y="-1372.8" font-family="Times,serif" font-size="14.00">recognize</text>
</g>
<!-- Communities&#45;&gt;Software engineering processes -->
<g id="edge70" class="edge"><title>Communities&#45;&gt;Software engineering processes</title>
<path fill="none" stroke="#a8a8a8" d="M233.972,-356.898C240.917,-295.088 266.403,-93.5791 308.181,-46 346.772,-2.0508 372.989,-0 431.476,-0 431.476,-0 431.476,-0 1775.25,-0 2051.59,-0 2063.99,-497.297 2062.73,-622.604"/>
<polygon fill="#a8a8a8" stroke="#a8a8a8" points="2059.23,-622.861 2062.59,-632.909 2066.23,-622.959 2059.23,-622.861"/>
<text text-anchor="middle" x="1135.84" y="-3.8" font-family="Times,serif" font-size="14.00">standardize</text>
</g>
<!-- Communities&#45;&gt;Researchers -->
<g id="edge2" class="edge"><title>Communities&#45;&gt;Researchers</title>
<path fill="none" stroke="#a8a8a8" d="M232.45,-393.157C234.436,-438.597 245.659,-558.615 308.181,-629 325.234,-648.198 343.144,-633.724 361.181,-652 399.991,-691.324 418.572,-755.244 426.457,-791.857"/>
<polygon fill="#a8a8a8" stroke="#a8a8a8" points="423.066,-792.749 428.488,-801.851 429.926,-791.354 423.066,-792.749"/>
<text text-anchor="middle" x="334.681" y="-655.8" font-family="Times,serif" font-size="14.00">reward</text>
</g>
<!-- Communities&#45;&gt;Researchers -->
<g id="edge11" class="edge"><title>Communities&#45;&gt;Researchers</title>
<path fill="none" stroke="#a8a8a8" d="M243.226,-392.72C267.172,-431.162 324.206,-525.565 361.181,-610 388.917,-673.337 412.376,-751.325 423.879,-792.12"/>
<polygon fill="#a8a8a8" stroke="#a8a8a8" points="420.547,-793.202 426.606,-801.894 427.289,-791.321 420.547,-793.202"/>
<text text-anchor="middle" x="334.681" y="-613.8" font-family="Times,serif" font-size="14.00">recognize</text>
</g>
<!-- Communities&#45;&gt;Research Software Engineers -->
<g id="edge1" class="edge"><title>Communities&#45;&gt;Research Software Engineers</title>
<path fill="none" stroke="#a8a8a8" d="M261.639,-390.453C275.424,-396.957 292.265,-403.945 308.181,-408 423.182,-437.301 757.437,-370.807 840.057,-456 887.015,-504.421 821.948,-702.026 858.057,-759 869.928,-777.732 889.537,-791.242 909.138,-800.77"/>
<polygon fill="#a8a8a8" stroke="#a8a8a8" points="907.869,-804.038 918.42,-805.002 910.773,-797.668 907.869,-804.038"/>
<text text-anchor="middle" x="536.272" y="-416.8" font-family="Times,serif" font-size="14.00">reward</text>
</g>
<!-- Communities&#45;&gt;Research Software Engineers -->
<g id="edge74" class="edge"><title>Communities&#45;&gt;Research Software Engineers</title>
<path fill="none" stroke="#a8a8a8" d="M288.993,-378.862C295.463,-379.265 301.964,-379.653 308.181,-380 367.397,-383.307 801.339,-380.073 840.057,-425 888.581,-481.306 818.439,-696.108 858.057,-759 869.877,-777.765 889.474,-791.282 909.08,-800.807"/>
<polygon fill="#a8a8a8" stroke="#a8a8a8" points="907.814,-804.076 918.365,-805.036 910.716,-797.706 907.814,-804.076"/>
<text text-anchor="middle" x="536.272" y="-390.8" font-family="Times,serif" font-size="14.00">recognize</text>
</g>
<!-- Educators -->
<g id="node14" class="node"><title>Educators</title>
<ellipse fill="none" stroke="black" cx="1774.25" cy="-386" rx="46.2923" ry="18"/>
<text text-anchor="middle" x="1774.25" y="-382.3" font-family="Times,serif" font-size="14.00">Educators</text>
</g>
<!-- Communities&#45;&gt;Educators -->
<g id="edge6" class="edge"><title>Communities&#45;&gt;Educators</title>
<path fill="none" stroke="#a8a8a8" d="M234.426,-356.857C242.331,-299.462 269.363,-123.26 308.181,-83 347.892,-41.8143 374.264,-46 431.476,-46 431.476,-46 431.476,-46 1537.41,-46 1607.46,-46 1640.36,-34.2025 1690.61,-83 1730.43,-121.672 1759.18,-290.497 1769.29,-357.98"/>
<polygon fill="#a8a8a8" stroke="#a8a8a8" points="1765.83,-358.521 1770.75,-367.906 1772.75,-357.503 1765.83,-358.521"/>
<text text-anchor="middle" x="972.446" y="-49.8" font-family="Times,serif" font-size="14.00">recognize</text>
</g>
<!-- Communities&#45;&gt;Educators -->
<g id="edge62" class="edge"><title>Communities&#45;&gt;Educators</title>
<path fill="none" stroke="#a8a8a8" d="M241.179,-357.156C265.52,-312.411 336.578,-199 431.476,-199 431.476,-199 431.476,-199 1537.41,-199 1610.86,-199 1634.94,-213.075 1690.61,-261 1722.53,-288.484 1747.13,-331.204 1760.9,-358.893"/>
<polygon fill="#a8a8a8" stroke="#a8a8a8" points="1757.81,-360.536 1765.31,-368.011 1764.11,-357.485 1757.81,-360.536"/>
<text text-anchor="middle" x="972.446" y="-202.8" font-family="Times,serif" font-size="14.00">reward</text>
</g>
<!-- Hiring organizations -->
<g id="node6" class="node"><title>Hiring organizations</title>
<ellipse fill="none" stroke="black" cx="1536.41" cy="-625" rx="83.3857" ry="18"/>
<text text-anchor="middle" x="1536.41" y="-621.3" font-family="Times,serif" font-size="14.00">Hiring organizations</text>
</g>
<!-- Hiring organizations&#45;&gt;Software engineering processes -->
<g id="edge19" class="edge"><title>Hiring organizations&#45;&gt;Software engineering processes</title>
<path fill="none" stroke="#a8a8a8" d="M1614.91,-618.964C1644.24,-616.957 1677.95,-614.984 1708.61,-614 1766.93,-612.128 1781.74,-609.191 1839.89,-614 1887.34,-617.923 1939.91,-626.483 1982,-634.381"/>
<polygon fill="#a8a8a8" stroke="#a8a8a8" points="1981.43,-637.837 1991.91,-636.266 1982.74,-630.96 1981.43,-637.837"/>
<text text-anchor="middle" x="1774.25" y="-617.8" font-family="Times,serif" font-size="14.00">require</text>
</g>
<!-- Hiring organizations&#45;&gt;Software engineering processes -->
<g id="edge78" class="edge"><title>Hiring organizations&#45;&gt;Software engineering processes</title>
<path fill="none" stroke="#a8a8a8" d="M1617.53,-629.001C1624.32,-629.339 1631.08,-629.676 1637.61,-630 1738.16,-634.996 1852.12,-640.633 1936.62,-644.807"/>
<polygon fill="#a8a8a8" stroke="#a8a8a8" points="1936.62,-648.311 1946.78,-645.309 1936.96,-641.32 1936.62,-648.311"/>
<text text-anchor="middle" x="1774.25" y="-642.8" font-family="Times,serif" font-size="14.00">formalize</text>
</g>
<!-- Hiring organizations&#45;&gt;Hardware &amp; system software -->
<g id="edge39" class="edge"><title>Hiring organizations&#45;&gt;Hardware &amp; system software</title>
<path fill="none" stroke="#a8a8a8" d="M1581.87,-640.133C1641.64,-661.005 1750.7,-700.96 1839.89,-744 2054.43,-847.52 2262.14,-1053.28 2330.68,-1124.8"/>
<polygon fill="#a8a8a8" stroke="#a8a8a8" points="2328.18,-1127.25 2337.61,-1132.07 2333.25,-1122.42 2328.18,-1127.25"/>
<text text-anchor="middle" x="1890.39" y="-789.8" font-family="Times,serif" font-size="14.00">own</text>
</g>
<!-- Code platforms -->
<g id="node8" class="node"><title>Code platforms</title>
<ellipse fill="none" stroke="black" cx="1774.25" cy="-1222" rx="65.7887" ry="18"/>
<text text-anchor="middle" x="1774.25" y="-1218.3" font-family="Times,serif" font-size="14.00">Code platforms</text>
</g>
<!-- Hiring organizations&#45;&gt;Code platforms -->
<g id="edge27" class="edge"><title>Hiring organizations&#45;&gt;Code platforms</title>
<path fill="none" stroke="#a8a8a8" d="M1551.66,-643.007C1570.48,-667.81 1603.17,-714.589 1619.61,-760 1638.11,-811.124 1623.46,-828.502 1637.61,-881 1670.19,-1001.96 1732.74,-1138.28 1760,-1195"/>
<polygon fill="#a8a8a8" stroke="#a8a8a8" points="1756.86,-1196.55 1764.37,-1204.03 1763.17,-1193.5 1756.86,-1196.55"/>
<text text-anchor="middle" x="1664.11" y="-1036.8" font-family="Times,serif" font-size="14.00">own</text>
</g>
<!-- Supporting software -->
<g id="node9" class="node"><title>Supporting software</title>
<ellipse fill="none" stroke="black" cx="2063.08" cy="-1339" rx="82.5854" ry="18"/>
<text text-anchor="middle" x="2063.08" y="-1335.3" font-family="Times,serif" font-size="14.00">Supporting software</text>
</g>
<!-- Hiring organizations&#45;&gt;Supporting software -->
<g id="edge75" class="edge"><title>Hiring organizations&#45;&gt;Supporting software</title>
<path fill="none" stroke="#a8a8a8" d="M1552.24,-642.812C1571.71,-667.394 1605.14,-713.924 1619.61,-760 1658.56,-884.053 1611.3,-924.665 1637.61,-1052 1656.44,-1143.14 1644.71,-1181.33 1708.61,-1249 1752.16,-1295.12 1781.73,-1279.67 1839.89,-1305 1847.92,-1308.5 1849.46,-1310.64 1857.89,-1313 1894.86,-1323.33 1936.75,-1329.57 1972.92,-1333.33"/>
<polygon fill="#a8a8a8" stroke="#a8a8a8" points="1972.67,-1336.82 1982.97,-1334.33 1973.36,-1329.85 1972.67,-1336.82"/>
<text text-anchor="middle" x="1774.25" y="-1308.8" font-family="Times,serif" font-size="14.00">own</text>
</g>
<!-- Hiring organizations&#45;&gt;Researchers -->
<g id="edge10" class="edge"><title>Hiring organizations&#45;&gt;Researchers</title>
<path fill="none" stroke="#a8a8a8" d="M1512.4,-607.761C1492.88,-594.01 1463.59,-575.388 1435.22,-565 1359.76,-537.366 1116.57,-511.103 1104.84,-521 1068.64,-551.52 1118.86,-591.123 1086.84,-626 996.923,-723.932 623.662,-702.542 503.772,-760 485.75,-768.637 468.624,-783.073 455.789,-795.62"/>
<polygon fill="#a8a8a8" stroke="#a8a8a8" points="453.298,-793.161 448.753,-802.732 458.274,-798.085 453.298,-793.161"/>
<text text-anchor="middle" x="972.446" y="-704.8" font-family="Times,serif" font-size="14.00">recognize</text>
</g>
<!-- Hiring organizations&#45;&gt;Researchers -->
<g id="edge25" class="edge"><title>Hiring organizations&#45;&gt;Researchers</title>
<path fill="none" stroke="#a8a8a8" d="M1516.23,-607.453C1496.86,-590.394 1465.56,-564.556 1435.22,-547 1307.5,-473.084 1228.39,-433.308 1104.84,-514 1088.17,-524.882 1102.18,-542.328 1086.84,-555 1006.44,-621.398 939.401,-541.762 858.057,-607 843.478,-618.692 853.954,-632.506 840.057,-645 810.998,-671.125 794.634,-663.282 757.057,-674 682.487,-695.269 662.001,-693.196 586.772,-712 549.635,-721.283 535.894,-714.18 503.772,-735 480.743,-749.926 461.469,-774.776 448.962,-793.763"/>
<polygon fill="#a8a8a8" stroke="#a8a8a8" points="445.958,-791.965 443.541,-802.28 451.863,-795.724 445.958,-791.965"/>
<text text-anchor="middle" x="972.446" y="-610.8" font-family="Times,serif" font-size="14.00">promote</text>
</g>
<!-- Hiring organizations&#45;&gt;Researchers -->
<g id="edge69" class="edge"><title>Hiring organizations&#45;&gt;Researchers</title>
<path fill="none" stroke="#a8a8a8" d="M1524.54,-607.162C1500.92,-570.568 1440.85,-488.472 1364.22,-465 1287.99,-441.65 1264.3,-458.585 1184.84,-465 1147.82,-467.988 884.548,-508.98 858.057,-535 834.524,-558.113 863.221,-583.518 840.057,-607 799.169,-648.448 641.68,-654.64 586.772,-674 548.682,-687.43 534.435,-684.714 503.772,-711 477.477,-733.541 457.403,-768.343 445.568,-792.535"/>
<polygon fill="#a8a8a8" stroke="#a8a8a8" points="442.264,-791.335 441.15,-801.871 448.591,-794.329 442.264,-791.335"/>
<text text-anchor="middle" x="972.446" y="-538.8" font-family="Times,serif" font-size="14.00">reward</text>
</g>
<!-- Hiring organizations&#45;&gt;Researchers -->
<g id="edge88" class="edge"><title>Hiring organizations&#45;&gt;Researchers</title>
<path fill="none" stroke="#a8a8a8" d="M1495.1,-609.317C1426.29,-585.308 1284.03,-547.893 1184.84,-605 1171.03,-612.949 1176.47,-623.313 1166.84,-636 1136.04,-676.547 1132.08,-694.655 1086.84,-718 983.942,-771.086 637.591,-803.839 495.299,-815.345"/>
<polygon fill="#a8a8a8" stroke="#a8a8a8" points="494.695,-811.882 485.006,-816.169 495.254,-818.86 494.695,-811.882"/>
<text text-anchor="middle" x="972.446" y="-776.8" font-family="Times,serif" font-size="14.00">hire</text>
</g>
<!-- Hiring organizations&#45;&gt;Research software -->
<g id="edge14" class="edge"><title>Hiring organizations&#45;&gt;Research software</title>
<path fill="none" stroke="#a8a8a8" d="M1547.89,-643.053C1564.88,-671.641 1600.34,-728.449 1637.61,-771 1665.6,-802.958 1671.88,-813.642 1708.61,-835 1795.34,-885.441 1845.27,-842.433 1922.89,-906 1995.08,-965.115 2037.11,-1072.15 2053.74,-1122.46"/>
<polygon fill="#a8a8a8" stroke="#a8a8a8" points="2050.42,-1123.57 2056.82,-1132.02 2057.09,-1121.43 2050.42,-1123.57"/>
<text text-anchor="middle" x="1774.25" y="-871.8" font-family="Times,serif" font-size="14.00">own</text>
</g>
<!-- Hiring organizations&#45;&gt;Research software -->
<g id="edge72" class="edge"><title>Hiring organizations&#45;&gt;Research software</title>
<path fill="none" stroke="#a8a8a8" d="M1556.45,-642.765C1575.96,-660.473 1607.6,-687.86 1637.61,-708 1758.31,-789.014 1825.43,-760.138 1922.89,-868 1993.91,-946.586 2037.22,-1068.01 2054.04,-1122.22"/>
<polygon fill="#a8a8a8" stroke="#a8a8a8" points="2050.71,-1123.28 2056.96,-1131.83 2057.4,-1121.24 2050.71,-1123.28"/>
<text text-anchor="middle" x="1774.25" y="-802.8" font-family="Times,serif" font-size="14.00">measure</text>
</g>
<!-- Hiring organizations&#45;&gt;Research Software Engineers -->
<g id="edge24" class="edge"><title>Hiring organizations&#45;&gt;Research Software Engineers</title>
<path fill="none" stroke="#a8a8a8" d="M1513.68,-642.56C1494.24,-657.392 1464.39,-678.07 1435.22,-690 1330.1,-732.989 1286.41,-690.197 1184.84,-741 1175.26,-745.788 1176.11,-751.653 1166.84,-757 1144.74,-769.742 1086.15,-788.443 1039.2,-802.343"/>
<polygon fill="#a8a8a8" stroke="#a8a8a8" points="1037.99,-799.053 1029.38,-805.232 1039.96,-805.768 1037.99,-799.053"/>
<text text-anchor="middle" x="1274.53" y="-744.8" font-family="Times,serif" font-size="14.00">promote</text>
</g>
<!-- Hiring organizations&#45;&gt;Research Software Engineers -->
<g id="edge68" class="edge"><title>Hiring organizations&#45;&gt;Research Software Engineers</title>
<path fill="none" stroke="#a8a8a8" d="M1468.85,-635.684C1370.29,-651.741 1195.89,-681.156 1184.84,-690 1168.98,-702.685 1181.06,-717.502 1166.84,-732 1145.66,-753.585 1132.33,-747.412 1104.84,-760 1076.35,-773.045 1044.47,-787.84 1019.25,-799.592"/>
<polygon fill="#a8a8a8" stroke="#a8a8a8" points="1017.51,-796.54 1009.93,-803.937 1020.47,-802.884 1017.51,-796.54"/>
<text text-anchor="middle" x="1274.53" y="-693.8" font-family="Times,serif" font-size="14.00">reward</text>
</g>
<!-- Hiring organizations&#45;&gt;Research Software Engineers -->
<g id="edge73" class="edge"><title>Hiring organizations&#45;&gt;Research Software Engineers</title>
<path fill="none" stroke="#a8a8a8" d="M1462.09,-616.852C1371.97,-608.509 1225.93,-600.946 1184.84,-634 1158.8,-654.943 1188.21,-681.317 1166.84,-707 1147.49,-730.238 1128.43,-716.088 1104.84,-735 1094.43,-743.34 1096.91,-750.27 1086.84,-759 1067.93,-775.379 1043.98,-789.252 1022.97,-799.695"/>
<polygon fill="#a8a8a8" stroke="#a8a8a8" points="1021.34,-796.596 1013.86,-804.102 1024.39,-802.897 1021.34,-796.596"/>
<text text-anchor="middle" x="1274.53" y="-637.8" font-family="Times,serif" font-size="14.00">recognize</text>
</g>
<!-- Hiring organizations&#45;&gt;Research Software Engineers -->
<g id="edge84" class="edge"><title>Hiring organizations&#45;&gt;Research Software Engineers</title>
<path fill="none" stroke="#a8a8a8" d="M1519.06,-642.978C1490.81,-672.639 1429.6,-731.028 1364.22,-756 1336.95,-766.416 1173.99,-791.604 1067.3,-807.39"/>
<polygon fill="#a8a8a8" stroke="#a8a8a8" points="1066.54,-803.964 1057.16,-808.887 1067.56,-810.889 1066.54,-803.964"/>
<text text-anchor="middle" x="1274.53" y="-791.8" font-family="Times,serif" font-size="14.00">hire</text>
</g>
<!-- Archival repositories -->
<g id="node13" class="node"><title>Archival repositories</title>
<ellipse fill="none" stroke="black" cx="671.914" cy="-1082" rx="85.2851" ry="18"/>
<text text-anchor="middle" x="671.914" y="-1078.3" font-family="Times,serif" font-size="14.00">Archival repositories</text>
</g>
<!-- Hiring organizations&#45;&gt;Archival repositories -->
<g id="edge59" class="edge"><title>Hiring organizations&#45;&gt;Archival repositories</title>
<path fill="none" stroke="#a8a8a8" d="M1522.03,-643.03C1503.6,-667.403 1468.85,-711.75 1435.22,-746 1406.07,-775.684 1398.29,-783.126 1364.22,-807 1145.29,-960.403 1098.65,-1034.23 840.057,-1102 804.061,-1111.43 762.524,-1106.54 729.862,-1099.23"/>
<polygon fill="#a8a8a8" stroke="#a8a8a8" points="730.565,-1095.8 720.027,-1096.9 728.95,-1102.61 730.565,-1095.8"/>
<text text-anchor="middle" x="1135.84" y="-995.8" font-family="Times,serif" font-size="14.00">own</text>
</g>
<!-- Hiring organizations&#45;&gt;Educators -->
<g id="edge7" class="edge"><title>Hiring organizations&#45;&gt;Educators</title>
<path fill="none" stroke="#a8a8a8" d="M1546.02,-606.898C1560.91,-577.327 1594.07,-518.413 1637.61,-483 1657.53,-466.796 1668.99,-473.853 1690.61,-460 1712.62,-445.892 1734.53,-425.932 1750.26,-410.296"/>
<polygon fill="#a8a8a8" stroke="#a8a8a8" points="1752.92,-412.587 1757.45,-403.013 1747.94,-407.667 1752.92,-412.587"/>
<text text-anchor="middle" x="1664.11" y="-486.8" font-family="Times,serif" font-size="14.00">recognize</text>
</g>
<!-- Hiring organizations&#45;&gt;Educators -->
<g id="edge23" class="edge"><title>Hiring organizations&#45;&gt;Educators</title>
<path fill="none" stroke="#a8a8a8" d="M1542.51,-606.778C1553.65,-570.17 1583.59,-487.254 1637.61,-441 1656.61,-424.723 1667.34,-431.224 1690.61,-422 1705.03,-416.282 1720.67,-409.594 1734.43,-403.545"/>
<polygon fill="#a8a8a8" stroke="#a8a8a8" points="1735.89,-406.728 1743.61,-399.48 1733.05,-400.327 1735.89,-406.728"/>
<text text-anchor="middle" x="1664.11" y="-444.8" font-family="Times,serif" font-size="14.00">hire</text>
</g>
<!-- Hiring organizations&#45;&gt;Educators -->
<g id="edge83" class="edge"><title>Hiring organizations&#45;&gt;Educators</title>
<path fill="none" stroke="#a8a8a8" d="M1587.19,-610.625C1628.81,-598.248 1682.63,-581.269 1690.61,-574 1738.24,-530.591 1759.81,-454.749 1768.37,-413.921"/>
<polygon fill="#a8a8a8" stroke="#a8a8a8" points="1771.81,-414.589 1770.32,-404.099 1764.94,-413.226 1771.81,-414.589"/>
<text text-anchor="middle" x="1664.11" y="-597.8" font-family="Times,serif" font-size="14.00">promote</text>
</g>
<!-- Hiring organizations&#45;&gt;Educators -->
<g id="edge86" class="edge"><title>Hiring organizations&#45;&gt;Educators</title>
<path fill="none" stroke="#a8a8a8" d="M1559.01,-607.363C1578.61,-591.998 1608.76,-569.906 1637.61,-555 1659.84,-543.511 1671.56,-552.23 1690.61,-536 1729.37,-502.97 1753.26,-446.991 1764.82,-413.558"/>
<polygon fill="#a8a8a8" stroke="#a8a8a8" points="1768.18,-414.55 1768.02,-403.956 1761.54,-412.338 1768.18,-414.55"/>
<text text-anchor="middle" x="1664.11" y="-558.8" font-family="Times,serif" font-size="14.00">reward</text>
</g>
<!-- Funding organizations -->
<g id="node7" class="node"><title>Funding organizations</title>
<ellipse fill="none" stroke="black" cx="1274.53" cy="-343" rx="89.8845" ry="18"/>
<text text-anchor="middle" x="1274.53" y="-339.3" font-family="Times,serif" font-size="14.00">Funding organizations</text>
</g>
<!-- Funding organizations&#45;&gt;Hiring organizations -->
<g id="edge60" class="edge"><title>Funding organizations&#45;&gt;Hiring organizations</title>
<path fill="none" stroke="#a8a8a8" d="M1355.75,-335.218C1383.38,-336.509 1412.93,-342.786 1435.22,-360 1510.94,-418.489 1529.44,-541.107 1533.95,-596.618"/>
<polygon fill="#a8a8a8" stroke="#a8a8a8" points="1530.48,-597.063 1534.68,-606.787 1537.46,-596.562 1530.48,-597.063"/>
<text text-anchor="middle" x="1408.72" y="-363.8" font-family="Times,serif" font-size="14.00">fund</text>
</g>
<!-- Funding organizations&#45;&gt;Researchers -->
<g id="edge4" class="edge"><title>Funding organizations&#45;&gt;Researchers</title>
<path fill="none" stroke="#a8a8a8" d="M1203.4,-331.928C1031.77,-306.62 597.761,-254.028 503.772,-353 484.899,-372.873 489.94,-571.912 485.772,-599 474.935,-669.412 453.344,-750.524 441.578,-792.155"/>
<polygon fill="#a8a8a8" stroke="#a8a8a8" points="438.188,-791.281 438.811,-801.858 444.919,-793.201 438.188,-791.281"/>
<text text-anchor="middle" x="807.557" y="-300.8" font-family="Times,serif" font-size="14.00">recognize</text>
</g>
<!-- Funding organizations&#45;&gt;Researchers -->
<g id="edge43" class="edge"><title>Funding organizations&#45;&gt;Researchers</title>
<path fill="none" stroke="#a8a8a8" d="M1228.68,-358.631C1214.59,-363.69 1199.01,-369.435 1184.84,-375 1037.93,-432.694 992.776,-431.778 858.057,-514 808.22,-544.416 809.867,-573.104 757.057,-598 653.421,-646.856 592.35,-573.328 503.772,-646 458.876,-682.834 442.421,-752.727 436.567,-791.787"/>
<polygon fill="#a8a8a8" stroke="#a8a8a8" points="433.066,-791.552 435.182,-801.934 440.002,-792.499 433.066,-791.552"/>
<text text-anchor="middle" x="807.557" y="-591.8" font-family="Times,serif" font-size="14.00">reward</text>
</g>
<!-- Funding organizations&#45;&gt;Research Software Engineers -->
<g id="edge26" class="edge"><title>Funding organizations&#45;&gt;Research Software Engineers</title>
<path fill="none" stroke="#a8a8a8" d="M1240.9,-359.832C1221.17,-371.845 1197.46,-389.944 1184.84,-413 1165.43,-448.455 1191.53,-562.002 1166.84,-594 1148.88,-617.266 1123.11,-593.978 1104.84,-617 1065.29,-666.831 1122.66,-706.433 1086.84,-759 1074.18,-777.566 1054.08,-791.094 1034.29,-800.684"/>
<polygon fill="#a8a8a8" stroke="#a8a8a8" points="1032.58,-797.614 1024.94,-804.949 1035.49,-803.982 1032.58,-797.614"/>
<text text-anchor="middle" x="1135.84" y="-620.8" font-family="Times,serif" font-size="14.00">recognize</text>
</g>
<!-- Funding organizations&#45;&gt;Research Software Engineers -->
<g id="edge44" class="edge"><title>Funding organizations&#45;&gt;Research Software Engineers</title>
<path fill="none" stroke="#a8a8a8" d="M1241.1,-359.945C1221.45,-372.004 1197.76,-390.11 1184.84,-413 1153.35,-468.782 1208.07,-506.979 1166.84,-556 1148.28,-578.056 1123.08,-552.69 1104.84,-575 1078.83,-606.804 1109.49,-724.724 1086.84,-759 1074.5,-777.664 1054.57,-791.194 1034.84,-800.759"/>
<polygon fill="#a8a8a8" stroke="#a8a8a8" points="1033.16,-797.679 1025.51,-805.01 1036.06,-804.049 1033.16,-797.679"/>
<text text-anchor="middle" x="1135.84" y="-578.8" font-family="Times,serif" font-size="14.00">reward</text>
</g>
<!-- Code platforms&#45;&gt;Supporting software -->
<g id="edge55" class="edge"><title>Code platforms&#45;&gt;Supporting software</title>
<path fill="none" stroke="#a8a8a8" d="M1797.81,-1238.81C1813.91,-1250.21 1836.43,-1264.97 1857.89,-1275 1871.39,-1281.3 1948.11,-1304.83 2003.54,-1321.52"/>
<polygon fill="#a8a8a8" stroke="#a8a8a8" points="2002.69,-1324.92 2013.28,-1324.45 2004.71,-1318.22 2002.69,-1324.92"/>
<text text-anchor="middle" x="1890.39" y="-1299.8" font-family="Times,serif" font-size="14.00">measure</text>
</g>
<!-- Code platforms&#45;&gt;Supporting software -->
<g id="edge63" class="edge"><title>Code platforms&#45;&gt;Supporting software</title>
<path fill="none" stroke="#a8a8a8" d="M1831.89,-1230.76C1859.9,-1236.16 1893.85,-1244.33 1922.89,-1256 1961.76,-1271.62 2002.5,-1297.14 2029.79,-1315.77"/>
<polygon fill="#a8a8a8" stroke="#a8a8a8" points="2027.94,-1318.75 2038.15,-1321.55 2031.92,-1312.99 2027.94,-1318.75"/>
<text text-anchor="middle" x="1890.39" y="-1259.8" font-family="Times,serif" font-size="14.00">store</text>
</g>
<!-- Code platforms&#45;&gt;Research software -->
<g id="edge64" class="edge"><title>Code platforms&#45;&gt;Research software</title>
<path fill="none" stroke="#a8a8a8" d="M1835.38,-1215.18C1862.37,-1211.47 1894.47,-1206.15 1922.89,-1199 1954.09,-1191.15 1988.18,-1179.21 2014.81,-1169.08"/>
<polygon fill="#a8a8a8" stroke="#a8a8a8" points="2016.19,-1172.3 2024.26,-1165.44 2013.67,-1165.77 2016.19,-1172.3"/>
<text text-anchor="middle" x="1890.39" y="-1214.8" font-family="Times,serif" font-size="14.00">measure</text>
</g>
<!-- Code platforms&#45;&gt;Research software -->
<g id="edge81" class="edge"><title>Code platforms&#45;&gt;Research software</title>
<path fill="none" stroke="#a8a8a8" d="M1807.63,-1206.35C1817.99,-1201.24 1829.47,-1195.47 1839.89,-1190 1848,-1185.75 1849.23,-1182.94 1857.89,-1180 1896.84,-1166.81 1941.89,-1159.42 1979.76,-1155.28"/>
<polygon fill="#a8a8a8" stroke="#a8a8a8" points="1980.14,-1158.76 1989.72,-1154.24 1979.42,-1151.79 1980.14,-1158.76"/>
<text text-anchor="middle" x="1890.39" y="-1183.8" font-family="Times,serif" font-size="14.00">store</text>
</g>
<!-- Code platforms&#45;&gt;Research Software Engineers -->
<g id="edge61" class="edge"><title>Code platforms&#45;&gt;Research Software Engineers</title>
<path fill="none" stroke="#a8a8a8" d="M1743.57,-1206.05C1713.27,-1190.5 1664.48,-1167.43 1619.61,-1155 1539.97,-1132.93 1517.32,-1140.44 1435.22,-1131 1361.92,-1122.57 1165.16,-1140.49 1104.84,-1098 1019.4,-1037.81 987.729,-907.004 977.607,-849.309"/>
<polygon fill="#a8a8a8" stroke="#a8a8a8" points="981.003,-848.394 975.91,-839.104 974.098,-849.542 981.003,-848.394"/>
<text text-anchor="middle" x="1408.72" y="-1134.8" font-family="Times,serif" font-size="14.00">recognize</text>
</g>
<!-- Supporting software&#45;&gt;Hardware &amp; system software -->
<g id="edge3" class="edge"><title>Supporting software&#45;&gt;Hardware &amp; system software</title>
<path fill="none" stroke="#a8a8a8" d="M2090.35,-1321.89C2142.64,-1287.84 2259.8,-1211.54 2318.86,-1173.09"/>
<polygon fill="#a8a8a8" stroke="#a8a8a8" points="2321,-1175.87 2327.47,-1167.48 2317.18,-1170 2321,-1175.87"/>
<text text-anchor="middle" x="2212.77" y="-1247.8" font-family="Times,serif" font-size="14.00">use</text>
</g>
<!-- Researchers&#45;&gt;Publishers -->
<g id="edge41" class="edge"><title>Researchers&#45;&gt;Publishers</title>
<path fill="none" stroke="#a8a8a8" d="M390.376,-808.945C327.499,-791.736 210.637,-758.497 171.892,-739 135.651,-720.763 98.6456,-692.188 74.7283,-672.139"/>
<polygon fill="#a8a8a8" stroke="#a8a8a8" points="76.724,-669.242 66.837,-665.435 72.1915,-674.577 76.724,-669.242"/>
<text text-anchor="middle" x="231.036" y="-782.8" font-family="Times,serif" font-size="14.00">publish</text>
</g>
<!-- Researchers&#45;&gt;Software engineering processes -->
<g id="edge53" class="edge"><title>Researchers&#45;&gt;Software engineering processes</title>
<path fill="none" stroke="#a8a8a8" d="M435.497,-838.188C442.157,-894.867 465.221,-1066.8 503.772,-1105 799.539,-1398.11 1028.29,-1294.32 1435.22,-1206 1746.53,-1138.43 1984.24,-779.801 2046.21,-677.977"/>
<polygon fill="#a8a8a8" stroke="#a8a8a8" points="2049.33,-679.579 2051.5,-669.208 2043.34,-675.965 2049.33,-679.579"/>
<text text-anchor="middle" x="1274.53" y="-1266.8" font-family="Times,serif" font-size="14.00">research</text>
</g>
<!-- Researchers&#45;&gt;Communities -->
<g id="edge76" class="edge"><title>Researchers&#45;&gt;Communities</title>
<path fill="none" stroke="#a8a8a8" d="M426.029,-802.059C416.836,-774.531 395.783,-721.739 361.181,-690 342.258,-672.643 324.884,-686.503 308.181,-667 241.589,-589.246 232.293,-460.063 231.622,-403.265"/>
<polygon fill="#a8a8a8" stroke="#a8a8a8" points="235.122,-403.206 231.587,-393.218 228.122,-403.23 235.122,-403.206"/>
<text text-anchor="middle" x="334.681" y="-693.8" font-family="Times,serif" font-size="14.00">join</text>
</g>
<!-- Researchers&#45;&gt;Funding organizations -->
<g id="edge82" class="edge"><title>Researchers&#45;&gt;Funding organizations</title>
<path fill="none" stroke="#a8a8a8" d="M435.209,-801.916C439.8,-762.793 455.448,-669.068 503.772,-610 618.823,-469.369 686.547,-465.988 858.057,-406 963.215,-369.219 1090.75,-353.902 1176.55,-347.529"/>
<polygon fill="#a8a8a8" stroke="#a8a8a8" points="1176.82,-351.019 1186.54,-346.813 1176.31,-344.037 1176.82,-351.019"/>
<text text-anchor="middle" x="807.557" y="-436.8" font-family="Times,serif" font-size="14.00">propose</text>
</g>
<!-- Researchers&#45;&gt;Supporting software -->
<g id="edge52" class="edge"><title>Researchers&#45;&gt;Supporting software</title>
<path fill="none" stroke="#a8a8a8" d="M433.941,-838.348C436.929,-950.193 454.879,-1537.47 503.772,-1599 552.424,-1660.23 592.71,-1654 670.914,-1654 670.914,-1654 670.914,-1654 1136.84,-1654 1488.74,-1654 1636.85,-1953.97 1922.89,-1749 2049.85,-1658.02 2062.41,-1444.63 2062.64,-1367.47"/>
<polygon fill="#a8a8a8" stroke="#a8a8a8" points="2066.14,-1367.1 2062.6,-1357.11 2059.14,-1367.12 2066.14,-1367.1"/>
<text text-anchor="middle" x="1274.53" y="-1697.8" font-family="Times,serif" font-size="14.00">use</text>
</g>
<!-- Researchers&#45;&gt;Research software -->
<g id="edge18" class="edge"><title>Researchers&#45;&gt;Research software</title>
<path fill="none" stroke="#a8a8a8" d="M433.934,-838.343C436.822,-947.591 454.041,-1509.69 503.772,-1566 554.137,-1623.03 594.83,-1603 670.914,-1603 670.914,-1603 670.914,-1603 1775.25,-1603 1842.9,-1603 1879.42,-1617.83 1922.89,-1566 1959.26,-1522.65 1921.15,-1365.03 1940.89,-1312 1961.37,-1257.01 2006.74,-1204.8 2035.78,-1175.16"/>
<polygon fill="#a8a8a8" stroke="#a8a8a8" points="2038.57,-1177.32 2043.15,-1167.77 2033.61,-1172.38 2038.57,-1177.32"/>
<text text-anchor="middle" x="1274.53" y="-1606.8" font-family="Times,serif" font-size="14.00">reproduce</text>
</g>
<!-- Researchers&#45;&gt;Research software -->
<g id="edge21" class="edge"><title>Researchers&#45;&gt;Research software</title>
<path fill="none" stroke="#a8a8a8" d="M436.167,-838.175C451.953,-941.47 536.496,-1450 670.914,-1450 670.914,-1450 670.914,-1450 1775.25,-1450 1864.17,-1450 1861.29,-1379.12 1922.89,-1315 1967.9,-1268.16 2015.76,-1209.12 2041.98,-1175.86"/>
<polygon fill="#a8a8a8" stroke="#a8a8a8" points="2044.75,-1178.01 2048.17,-1167.99 2039.24,-1173.69 2044.75,-1178.01"/>
<text text-anchor="middle" x="1274.53" y="-1453.8" font-family="Times,serif" font-size="14.00">research</text>
</g>
<!-- Researchers&#45;&gt;Research software -->
<g id="edge35" class="edge"><title>Researchers&#45;&gt;Research software</title>
<path fill="none" stroke="#a8a8a8" d="M434.514,-838.104C439.575,-923.214 463.085,-1283.75 503.772,-1388 541.609,-1484.95 566.841,-1552 670.914,-1552 670.914,-1552 670.914,-1552 1775.25,-1552 1842.9,-1552 1878.96,-1566.44 1922.89,-1515 1952.31,-1480.56 1924.71,-1354.3 1940.89,-1312 1961.86,-1257.19 2007.08,-1204.92 2035.96,-1175.22"/>
<polygon fill="#a8a8a8" stroke="#a8a8a8" points="2038.74,-1177.39 2043.28,-1167.82 2033.76,-1172.47 2038.74,-1177.39"/>
<text text-anchor="middle" x="1274.53" y="-1555.8" font-family="Times,serif" font-size="14.00">cite</text>
</g>
<!-- Researchers&#45;&gt;Research software -->
<g id="edge77" class="edge"><title>Researchers&#45;&gt;Research software</title>
<path fill="none" stroke="#a8a8a8" d="M434.184,-838.152C437.044,-900.263 450.311,-1109.42 503.772,-1272 528.673,-1347.73 522.434,-1383.93 586.772,-1431 690.998,-1507.25 929.531,-1501 1407.72,-1501 1407.72,-1501 1407.72,-1501 1775.25,-1501 1808.35,-1501 1814,-1484.63 1839.89,-1464 1882.45,-1430.09 1896.15,-1421.39 1922.89,-1374 1937,-1349.01 1928.09,-1337.68 1940.89,-1312 1967.36,-1258.9 2011.66,-1205.35 2038.74,-1175.06"/>
<polygon fill="#a8a8a8" stroke="#a8a8a8" points="2041.45,-1177.27 2045.56,-1167.51 2036.26,-1172.58 2041.45,-1177.27"/>
<text text-anchor="middle" x="1274.53" y="-1504.8" font-family="Times,serif" font-size="14.00">use</text>
</g>
<!-- Researchers&#45;&gt;Research Software Engineers -->
<g id="edge33" class="edge"><title>Researchers&#45;&gt;Research Software Engineers</title>
<path fill="none" stroke="#a8a8a8" d="M438.504,-837.923C447.03,-864.566 467.08,-913.852 503.772,-936 524.194,-948.327 681.536,-943.273 757.057,-941 793.996,-939.888 805.87,-950.036 840.057,-936 886.509,-916.929 927.858,-874.389 951.259,-846.736"/>
<polygon fill="#a8a8a8" stroke="#a8a8a8" points="953.967,-848.953 957.651,-839.019 948.577,-844.487 953.967,-848.953"/>
<text text-anchor="middle" x="671.914" y="-946.8" font-family="Times,serif" font-size="14.00">collaborate</text>
</g>
<!-- Researchers&#45;&gt;Research Software Engineers -->
<g id="edge93" class="edge"><title>Researchers&#45;&gt;Research Software Engineers</title>
<path fill="none" stroke="#ff3030" d="M462.593,-834.878C475.006,-840.68 489.821,-846.907 503.772,-851 539.6,-861.511 549.546,-861.102 586.772,-864 699.175,-872.749 729.389,-871.532 840.057,-850 858.618,-846.388 878.579,-842.161 897.198,-838.069"/>
<polygon fill="#ff3030" stroke="#ff3030" points="898.083,-841.458 907.091,-835.88 896.571,-834.623 898.083,-841.458"/>
<text text-anchor="middle" x="671.914" y="-872.8" font-family="Times,serif" font-size="14.00">are</text>
</g>
<!-- Researchers&#45;&gt;Archival repositories -->
<g id="edge38" class="edge"><title>Researchers&#45;&gt;Archival repositories</title>
<path fill="none" stroke="#a8a8a8" d="M434.414,-838.011C437.447,-877.266 450.219,-971.086 503.772,-1022 525.585,-1042.74 540.328,-1031.16 568.772,-1041 587.056,-1047.33 606.855,-1055.06 624.11,-1062.1"/>
<polygon fill="#a8a8a8" stroke="#a8a8a8" points="622.829,-1065.36 633.409,-1065.93 625.493,-1058.89 622.829,-1065.36"/>
<text text-anchor="middle" x="536.272" y="-1044.8" font-family="Times,serif" font-size="14.00">publish</text>
</g>
<!-- Researchers&#45;&gt;Archival repositories -->
<g id="edge90" class="edge"><title>Researchers&#45;&gt;Archival repositories</title>
<path fill="none" stroke="#a8a8a8" d="M436.068,-837.966C441.884,-871.649 459.142,-944.451 503.772,-984 526.297,-1003.96 541.956,-989.333 568.772,-1003 597.035,-1017.41 625.261,-1040.02 644.856,-1057.37"/>
<polygon fill="#a8a8a8" stroke="#a8a8a8" points="642.669,-1060.11 652.441,-1064.21 647.355,-1054.91 642.669,-1060.11"/>
<text text-anchor="middle" x="536.272" y="-1006.8" font-family="Times,serif" font-size="14.00">disseminate</text>
</g>
<!-- Research software&#45;&gt;Hardware &amp; system software -->
<g id="edge65" class="edge"><title>Research software&#45;&gt;Hardware &amp; system software</title>
<path fill="none" stroke="#a8a8a8" d="M2138.82,-1150C2166.63,-1150 2198.99,-1150 2230.05,-1150"/>
<polygon fill="#a8a8a8" stroke="#a8a8a8" points="2230.08,-1153.5 2240.08,-1150 2230.08,-1146.5 2230.08,-1153.5"/>
<text text-anchor="middle" x="2212.77" y="-1153.8" font-family="Times,serif" font-size="14.00">use</text>
</g>
<!-- Research software&#45;&gt;Research software -->
<g id="edge92" class="edge"><title>Research software&#45;&gt;Research software</title>
<path fill="none" stroke="black" d="M2036.86,-1167.04C2031.51,-1176.86 2040.25,-1186 2063.08,-1186 2077.36,-1186 2086.12,-1182.43 2089.38,-1177.35"/>
<polygon fill="black" stroke="black" points="2092.88,-1177.01 2089.31,-1167.04 2085.88,-1177.06 2092.88,-1177.01"/>
<text text-anchor="middle" x="2063.08" y="-1189.8" font-family="Times,serif" font-size="14.00">depends</text>
</g>
<!-- Research Software Engineers&#45;&gt;Publishers -->
<g id="edge85" class="edge"><title>Research Software Engineers&#45;&gt;Publishers</title>
<path fill="none" stroke="#a8a8a8" d="M918.91,-805.002C896.39,-795.367 872.084,-780.656 858.057,-759 830.546,-716.528 877.225,-566.338 840.057,-532 780.645,-477.113 183.937,-527.338 112.892,-566 89.8941,-578.515 72.4277,-603.083 61.5184,-622.257"/>
<polygon fill="#a8a8a8" stroke="#a8a8a8" points="58.3812,-620.701 56.6943,-631.16 64.5357,-624.036 58.3812,-620.701"/>
<text text-anchor="middle" x="432.476" y="-524.8" font-family="Times,serif" font-size="14.00">publish</text>
</g>
<!-- Research Software Engineers&#45;&gt;Software engineering processes -->
<g id="edge45" class="edge"><title>Research Software Engineers&#45;&gt;Software engineering processes</title>
<path fill="none" stroke="#a8a8a8" d="M1063.82,-831.903C1077.54,-833.19 1091.55,-834.294 1104.84,-835 1219.96,-841.116 1249.14,-841.851 1364.22,-835 1510.05,-826.318 1553.55,-846.57 1690.61,-796 1699.63,-792.672 1699.72,-787.682 1708.61,-784 1798.34,-746.798 1832.9,-777.572 1922.89,-741 1963.55,-724.478 2005.16,-695.704 2032.16,-675.138"/>
<polygon fill="#a8a8a8" stroke="#a8a8a8" points="2034.62,-677.659 2040.39,-668.774 2030.34,-672.12 2034.62,-677.659"/>
<text text-anchor="middle" x="1536.41" y="-835.8" font-family="Times,serif" font-size="14.00">use</text>
</g>
<!-- Research Software Engineers&#45;&gt;Software engineering processes -->
<g id="edge66" class="edge"><title>Research Software Engineers&#45;&gt;Software engineering processes</title>
<path fill="none" stroke="#a8a8a8" d="M1086.76,-822.433C1165.01,-822.081 1271.3,-818.946 1364.22,-807 1600.16,-776.665 1873.87,-704.344 1996.63,-669.884"/>
<polygon fill="#a8a8a8" stroke="#a8a8a8" points="1997.94,-673.15 2006.62,-667.069 1996.05,-666.412 1997.94,-673.15"/>
<text text-anchor="middle" x="1536.41" y="-796.8" font-family="Times,serif" font-size="14.00">develop</text>
</g>
<!-- Research Software Engineers&#45;&gt;Communities -->
<g id="edge56" class="edge"><title>Research Software Engineers&#45;&gt;Communities</title>
<path fill="none" stroke="#a8a8a8" d="M918.328,-805.06C895.831,-795.46 871.708,-780.762 858.057,-759 836.833,-725.167 865.547,-430.746 840.057,-400 815.838,-370.789 794.395,-386.756 757.057,-380 645.828,-359.874 616.744,-353.262 503.772,-357 433.631,-359.321 353.474,-365.002 298.496,-369.366"/>
<polygon fill="#a8a8a8" stroke="#a8a8a8" points="297.877,-365.904 288.189,-370.192 298.437,-372.882 297.877,-365.904"/>
<text text-anchor="middle" x="536.272" y="-360.8" font-family="Times,serif" font-size="14.00">join</text>
</g>
<!-- Research Software Engineers&#45;&gt;Funding organizations -->
<g id="edge37" class="edge"><title>Research Software Engineers&#45;&gt;Funding organizations</title>
<path fill="none" stroke="#a8a8a8" d="M1025.95,-804.981C1048.46,-795.342 1072.77,-780.633 1086.84,-759 1113.33,-718.245 1089.07,-586.982 1104.84,-541 1121.19,-493.307 1140.97,-489.276 1166.84,-446 1175.41,-431.66 1174.06,-425.767 1184.84,-413 1200.06,-394.965 1220.56,-378.42 1238.02,-365.949"/>
<polygon fill="#a8a8a8" stroke="#a8a8a8" points="1240.11,-368.758 1246.31,-360.165 1236.11,-363.017 1240.11,-368.758"/>
<text text-anchor="middle" x="1135.84" y="-544.8" font-family="Times,serif" font-size="14.00">propose</text>
</g>
<!-- Research Software Engineers&#45;&gt;Code platforms -->
<g id="edge67" class="edge"><title>Research Software Engineers&#45;&gt;Code platforms</title>
<path fill="none" stroke="#a8a8a8" d="M975.662,-839.331C983.079,-892.252 1012.06,-1046.31 1104.84,-1122 1133,-1144.98 1149,-1132.91 1184.84,-1139 1295.44,-1157.79 1324.11,-1155.52 1435.22,-1171 1529.71,-1184.16 1638.82,-1200.91 1706.93,-1211.54"/>
<polygon fill="#a8a8a8" stroke="#a8a8a8" points="1706.66,-1215.04 1717.08,-1213.13 1707.74,-1208.13 1706.66,-1215.04"/>
<text text-anchor="middle" x="1408.72" y="-1174.8" font-family="Times,serif" font-size="14.00">publish</text>
</g>
<!-- Research Software Engineers&#45;&gt;Supporting software -->
<g id="edge9" class="edge"><title>Research Software Engineers&#45;&gt;Supporting software</title>
<path fill="none" stroke="#a8a8a8" d="M974.862,-839.205C981.665,-912.78 1017.95,-1189.67 1184.84,-1304 1248.4,-1347.54 1758.77,-1344.14 1970.52,-1340.78"/>
<polygon fill="#a8a8a8" stroke="#a8a8a8" points="1970.74,-1344.28 1980.68,-1340.62 1970.63,-1337.28 1970.74,-1344.28"/>
<text text-anchor="middle" x="1536.41" y="-1344.8" font-family="Times,serif" font-size="14.00">use</text>
</g>
<!-- Research Software Engineers&#45;&gt;Researchers -->
<g id="edge49" class="edge"><title>Research Software Engineers&#45;&gt;Researchers</title>
<path fill="none" stroke="#a8a8a8" d="M876.397,-830.841C864.175,-831.978 851.824,-833.064 840.057,-834 691.067,-845.854 652.002,-853.135 503.772,-834 498.449,-833.313 492.926,-832.46 487.419,-831.517"/>
<polygon fill="#a8a8a8" stroke="#a8a8a8" points="488.036,-828.072 477.573,-829.737 486.791,-834.96 488.036,-828.072"/>
<text text-anchor="middle" x="671.914" y="-848.8" font-family="Times,serif" font-size="14.00">support</text>
</g>
<!-- Research Software Engineers&#45;&gt;Researchers -->
<g id="edge94" class="edge"><title>Research Software Engineers&#45;&gt;Researchers</title>
<path fill="none" stroke="#ff3030" d="M857.819,-820.789C747.69,-820.584 584.691,-820.281 496.192,-820.117"/>
<polygon fill="#ff3030" stroke="#ff3030" points="496.045,-816.616 486.039,-820.098 496.032,-823.616 496.045,-816.616"/>
<text text-anchor="middle" x="671.914" y="-823.8" font-family="Times,serif" font-size="14.00">are</text>
</g>
<!-- Research Software Engineers&#45;&gt;Research software -->
<g id="edge29" class="edge"><title>Research Software Engineers&#45;&gt;Research software</title>
<path fill="none" stroke="#a8a8a8" d="M985.834,-839.34C1006.59,-868.367 1051.42,-924.144 1104.84,-949 1313.28,-1046 1391.58,-970.685 1619.61,-1000 1754.96,-1017.4 1796.91,-995.524 1922.89,-1048 1967,-1066.37 2010.18,-1101.45 2036.46,-1125.28"/>
<polygon fill="#a8a8a8" stroke="#a8a8a8" points="2034.34,-1128.08 2044.06,-1132.28 2039.08,-1122.93 2034.34,-1128.08"/>
<text text-anchor="middle" x="1536.41" y="-1003.8" font-family="Times,serif" font-size="14.00">reuse</text>
</g>
<!-- Research Software Engineers&#45;&gt;Research software -->
<g id="edge30" class="edge"><title>Research Software Engineers&#45;&gt;Research software</title>
<path fill="none" stroke="#a8a8a8" d="M993.075,-839.037C1017.34,-860.18 1060.85,-894.432 1104.84,-911 1320.49,-992.226 1391.04,-943.674 1619.61,-973 1717.61,-985.575 1742.58,-985.849 1839.89,-1003 1877.07,-1009.55 1889.42,-1003.55 1922.89,-1021 1972.3,-1046.75 2017.17,-1094.77 2041.94,-1124.4"/>
<polygon fill="#a8a8a8" stroke="#a8a8a8" points="2039.32,-1126.73 2048.38,-1132.24 2044.73,-1122.29 2039.32,-1126.73"/>
<text text-anchor="middle" x="1536.41" y="-976.8" font-family="Times,serif" font-size="14.00">design</text>
</g>
<!-- Research Software Engineers&#45;&gt;Research software -->
<g id="edge32" class="edge"><title>Research Software Engineers&#45;&gt;Research software</title>
<path fill="none" stroke="#a8a8a8" d="M1037.82,-835.794C1059.11,-840.531 1082.95,-845.667 1104.84,-850 1467.52,-921.814 1605.64,-811.145 1922.89,-1001 1975.59,-1032.54 2020.79,-1089.76 2044.45,-1123.37"/>
<polygon fill="#a8a8a8" stroke="#a8a8a8" points="2041.7,-1125.55 2050.27,-1131.78 2047.46,-1121.57 2041.7,-1125.55"/>
<text text-anchor="middle" x="1536.41" y="-891.8" font-family="Times,serif" font-size="14.00">develop</text>
</g>
<!-- Research Software Engineers&#45;&gt;Research software -->
<g id="edge48" class="edge"><title>Research Software Engineers&#45;&gt;Research software</title>
<path fill="none" stroke="#a8a8a8" d="M977.023,-839.027C987.326,-885.611 1021.81,-1010.04 1104.84,-1063 1181.62,-1111.98 1832.95,-1099.7 1922.89,-1114 1950.75,-1118.43 1981.13,-1125.96 2006.39,-1133"/>
<polygon fill="#a8a8a8" stroke="#a8a8a8" points="2005.58,-1136.4 2016.15,-1135.76 2007.49,-1129.67 2005.58,-1136.4"/>
<text text-anchor="middle" x="1536.41" y="-1106.8" font-family="Times,serif" font-size="14.00">own</text>
</g>
<!-- Research Software Engineers&#45;&gt;Research software -->
<g id="edge80" class="edge"><title>Research Software Engineers&#45;&gt;Research software</title>
<path fill="none" stroke="#a8a8a8" d="M984.358,-839.096C1004.4,-870.905 1050.1,-937.06 1104.84,-975 1135.92,-996.545 1147.93,-995.739 1184.84,-1004 1405.14,-1053.31 1467.75,-1014.91 1690.61,-1051 1795.23,-1067.94 1820.76,-1076.67 1922.89,-1105 1951.86,-1113.03 1983.8,-1123.26 2009.77,-1131.93"/>
<polygon fill="#a8a8a8" stroke="#a8a8a8" points="2008.82,-1135.31 2019.41,-1135.17 2011.05,-1128.67 2008.82,-1135.31"/>
<text text-anchor="middle" x="1536.41" y="-1044.8" font-family="Times,serif" font-size="14.00">test</text>
</g>
<!-- Research Software Engineers&#45;&gt;Research Software Engineers -->
<g id="edge91" class="edge"><title>Research Software Engineers&#45;&gt;Research Software Engineers</title>
<path fill="none" stroke="black" d="M943.325,-838.782C938.376,-848.315 948.083,-857 972.446,-857 987.293,-857 996.697,-853.775 1000.66,-849.098"/>
<polygon fill="black" stroke="black" points="1004.18,-849.051 1001.57,-838.782 997.203,-848.436 1004.18,-849.051"/>
<text text-anchor="middle" x="972.446" y="-860.8" font-family="Times,serif" font-size="14.00">collaborate</text>
</g>
<!-- Research Software Engineers&#45;&gt;Archival repositories -->
<g id="edge22" class="edge"><title>Research Software Engineers&#45;&gt;Archival repositories</title>
<path fill="none" stroke="#a8a8a8" d="M961.445,-839.167C942.202,-872.518 896.859,-943.771 840.057,-984 815.049,-1001.71 802.142,-992.667 775.057,-1007 748.344,-1021.14 720.887,-1041.7 701.177,-1057.72"/>
<polygon fill="#a8a8a8" stroke="#a8a8a8" points="698.716,-1055.21 693.229,-1064.27 703.171,-1060.61 698.716,-1055.21"/>
<text text-anchor="middle" x="807.557" y="-1010.8" font-family="Times,serif" font-size="14.00">publish</text>
</g>
<!-- Research Software Engineers&#45;&gt;Archival repositories -->
<g id="edge79" class="edge"><title>Research Software Engineers&#45;&gt;Archival repositories</title>
<path fill="none" stroke="#a8a8a8" d="M967.422,-839.156C956.241,-884.919 920.196,-1005.23 840.057,-1060 818.404,-1074.8 791.432,-1081.93 765.517,-1084.95"/>
<polygon fill="#a8a8a8" stroke="#a8a8a8" points="764.882,-1081.5 755.267,-1085.95 765.559,-1088.47 764.882,-1081.5"/>
<text text-anchor="middle" x="807.557" y="-1086.8" font-family="Times,serif" font-size="14.00">disseminate</text>
</g>
<!-- Archival repositories&#45;&gt;Supporting software -->
<g id="edge40" class="edge"><title>Archival repositories&#45;&gt;Supporting software</title>
<path fill="none" stroke="#a8a8a8" d="M672.6,-1100.12C672.776,-1153.81 681.498,-1312.45 775.057,-1380 872.607,-1450.44 1737.57,-1390.39 1857.89,-1391 1886.78,-1391.15 1894.47,-1396.14 1922.89,-1391 1956.39,-1384.95 1992.33,-1371.32 2019.3,-1359.54"/>
<polygon fill="#a8a8a8" stroke="#a8a8a8" points="2020.74,-1362.73 2028.45,-1355.46 2017.89,-1356.33 2020.74,-1362.73"/>
<text text-anchor="middle" x="1408.72" y="-1412.8" font-family="Times,serif" font-size="14.00">archive</text>
</g>
<!-- Archival repositories&#45;&gt;Supporting software -->
<g id="edge50" class="edge"><title>Archival repositories&#45;&gt;Supporting software</title>
<path fill="none" stroke="#a8a8a8" d="M692.946,-1099.77C712.79,-1116.76 744.547,-1142.34 775.057,-1160 945.994,-1258.96 993.313,-1283.71 1184.84,-1332 1472.12,-1404.44 1829.34,-1370.83 1984.33,-1350.51"/>
<polygon fill="#a8a8a8" stroke="#a8a8a8" points="1985.24,-1353.92 1994.69,-1349.13 1984.31,-1346.98 1985.24,-1353.92"/>
<text text-anchor="middle" x="1408.72" y="-1373.8" font-family="Times,serif" font-size="14.00">measure</text>
</g>
<!-- Archival repositories&#45;&gt;Researchers -->
<g id="edge34" class="edge"><title>Archival repositories&#45;&gt;Researchers</title>
<path fill="none" stroke="#a8a8a8" d="M593.688,-1089.13C562.519,-1087.95 528.221,-1080.95 503.772,-1060 440.953,-1006.18 432.702,-899.542 432.591,-848.51"/>
<polygon fill="#a8a8a8" stroke="#a8a8a8" points="436.094,-848.247 432.68,-838.217 429.094,-848.187 436.094,-848.247"/>
<text text-anchor="middle" x="536.272" y="-1089.8" font-family="Times,serif" font-size="14.00">recognize</text>
</g>
<!-- Archival repositories&#45;&gt;Research software -->
<g id="edge31" class="edge"><title>Archival repositories&#45;&gt;Research software</title>
<path fill="none" stroke="#a8a8a8" d="M711.588,-1097.97C730.436,-1105.14 753.614,-1113.09 775.057,-1118 953.692,-1158.95 1002.7,-1143.63 1184.84,-1164 1272.56,-1173.81 1294.09,-1181.1 1382.22,-1186 1594.33,-1197.78 1645.78,-1150.76 1857.89,-1139 1899.54,-1136.69 1945.98,-1138.82 1984.03,-1141.8"/>
<polygon fill="#a8a8a8" stroke="#a8a8a8" points="1983.77,-1145.29 1994.02,-1142.61 1984.34,-1138.31 1983.77,-1145.29"/>
<text text-anchor="middle" x="1408.72" y="-1190.8" font-family="Times,serif" font-size="14.00">archive</text>
</g>
<!-- Archival repositories&#45;&gt;Research software -->
<g id="edge42" class="edge"><title>Archival repositories&#45;&gt;Research software</title>
<path fill="none" stroke="#a8a8a8" d="M699.706,-1099.26C719.775,-1111.55 748.272,-1127.64 775.057,-1138 810.447,-1151.69 820.621,-1151.8 858.057,-1158 1192.33,-1213.32 1282.33,-1225.39 1619.61,-1193 1725.8,-1182.8 1751.69,-1174.1 1857.89,-1164 1897.66,-1160.22 1941.89,-1157.06 1978.98,-1154.7"/>
<polygon fill="#a8a8a8" stroke="#a8a8a8" points="1979.48,-1158.18 1989.24,-1154.06 1979.04,-1151.19 1979.48,-1158.18"/>
<text text-anchor="middle" x="1408.72" y="-1212.8" font-family="Times,serif" font-size="14.00">measure</text>
</g>
<!-- Archival repositories&#45;&gt;Research Software Engineers -->
<g id="edge51" class="edge"><title>Archival repositories&#45;&gt;Research Software Engineers</title>
<path fill="none" stroke="#a8a8a8" d="M715.628,-1066.45C733.919,-1059.81 755.524,-1051.99 775.057,-1045 803.907,-1034.67 815.96,-1040.93 840.057,-1022 900.426,-974.567 941.932,-891.364 960.474,-848.4"/>
<polygon fill="#a8a8a8" stroke="#a8a8a8" points="963.723,-849.702 964.387,-839.128 957.274,-846.98 963.723,-849.702"/>
<text text-anchor="middle" x="807.557" y="-1048.8" font-family="Times,serif" font-size="14.00">recognize</text>
</g>
<!-- Educators&#45;&gt;Software engineering processes -->
<g id="edge54" class="edge"><title>Educators&#45;&gt;Software engineering processes</title>
<path fill="none" stroke="#a8a8a8" d="M1793.19,-402.577C1841.92,-447.597 1976.94,-572.34 2034.99,-625.967"/>
<polygon fill="#a8a8a8" stroke="#a8a8a8" points="2032.93,-628.831 2042.65,-633.046 2037.68,-623.689 2032.93,-628.831"/>
<text text-anchor="middle" x="1890.39" y="-521.8" font-family="Times,serif" font-size="14.00">disseminate</text>
</g>
<!-- Educators&#45;&gt;Communities -->
<g id="edge8" class="edge"><title>Educators&#45;&gt;Communities</title>
<path fill="none" stroke="#a8a8a8" d="M1771.26,-367.812C1765.93,-328.222 1747.6,-233.876 1690.61,-185 1637.43,-139.405 1607.46,-148 1537.41,-148 431.476,-148 431.476,-148 431.476,-148 374.264,-148 350.408,-146.398 308.181,-185 260.649,-228.453 242.255,-305.6 235.565,-346.961"/>
<polygon fill="#a8a8a8" stroke="#a8a8a8" points="232.096,-346.494 234.072,-356.903 239.018,-347.533 232.096,-346.494"/>
<text text-anchor="middle" x="972.446" y="-151.8" font-family="Times,serif" font-size="14.00">educate</text>
</g>
<!-- Educators&#45;&gt;Communities -->
<g id="edge12" class="edge"><title>Educators&#45;&gt;Communities</title>
<path fill="none" stroke="#a8a8a8" d="M1772.12,-367.84C1768.42,-324.15 1753.04,-212.197 1690.61,-150 1639.57,-99.1522 1609.46,-97 1537.41,-97 431.476,-97 431.476,-97 431.476,-97 371.83,-97 348.644,-106.178 308.181,-150 256.013,-206.498 239.443,-300.071 234.291,-346.729"/>
<polygon fill="#a8a8a8" stroke="#a8a8a8" points="230.803,-346.439 233.284,-356.739 237.768,-347.14 230.803,-346.439"/>
<text text-anchor="middle" x="972.446" y="-100.8" font-family="Times,serif" font-size="14.00">join</text>
</g>
<!-- Educators&#45;&gt;Hiring organizations -->
<g id="edge20" class="edge"><title>Educators&#45;&gt;Hiring organizations</title>
<path fill="none" stroke="#a8a8a8" d="M1764.06,-403.805C1750.77,-428.019 1724.07,-471.363 1690.61,-498 1670.51,-513.991 1658.7,-506.359 1637.61,-521 1605.87,-543.026 1576.04,-576.212 1557.32,-599.146"/>
<polygon fill="#a8a8a8" stroke="#a8a8a8" points="1554.47,-597.102 1550.94,-607.091 1559.93,-601.484 1554.47,-597.102"/>
<text text-anchor="middle" x="1664.11" y="-524.8" font-family="Times,serif" font-size="14.00">educate</text>
</g>
<!-- Educators&#45;&gt;Funding organizations -->
<g id="edge71" class="edge"><title>Educators&#45;&gt;Funding organizations</title>
<path fill="none" stroke="#a8a8a8" d="M1732.61,-378.045C1701.71,-372.193 1658.1,-364.359 1619.61,-359 1514.77,-344.407 1488.05,-338.512 1382.22,-340 1379.35,-340.04 1376.44,-340.087 1373.51,-340.138"/>
<polygon fill="#a8a8a8" stroke="#a8a8a8" points="1373.37,-336.64 1363.44,-340.332 1373.51,-343.639 1373.37,-336.64"/>
<text text-anchor="middle" x="1536.41" y="-362.8" font-family="Times,serif" font-size="14.00">educate</text>
</g>
<!-- Educators&#45;&gt;Researchers -->
<g id="edge5" class="edge"><title>Educators&#45;&gt;Researchers</title>
<path fill="none" stroke="#a8a8a8" d="M1753.17,-369.901C1714.1,-340.248 1624.05,-280 1537.41,-280 670.914,-280 670.914,-280 670.914,-280 595.107,-280 552.533,-255.957 503.772,-314 483.362,-338.295 490.442,-567.616 485.772,-599 475.287,-669.465 453.551,-750.555 441.669,-792.169"/>
<polygon fill="#a8a8a8" stroke="#a8a8a8" points="438.28,-791.289 438.873,-801.867 445.006,-793.228 438.28,-791.289"/>
<text text-anchor="middle" x="1135.84" y="-283.8" font-family="Times,serif" font-size="14.00">train</text>
</g>
<!-- Educators&#45;&gt;Researchers -->
<g id="edge58" class="edge"><title>Educators&#45;&gt;Researchers</title>
<path fill="none" stroke="#a8a8a8" d="M1760.2,-368.785C1745.1,-349.77 1718.69,-319.18 1690.61,-299 1631.61,-256.608 1610.06,-242 1537.41,-242 670.914,-242 670.914,-242 670.914,-242 595.362,-242 553.663,-216.263 503.772,-273 479.816,-300.243 490.969,-563.097 485.772,-599 475.565,-669.506 453.715,-750.579 441.741,-792.179"/>
<polygon fill="#a8a8a8" stroke="#a8a8a8" points="438.354,-791.295 438.923,-801.875 445.075,-793.249 438.354,-791.295"/>
<text text-anchor="middle" x="1135.84" y="-245.8" font-family="Times,serif" font-size="14.00">educate</text>
</g>
<!-- Educators&#45;&gt;Research Software Engineers -->
<g id="edge28" class="edge"><title>Educators&#45;&gt;Research Software Engineers</title>
<path fill="none" stroke="#a8a8a8" d="M1734.99,-395.569C1617.47,-425.651 1264.86,-521.28 1184.84,-605 1167.94,-622.679 1181.3,-637.28 1166.84,-657 1146.54,-684.667 1124.82,-675.109 1104.84,-703 1089.61,-724.251 1103.49,-738.849 1086.84,-759 1071.96,-776.996 1050.44,-790.607 1030.14,-800.423"/>
<polygon fill="#a8a8a8" stroke="#a8a8a8" points="1028.54,-797.305 1020.93,-804.668 1031.47,-803.663 1028.54,-797.305"/>
<text text-anchor="middle" x="1408.72" y="-504.8" font-family="Times,serif" font-size="14.00">train</text>
</g>
<!-- Educators&#45;&gt;Research Software Engineers -->
<g id="edge57" class="edge"><title>Educators&#45;&gt;Research Software Engineers</title>
<path fill="none" stroke="#a8a8a8" d="M1728.18,-388.268C1602.99,-395.585 1255.55,-423.121 1184.84,-506 1148.12,-549.033 1200.81,-586.771 1166.84,-632 1148.68,-656.175 1123.45,-636.174 1104.84,-660 1077.3,-695.241 1113.01,-722.736 1086.84,-759 1073.51,-777.459 1052.94,-791.025 1032.96,-800.677"/>
<polygon fill="#a8a8a8" stroke="#a8a8a8" points="1031.49,-797.501 1023.84,-804.84 1034.39,-803.868 1031.49,-797.501"/>
<text text-anchor="middle" x="1408.72" y="-430.8" font-family="Times,serif" font-size="14.00">educate</text>
</g>
</g>
</svg>
