<?xml version="1.0" encoding="UTF-8" standalone="no"?>
<!DOCTYPE svg PUBLIC "-//W3C//DTD SVG 1.1//EN"
 "http://www.w3.org/Graphics/SVG/1.1/DTD/svg11.dtd">
<!-- Generated by graphviz version 2.38.0 (20140413.2041)
 -->
<!-- Title: %3 Pages: 1 -->
<svg width="316pt" height="360pt"
 viewBox="0.00 0.00 315.78 360.00" xmlns="http://www.w3.org/2000/svg" xmlns:xlink="http://www.w3.org/1999/xlink">
<g id="graph0" class="graph" transform="scale(0.16747 0.16747) rotate(0) translate(4 2145.64)">
<title>%3</title>
<polygon fill="white" stroke="none" points="-4,4 -4,-2145.64 1881.58,-2145.64 1881.58,4 -4,4"/>
<!-- Hiring organizations -->
<g id="node1" class="node"><title>Hiring organizations</title>
<ellipse fill="none" stroke="black" cx="83.1926" cy="-470.636" rx="83.3857" ry="18"/>
<text text-anchor="middle" x="83.1926" y="-466.936" font-family="Times,serif" font-size="14.00">Hiring organizations</text>
</g>
<!-- Research Software Engineers -->
<g id="node2" class="node"><title>Research Software Engineers</title>
<ellipse fill="none" stroke="black" cx="369.775" cy="-933.636" rx="114.28" ry="18"/>
<text text-anchor="middle" x="369.775" y="-929.936" font-family="Times,serif" font-size="14.00">Research Software Engineers</text>
</g>
<!-- Hiring organizations&#45;&gt;Research Software Engineers -->
<g id="edge13" class="edge"><title>Hiring organizations&#45;&gt;Research Software Engineers</title>
<path fill="none" stroke="#a8a8a8" d="M97.3143,-488.531C124.589,-526 188.898,-615.771 237.385,-694.636 283.478,-769.605 331.899,-861.695 354.971,-906.528"/>
<polygon fill="#a8a8a8" stroke="#a8a8a8" points="351.951,-908.309 359.63,-915.608 358.179,-905.113 351.951,-908.309"/>
<text text-anchor="middle" x="210.885" y="-698.436" font-family="Times,serif" font-size="14.00">reward</text>
</g>
<!-- Hiring organizations&#45;&gt;Research Software Engineers -->
<g id="edge46" class="edge"><title>Hiring organizations&#45;&gt;Research Software Engineers</title>
<path fill="none" stroke="#a8a8a8" d="M113.454,-487.477C147.493,-508.409 203.355,-547.111 237.385,-593.636 311.574,-695.062 349.724,-843.715 363.107,-905.299"/>
<polygon fill="#a8a8a8" stroke="#a8a8a8" points="359.755,-906.364 365.252,-915.421 366.603,-904.913 359.755,-906.364"/>
<text text-anchor="middle" x="210.885" y="-597.436" font-family="Times,serif" font-size="14.00">hire</text>
</g>
<!-- Hiring organizations&#45;&gt;Research Software Engineers -->
<g id="edge62" class="edge"><title>Hiring organizations&#45;&gt;Research Software Engineers</title>
<path fill="none" stroke="#a8a8a8" d="M87.7754,-488.912C97.5076,-535.5 127.591,-661.324 184.385,-750.636 226.499,-816.862 296.556,-877.608 337.109,-909.726"/>
<polygon fill="#a8a8a8" stroke="#a8a8a8" points="335.022,-912.537 345.052,-915.949 339.339,-907.026 335.022,-912.537"/>
<text text-anchor="middle" x="210.885" y="-821.436" font-family="Times,serif" font-size="14.00">promote</text>
</g>
<!-- Hiring organizations&#45;&gt;Research Software Engineers -->
<g id="edge85" class="edge"><title>Hiring organizations&#45;&gt;Research Software Engineers</title>
<path fill="none" stroke="#a8a8a8" d="M86.9789,-488.836C94.5962,-532.659 119.69,-645.167 184.385,-709.636 202.451,-727.638 217.777,-715.327 237.385,-731.636 296.618,-780.9 338.623,-863.817 357.534,-906.477"/>
<polygon fill="#a8a8a8" stroke="#a8a8a8" points="354.336,-907.9 361.53,-915.678 360.757,-905.111 354.336,-907.9"/>
<text text-anchor="middle" x="210.885" y="-735.436" font-family="Times,serif" font-size="14.00">recognize</text>
</g>
<!-- Researchers -->
<g id="node3" class="node"><title>Researchers</title>
<ellipse fill="none" stroke="black" cx="634.46" cy="-971.636" rx="53.0913" ry="18"/>
<text text-anchor="middle" x="634.46" y="-967.936" font-family="Times,serif" font-size="14.00">Researchers</text>
</g>
<!-- Hiring organizations&#45;&gt;Researchers -->
<g id="edge23" class="edge"><title>Hiring organizations&#45;&gt;Researchers</title>
<path fill="none" stroke="#a8a8a8" d="M133.548,-485.104C165.023,-495.765 205.701,-512.296 237.385,-534.636 412.335,-657.984 565.684,-871.304 616.039,-945.387"/>
<polygon fill="#a8a8a8" stroke="#a8a8a8" points="613.433,-947.781 621.929,-954.11 619.234,-943.864 613.433,-947.781"/>
<text text-anchor="middle" x="369.775" y="-769.436" font-family="Times,serif" font-size="14.00">recognize</text>
</g>
<!-- Hiring organizations&#45;&gt;Researchers -->
<g id="edge52" class="edge"><title>Hiring organizations&#45;&gt;Researchers</title>
<path fill="none" stroke="#a8a8a8" d="M153.302,-460.923C240.656,-452.694 390.858,-452.58 484.165,-530.636 486.266,-532.393 591.93,-847.599 624.2,-943.97"/>
<polygon fill="#a8a8a8" stroke="#a8a8a8" points="620.933,-945.236 627.427,-953.607 627.571,-943.013 620.933,-945.236"/>
<text text-anchor="middle" x="369.775" y="-534.436" font-family="Times,serif" font-size="14.00">reward</text>
</g>
<!-- Hiring organizations&#45;&gt;Researchers -->
<g id="edge80" class="edge"><title>Hiring organizations&#45;&gt;Researchers</title>
<path fill="none" stroke="#a8a8a8" d="M121.213,-454.528C195.704,-424.784 366.604,-370.23 484.165,-438.636 633.332,-525.433 547.103,-645.448 581.165,-814.636 590.538,-861.195 609.613,-913.091 621.951,-944.016"/>
<polygon fill="#a8a8a8" stroke="#a8a8a8" points="618.858,-945.705 625.853,-953.662 625.347,-943.079 618.858,-945.705"/>
<text text-anchor="middle" x="369.775" y="-442.436" font-family="Times,serif" font-size="14.00">promote</text>
</g>
<!-- Hiring organizations&#45;&gt;Researchers -->
<g id="edge86" class="edge"><title>Hiring organizations&#45;&gt;Researchers</title>
<path fill="none" stroke="#a8a8a8" d="M108.47,-453.321C140.341,-431.909 198.892,-397.015 255.385,-386.636 392.374,-361.468 497.734,-322.68 563.165,-445.636 582.448,-481.873 573.609,-774.288 581.165,-814.636 589.908,-861.317 609.166,-913.178 621.713,-944.062"/>
<polygon fill="#a8a8a8" stroke="#a8a8a8" points="618.638,-945.785 625.686,-953.694 625.109,-943.115 618.638,-945.785"/>
<text text-anchor="middle" x="369.775" y="-390.436" font-family="Times,serif" font-size="14.00">hire</text>
</g>
<!-- Archival repositories -->
<g id="node4" class="node"><title>Archival repositories</title>
<ellipse fill="none" stroke="black" cx="873.898" cy="-1576.64" rx="85.2851" ry="18"/>
<text text-anchor="middle" x="873.898" y="-1572.94" font-family="Times,serif" font-size="14.00">Archival repositories</text>
</g>
<!-- Hiring organizations&#45;&gt;Archival repositories -->
<g id="edge43" class="edge"><title>Hiring organizations&#45;&gt;Archival repositories</title>
<path fill="none" stroke="#a8a8a8" d="M84.276,-488.869C85.1162,-632.517 94.0708,-1578.6 184.385,-1661.64 266.767,-1737.38 578.483,-1670.79 687.755,-1646.64 737.654,-1635.61 792.056,-1613.77 828.891,-1597.4"/>
<polygon fill="#a8a8a8" stroke="#a8a8a8" points="830.645,-1600.45 838.329,-1593.16 827.774,-1594.07 830.645,-1600.45"/>
<text text-anchor="middle" x="532.665" y="-1684.44" font-family="Times,serif" font-size="14.00">own</text>
</g>
<!-- Supporting software -->
<g id="node6" class="node"><title>Supporting software</title>
<ellipse fill="none" stroke="black" cx="1130.58" cy="-1793.64" rx="82.5854" ry="18"/>
<text text-anchor="middle" x="1130.58" y="-1789.94" font-family="Times,serif" font-size="14.00">Supporting software</text>
</g>
<!-- Hiring organizations&#45;&gt;Supporting software -->
<g id="edge74" class="edge"><title>Hiring organizations&#45;&gt;Supporting software</title>
<path fill="none" stroke="#a8a8a8" d="M84.3873,-488.733C86.2476,-649.445 102.648,-1829.43 184.385,-1960.64 203.652,-1991.56 220.188,-1992.2 255.385,-2001.64 353.599,-2027.96 382.874,-2010.52 484.165,-2001.64 510.893,-1999.29 934.341,-1924.12 959.04,-1913.64 1014.96,-1889.91 1070.83,-1845.74 1102.7,-1818.11"/>
<polygon fill="#a8a8a8" stroke="#a8a8a8" points="1105.07,-1820.7 1110.28,-1811.47 1100.45,-1815.43 1105.07,-1820.7"/>
<text text-anchor="middle" x="634.46" y="-1988.44" font-family="Times,serif" font-size="14.00">own</text>
</g>
<!-- Software engineering processes -->
<g id="node7" class="node"><title>Software engineering processes</title>
<ellipse fill="none" stroke="black" cx="1755.39" cy="-373.636" rx="122.379" ry="18"/>
<text text-anchor="middle" x="1755.39" y="-369.936" font-family="Times,serif" font-size="14.00">Software engineering processes</text>
</g>
<!-- Hiring organizations&#45;&gt;Software engineering processes -->
<g id="edge35" class="edge"><title>Hiring organizations&#45;&gt;Software engineering processes</title>
<path fill="none" stroke="#a8a8a8" d="M86.4438,-452.231C95.2741,-383.084 129.769,-140.148 184.385,-88.6357 245.191,-31.2854 285.19,-51.6357 368.775,-51.6357 368.775,-51.6357 368.775,-51.6357 1418.17,-51.6357 1507.27,-51.6357 1544.33,-34.6367 1615.21,-88.6357 1701.39,-154.293 1737.31,-287.375 1749.33,-345.457"/>
<polygon fill="#a8a8a8" stroke="#a8a8a8" points="1745.92,-346.269 1751.3,-355.396 1752.79,-344.906 1745.92,-346.269"/>
<text text-anchor="middle" x="873.898" y="-55.4357" font-family="Times,serif" font-size="14.00">require</text>
</g>
<!-- Hiring organizations&#45;&gt;Software engineering processes -->
<g id="edge67" class="edge"><title>Hiring organizations&#45;&gt;Software engineering processes</title>
<path fill="none" stroke="#a8a8a8" d="M86.0799,-452.615C94.0195,-380.155 126.98,-111.093 184.385,-51.6357 243.444,9.53481 283.747,-0.635654 368.775,-0.635654 368.775,-0.635654 368.775,-0.635654 1418.17,-0.635654 1508.62,-0.635654 1546.49,7.19344 1615.21,-51.6357 1707.7,-130.823 1740.62,-282.724 1750.6,-345.461"/>
<polygon fill="#a8a8a8" stroke="#a8a8a8" points="1747.15,-346.06 1752.11,-355.423 1754.07,-345.011 1747.15,-346.06"/>
<text text-anchor="middle" x="873.898" y="-4.43565" font-family="Times,serif" font-size="14.00">formalize</text>
</g>
<!-- Hardware &amp; system software -->
<g id="node9" class="node"><title>Hardware &amp; system software</title>
<ellipse fill="none" stroke="black" cx="1417.17" cy="-1793.64" rx="115.08" ry="18"/>
<text text-anchor="middle" x="1417.17" y="-1789.94" font-family="Times,serif" font-size="14.00">Hardware &amp; system software</text>
</g>
<!-- Hiring organizations&#45;&gt;Hardware &amp; system software -->
<g id="edge17" class="edge"><title>Hiring organizations&#45;&gt;Hardware &amp; system software</title>
<path fill="none" stroke="#a8a8a8" d="M84.2375,-488.689C84.7879,-651.557 91.9858,-1864.4 184.385,-1992.64 324.773,-2187.47 1145.94,-1895.55 1363.36,-1813.87"/>
<polygon fill="#a8a8a8" stroke="#a8a8a8" points="1364.83,-1817.06 1372.96,-1810.25 1362.36,-1810.51 1364.83,-1817.06"/>
<text text-anchor="middle" x="738.255" y="-2017.44" font-family="Times,serif" font-size="14.00">own</text>
</g>
<!-- Research software -->
<g id="node10" class="node"><title>Research software</title>
<ellipse fill="none" stroke="black" cx="1130.58" cy="-1482.64" rx="75.2868" ry="18"/>
<text text-anchor="middle" x="1130.58" y="-1478.94" font-family="Times,serif" font-size="14.00">Research software</text>
</g>
<!-- Hiring organizations&#45;&gt;Research software -->
<g id="edge32" class="edge"><title>Hiring organizations&#45;&gt;Research software</title>
<path fill="none" stroke="#a8a8a8" d="M84.7436,-488.886C89.795,-653.405 129.14,-1875.93 184.385,-1927.64 347.723,-2080.51 465,-1949.39 687.755,-1928.64 809.909,-1917.25 848.882,-1931.64 959.04,-1877.64 996.921,-1859.07 1007.34,-1850.19 1030.04,-1814.64 1038.49,-1801.41 1099.31,-1589.13 1121.5,-1511.11"/>
<polygon fill="#a8a8a8" stroke="#a8a8a8" points="1125,-1511.6 1124.37,-1501.03 1118.27,-1509.69 1125,-1511.6"/>
<text text-anchor="middle" x="634.46" y="-1950.44" font-family="Times,serif" font-size="14.00">measure</text>
</g>
<!-- Hiring organizations&#45;&gt;Research software -->
<g id="edge60" class="edge"><title>Hiring organizations&#45;&gt;Research software</title>
<path fill="none" stroke="#a8a8a8" d="M84.8132,-488.886C89.8834,-634.806 125.799,-1609.41 184.385,-1724.64 255.428,-1864.37 347.901,-1849.82 502.165,-1877.64 528.846,-1882.45 536.307,-1881.33 563.165,-1877.64 616.54,-1870.29 990.322,-1783.04 1030.04,-1746.64 1099.8,-1682.7 1120.96,-1564.91 1127.15,-1510.97"/>
<polygon fill="#a8a8a8" stroke="#a8a8a8" points="1130.65,-1511.08 1128.22,-1500.76 1123.69,-1510.34 1130.65,-1511.08"/>
<text text-anchor="middle" x="634.46" y="-1877.44" font-family="Times,serif" font-size="14.00">own</text>
</g>
<!-- Educators -->
<g id="node12" class="node"><title>Educators</title>
<ellipse fill="none" stroke="black" cx="1417.17" cy="-470.636" rx="46.2923" ry="18"/>
<text text-anchor="middle" x="1417.17" y="-466.936" font-family="Times,serif" font-size="14.00">Educators</text>
</g>
<!-- Hiring organizations&#45;&gt;Educators -->
<g id="edge2" class="edge"><title>Hiring organizations&#45;&gt;Educators</title>
<path fill="none" stroke="#a8a8a8" d="M84.0851,-452.479C84.8445,-399.363 94.9303,-243.383 184.385,-169.636 248.152,-117.066 286.133,-145.636 368.775,-145.636 368.775,-145.636 368.775,-145.636 1131.58,-145.636 1200.21,-145.636 1229.77,-127.735 1284.13,-169.636 1373.87,-238.818 1403.83,-381.783 1412.76,-442.439"/>
<polygon fill="#a8a8a8" stroke="#a8a8a8" points="1409.31,-443.017 1414.15,-452.44 1416.24,-442.054 1409.31,-443.017"/>
<text text-anchor="middle" x="738.255" y="-149.436" font-family="Times,serif" font-size="14.00">recognize</text>
</g>
<!-- Hiring organizations&#45;&gt;Educators -->
<g id="edge44" class="edge"><title>Hiring organizations&#45;&gt;Educators</title>
<path fill="none" stroke="#a8a8a8" d="M86.3493,-452.369C92.569,-408.599 114.794,-297.519 184.385,-245.636 250.64,-196.239 286.133,-221.636 368.775,-221.636 368.775,-221.636 368.775,-221.636 1131.58,-221.636 1200.21,-221.636 1227.41,-206.993 1284.13,-245.636 1355.09,-293.985 1393.36,-394.125 1408.44,-442.827"/>
<polygon fill="#a8a8a8" stroke="#a8a8a8" points="1405.17,-444.1 1411.39,-452.676 1411.88,-442.092 1405.17,-444.1"/>
<text text-anchor="middle" x="738.255" y="-225.436" font-family="Times,serif" font-size="14.00">promote</text>
</g>
<!-- Hiring organizations&#45;&gt;Educators -->
<g id="edge55" class="edge"><title>Hiring organizations&#45;&gt;Educators</title>
<path fill="none" stroke="#a8a8a8" d="M85.4756,-452.34C89.846,-404.944 108.45,-277.562 184.385,-215.636 248.844,-163.069 285.599,-183.636 368.775,-183.636 368.775,-183.636 368.775,-183.636 1131.58,-183.636 1201.14,-183.636 1229.04,-176.162 1284.13,-218.636 1359.51,-276.761 1396.22,-390.189 1409.77,-442.712"/>
<polygon fill="#a8a8a8" stroke="#a8a8a8" points="1406.43,-443.802 1412.24,-452.662 1413.23,-442.113 1406.43,-443.802"/>
<text text-anchor="middle" x="738.255" y="-187.436" font-family="Times,serif" font-size="14.00">hire</text>
</g>
<!-- Hiring organizations&#45;&gt;Educators -->
<g id="edge77" class="edge"><title>Hiring organizations&#45;&gt;Educators</title>
<path fill="none" stroke="#a8a8a8" d="M88.0491,-452.568C97.2546,-414.272 124.369,-325.064 184.385,-283.636 252.397,-236.688 286.133,-259.636 368.775,-259.636 368.775,-259.636 368.775,-259.636 1131.58,-259.636 1254.48,-259.636 1358.9,-388.176 1398.82,-444.603"/>
<polygon fill="#a8a8a8" stroke="#a8a8a8" points="1396.08,-446.797 1404.66,-453.009 1401.83,-442.801 1396.08,-446.797"/>
<text text-anchor="middle" x="738.255" y="-263.436" font-family="Times,serif" font-size="14.00">reward</text>
</g>
<!-- Code platforms -->
<g id="node13" class="node"><title>Code platforms</title>
<ellipse fill="none" stroke="black" cx="873.898" cy="-1706.64" rx="65.7887" ry="18"/>
<text text-anchor="middle" x="873.898" y="-1702.94" font-family="Times,serif" font-size="14.00">Code platforms</text>
</g>
<!-- Hiring organizations&#45;&gt;Code platforms -->
<g id="edge11" class="edge"><title>Hiring organizations&#45;&gt;Code platforms</title>
<path fill="none" stroke="#a8a8a8" d="M84.4276,-489.088C86.4429,-634.483 102.78,-1592.49 184.385,-1687.64 346.188,-1876.28 699.076,-1771.14 826.136,-1724.9"/>
<polygon fill="#a8a8a8" stroke="#a8a8a8" points="827.426,-1728.16 835.599,-1721.42 825.006,-1721.59 827.426,-1728.16"/>
<text text-anchor="middle" x="532.665" y="-1798.44" font-family="Times,serif" font-size="14.00">own</text>
</g>
<!-- Research Software Engineers&#45;&gt;Research Software Engineers -->
<g id="edge92" class="edge"><title>Research Software Engineers&#45;&gt;Research Software Engineers</title>
<path fill="none" stroke="black" d="M341.372,-951.417C336.546,-960.951 346.013,-969.636 369.775,-969.636 384.255,-969.636 393.427,-966.411 397.291,-961.734"/>
<polygon fill="black" stroke="black" points="400.808,-961.681 398.178,-951.417 393.834,-961.081 400.808,-961.681"/>
<text text-anchor="middle" x="369.775" y="-973.436" font-family="Times,serif" font-size="14.00">collaborate</text>
</g>
<!-- Research Software Engineers&#45;&gt;Researchers -->
<g id="edge75" class="edge"><title>Research Software Engineers&#45;&gt;Researchers</title>
<path fill="none" stroke="#a8a8a8" d="M402.872,-950.981C428.814,-963.963 466.719,-980.636 502.165,-987.636 528.796,-992.895 558.828,-989.885 583.442,-985.122"/>
<polygon fill="#a8a8a8" stroke="#a8a8a8" points="584.209,-988.537 593.284,-983.07 582.781,-981.685 584.209,-988.537"/>
<text text-anchor="middle" x="532.665" y="-993.436" font-family="Times,serif" font-size="14.00">support</text>
</g>
<!-- Research Software Engineers&#45;&gt;Researchers -->
<g id="edge94" class="edge"><title>Research Software Engineers&#45;&gt;Researchers</title>
<path fill="none" stroke="#ff3030" d="M454.613,-945.764C493.834,-951.437 539.587,-958.056 574.998,-963.179"/>
<polygon fill="#ff3030" stroke="#ff3030" points="574.768,-966.682 585.166,-964.649 575.77,-959.754 574.768,-966.682"/>
<text text-anchor="middle" x="532.665" y="-964.436" font-family="Times,serif" font-size="14.00">are</text>
</g>
<!-- Research Software Engineers&#45;&gt;Archival repositories -->
<g id="edge8" class="edge"><title>Research Software Engineers&#45;&gt;Archival repositories</title>
<path fill="none" stroke="#a8a8a8" d="M372.674,-951.644C382.023,-1036.98 425.804,-1399.82 502.165,-1478.64 561.689,-1540.07 620.696,-1476.53 687.755,-1529.64 700.852,-1540.01 691.758,-1553.51 705.755,-1562.64 729.874,-1578.35 760.291,-1584.02 788.544,-1585.05"/>
<polygon fill="#a8a8a8" stroke="#a8a8a8" points="788.779,-1588.56 798.839,-1585.23 788.903,-1581.56 788.779,-1588.56"/>
<text text-anchor="middle" x="634.46" y="-1533.44" font-family="Times,serif" font-size="14.00">publish</text>
</g>
<!-- Research Software Engineers&#45;&gt;Archival repositories -->
<g id="edge48" class="edge"><title>Research Software Engineers&#45;&gt;Archival repositories</title>
<path fill="none" stroke="#a8a8a8" d="M373.138,-951.709C384.062,-1032.63 432.134,-1360.78 502.165,-1432.64 562.124,-1494.15 625.33,-1427.62 687.755,-1486.64 705.223,-1503.15 687.85,-1521.6 705.755,-1537.64 718.944,-1549.45 755.9,-1558.7 791.719,-1565.22"/>
<polygon fill="#a8a8a8" stroke="#a8a8a8" points="791.316,-1568.7 801.771,-1566.98 792.528,-1561.8 791.316,-1568.7"/>
<text text-anchor="middle" x="634.46" y="-1490.44" font-family="Times,serif" font-size="14.00">disseminate</text>
</g>
<!-- Publishers -->
<g id="node5" class="node"><title>Publishers</title>
<ellipse fill="none" stroke="black" cx="873.898" cy="-711.636" rx="47.3916" ry="18"/>
<text text-anchor="middle" x="873.898" y="-707.936" font-family="Times,serif" font-size="14.00">Publishers</text>
</g>
<!-- Research Software Engineers&#45;&gt;Publishers -->
<g id="edge57" class="edge"><title>Research Software Engineers&#45;&gt;Publishers</title>
<path fill="none" stroke="#a8a8a8" d="M376.282,-915.491C390.127,-872.983 430.504,-766.348 502.165,-710.636 597.396,-636.599 652.758,-646.595 770.755,-671.636 779.319,-673.453 780.661,-676.301 788.755,-679.636 801.883,-685.044 816.289,-690.644 829.413,-695.618"/>
<polygon fill="#a8a8a8" stroke="#a8a8a8" points="828.565,-699.038 839.157,-699.286 831.032,-692.487 828.565,-699.038"/>
<text text-anchor="middle" x="634.46" y="-667.436" font-family="Times,serif" font-size="14.00">publish</text>
</g>
<!-- Research Software Engineers&#45;&gt;Supporting software -->
<g id="edge29" class="edge"><title>Research Software Engineers&#45;&gt;Supporting software</title>
<path fill="none" stroke="#a8a8a8" d="M378.76,-951.756C400.496,-1002.08 460.662,-1148.32 484.165,-1276.64 492.54,-1322.36 477.369,-1655.31 502.165,-1694.64 512.77,-1711.45 562.431,-1729.98 581.165,-1736.64 591.725,-1740.39 965.885,-1813.55 977.04,-1814.64 1000.48,-1816.92 1006.61,-1817.08 1030.04,-1814.64 1041.71,-1813.42 1054.02,-1811.42 1065.85,-1809.13"/>
<polygon fill="#a8a8a8" stroke="#a8a8a8" points="1066.55,-1812.56 1075.66,-1807.14 1065.17,-1805.7 1066.55,-1812.56"/>
<text text-anchor="middle" x="738.255" y="-1778.44" font-family="Times,serif" font-size="14.00">use</text>
</g>
<!-- Research Software Engineers&#45;&gt;Software engineering processes -->
<g id="edge15" class="edge"><title>Research Software Engineers&#45;&gt;Software engineering processes</title>
<path fill="none" stroke="#a8a8a8" d="M390.351,-915.682C417.117,-889.742 464.098,-838.907 484.165,-784.636 496.169,-752.17 479.965,-500.192 502.165,-473.636 542.447,-425.45 277.119,-373.636 1002.54,-373.636 1002.54,-373.636 1002.54,-373.636 1418.17,-373.636 1485.63,-373.636 1560.7,-373.636 1622.76,-373.636"/>
<polygon fill="#a8a8a8" stroke="#a8a8a8" points="1623,-377.136 1633,-373.636 1623,-370.136 1623,-377.136"/>
<text text-anchor="middle" x="1003.54" y="-377.436" font-family="Times,serif" font-size="14.00">use</text>
</g>
<!-- Research Software Engineers&#45;&gt;Software engineering processes -->
<g id="edge89" class="edge"><title>Research Software Engineers&#45;&gt;Software engineering processes</title>
<path fill="none" stroke="#a8a8a8" d="M390.449,-915.718C417.332,-889.821 464.45,-839.035 484.165,-784.636 514.557,-700.772 458.007,-461.14 502.165,-383.636 536.698,-323.026 563.703,-297.636 633.46,-297.636 633.46,-297.636 633.46,-297.636 1418.17,-297.636 1519.63,-297.636 1634.18,-330.971 1699.97,-353.487"/>
<polygon fill="#a8a8a8" stroke="#a8a8a8" points="1699.12,-356.895 1709.71,-356.863 1701.41,-350.281 1699.12,-356.895"/>
<text text-anchor="middle" x="1003.54" y="-301.436" font-family="Times,serif" font-size="14.00">develop</text>
</g>
<!-- Research Software Engineers&#45;&gt;Research software -->
<g id="edge1" class="edge"><title>Research Software Engineers&#45;&gt;Research software</title>
<path fill="none" stroke="#a8a8a8" d="M378.031,-951.91C397.904,-1002.63 453.749,-1149.78 484.165,-1276.64 496.534,-1328.22 467.895,-1354.14 502.165,-1394.64 530.209,-1427.78 646.542,-1441.99 687.755,-1455.64 695.761,-1458.29 697.707,-1459.12 705.755,-1461.64 734.482,-1470.62 744.422,-1466.06 770.755,-1480.64 780.12,-1485.82 778.751,-1492.83 788.755,-1496.64 859.497,-1523.53 883.375,-1498.23 959.04,-1496.64 990.617,-1495.97 998.548,-1496.04 1030.04,-1493.64 1037.45,-1493.07 1045.17,-1492.39 1052.88,-1491.64"/>
<polygon fill="#a8a8a8" stroke="#a8a8a8" points="1053.38,-1495.11 1062.98,-1490.63 1052.68,-1488.14 1053.38,-1495.11"/>
<text text-anchor="middle" x="738.255" y="-1484.44" font-family="Times,serif" font-size="14.00">own</text>
</g>
<!-- Research Software Engineers&#45;&gt;Research software -->
<g id="edge4" class="edge"><title>Research Software Engineers&#45;&gt;Research software</title>
<path fill="none" stroke="#a8a8a8" d="M377.431,-951.664C395.992,-1002.35 449.248,-1150.62 484.165,-1276.64 493.896,-1311.76 477.669,-1329.65 502.165,-1356.64 534.178,-1391.9 660.27,-1409.51 705.755,-1423.64 734.499,-1432.56 744.422,-1428.06 770.755,-1442.64 780.12,-1447.82 778.89,-1454.48 788.755,-1458.64 873.561,-1494.34 980.732,-1495.59 1052.03,-1491.02"/>
<polygon fill="#a8a8a8" stroke="#a8a8a8" points="1052.55,-1494.5 1062.28,-1490.31 1052.06,-1487.51 1052.55,-1494.5"/>
<text text-anchor="middle" x="738.255" y="-1446.44" font-family="Times,serif" font-size="14.00">design</text>
</g>
<!-- Research Software Engineers&#45;&gt;Research software -->
<g id="edge19" class="edge"><title>Research Software Engineers&#45;&gt;Research software</title>
<path fill="none" stroke="#a8a8a8" d="M372.962,-951.967C380.552,-1008.18 410.508,-1180.47 502.165,-1282.64 569.883,-1358.12 611.448,-1348.36 705.755,-1385.64 733.746,-1396.7 746.344,-1387.03 770.755,-1404.64 782.155,-1412.86 776.835,-1423.19 788.755,-1430.64 794.4,-1434.16 956.774,-1457.9 1055.33,-1472.05"/>
<polygon fill="#a8a8a8" stroke="#a8a8a8" points="1054.86,-1475.52 1065.25,-1473.47 1055.85,-1468.59 1054.86,-1475.52"/>
<text text-anchor="middle" x="738.255" y="-1408.44" font-family="Times,serif" font-size="14.00">test</text>
</g>
<!-- Research Software Engineers&#45;&gt;Research software -->
<g id="edge20" class="edge"><title>Research Software Engineers&#45;&gt;Research software</title>
<path fill="none" stroke="#a8a8a8" d="M388.038,-951.633C436.081,-1001.3 576.329,-1143.4 705.755,-1246.64 733.028,-1268.39 748.541,-1263.74 770.755,-1290.64 783.688,-1306.29 773.092,-1319.71 788.755,-1332.64 848.49,-1381.93 887.693,-1339.51 959.04,-1369.64 1013.11,-1392.47 1068.43,-1432.9 1100.86,-1458.7"/>
<polygon fill="#a8a8a8" stroke="#a8a8a8" points="1099,-1461.7 1108.99,-1465.25 1103.39,-1456.25 1099,-1461.7"/>
<text text-anchor="middle" x="738.255" y="-1294.44" font-family="Times,serif" font-size="14.00">develop</text>
</g>
<!-- Research Software Engineers&#45;&gt;Research software -->
<g id="edge53" class="edge"><title>Research Software Engineers&#45;&gt;Research software</title>
<path fill="none" stroke="#a8a8a8" d="M389.197,-915.837C415.025,-889.692 461.387,-838.179 484.165,-784.636 504.589,-736.627 467.048,-707.22 502.165,-668.636 526.544,-641.85 545.409,-654.407 581.165,-648.636 664.44,-635.194 904.271,-620.482 959.04,-684.636 992.759,-724.132 955.108,-870.562 977.04,-917.636 990.977,-947.548 1015.32,-940.1 1030.04,-969.636 1057.63,-1025 1037.46,-1046.69 1048.04,-1107.64 1070.72,-1238.26 1107.41,-1392.39 1122.63,-1454.56"/>
<polygon fill="#a8a8a8" stroke="#a8a8a8" points="1119.26,-1455.53 1125.04,-1464.4 1126.06,-1453.86 1119.26,-1455.53"/>
<text text-anchor="middle" x="738.255" y="-641.436" font-family="Times,serif" font-size="14.00">reuse</text>
</g>
<!-- Communities -->
<g id="node11" class="node"><title>Communities</title>
<ellipse fill="none" stroke="black" cx="1130.58" cy="-702.636" rx="59.2899" ry="18"/>
<text text-anchor="middle" x="1130.58" y="-698.936" font-family="Times,serif" font-size="14.00">Communities</text>
</g>
<!-- Research Software Engineers&#45;&gt;Communities -->
<g id="edge56" class="edge"><title>Research Software Engineers&#45;&gt;Communities</title>
<path fill="none" stroke="#a8a8a8" d="M390.14,-915.602C416.654,-889.567 463.338,-838.619 484.165,-784.636 500.944,-741.144 469.643,-609.034 502.165,-575.636 543.089,-533.609 978.467,-539.687 1030.04,-567.636 1073.66,-591.274 1103.31,-643.243 1118.26,-675.364"/>
<polygon fill="#a8a8a8" stroke="#a8a8a8" points="1115.14,-676.954 1122.43,-684.642 1121.53,-674.085 1115.14,-676.954"/>
<text text-anchor="middle" x="738.255" y="-549.436" font-family="Times,serif" font-size="14.00">join</text>
</g>
<!-- Research Software Engineers&#45;&gt;Code platforms -->
<g id="edge84" class="edge"><title>Research Software Engineers&#45;&gt;Code platforms</title>
<path fill="none" stroke="#a8a8a8" d="M373.266,-951.856C386.113,-1044.52 446.441,-1463.71 502.165,-1581.64 520.522,-1620.48 537.953,-1621.84 563.165,-1656.64 571.846,-1668.62 568.456,-1677.06 581.165,-1684.64 650.19,-1725.76 745.307,-1724.46 807.912,-1717.47"/>
<polygon fill="#a8a8a8" stroke="#a8a8a8" points="808.543,-1720.92 818.055,-1716.25 807.71,-1713.97 808.543,-1720.92"/>
<text text-anchor="middle" x="634.46" y="-1721.44" font-family="Times,serif" font-size="14.00">publish</text>
</g>
<!-- Funding organizations -->
<g id="node14" class="node"><title>Funding organizations</title>
<ellipse fill="none" stroke="black" cx="1755.39" cy="-1062.64" rx="89.8845" ry="18"/>
<text text-anchor="middle" x="1755.39" y="-1058.94" font-family="Times,serif" font-size="14.00">Funding organizations</text>
</g>
<!-- Research Software Engineers&#45;&gt;Funding organizations -->
<g id="edge68" class="edge"><title>Research Software Engineers&#45;&gt;Funding organizations</title>
<path fill="none" stroke="#a8a8a8" d="M378.846,-951.74C400.802,-1002.03 461.476,-1148.17 484.165,-1276.64 489.897,-1309.09 484.664,-1841.71 502.165,-1869.64 551.585,-1948.5 623.905,-1898.92 687.755,-1966.64 701.13,-1980.82 691.015,-1993.88 705.755,-2006.64 809.5,-2096.43 865.333,-2091.64 1002.54,-2091.64 1002.54,-2091.64 1002.54,-2091.64 1418.17,-2091.64 1511.71,-2091.64 1563.42,-2095.54 1615.21,-2017.64 1720.41,-1859.38 1748.46,-1231.75 1753.48,-1090.82"/>
<polygon fill="#a8a8a8" stroke="#a8a8a8" points="1756.98,-1090.93 1753.83,-1080.82 1749.99,-1090.69 1756.98,-1090.93"/>
<text text-anchor="middle" x="1003.54" y="-2095.44" font-family="Times,serif" font-size="14.00">propose</text>
</g>
<!-- Researchers&#45;&gt;Research Software Engineers -->
<g id="edge54" class="edge"><title>Researchers&#45;&gt;Research Software Engineers</title>
<path fill="none" stroke="#a8a8a8" d="M609.899,-955.575C596.767,-947.592 579.756,-938.781 563.165,-934.636 537.017,-928.102 508.238,-925.588 481.085,-925.209"/>
<polygon fill="#a8a8a8" stroke="#a8a8a8" points="480.782,-921.707 470.767,-925.164 480.752,-928.707 480.782,-921.707"/>
<text text-anchor="middle" x="532.665" y="-938.436" font-family="Times,serif" font-size="14.00">collaborate</text>
</g>
<!-- Researchers&#45;&gt;Research Software Engineers -->
<g id="edge95" class="edge"><title>Researchers&#45;&gt;Research Software Engineers</title>
<path fill="none" stroke="#ff3030" d="M620.714,-953.957C608.132,-938.157 587.311,-916.088 563.165,-906.636 516.741,-888.462 459.787,-900.276 419.94,-913.508"/>
<polygon fill="#ff3030" stroke="#ff3030" points="418.753,-910.215 410.448,-916.793 421.043,-916.829 418.753,-910.215"/>
<text text-anchor="middle" x="532.665" y="-910.436" font-family="Times,serif" font-size="14.00">are</text>
</g>
<!-- Researchers&#45;&gt;Archival repositories -->
<g id="edge10" class="edge"><title>Researchers&#45;&gt;Archival repositories</title>
<path fill="none" stroke="#a8a8a8" d="M637.326,-989.643C646.739,-1079.87 689.225,-1479.26 705.755,-1499.64 725.061,-1523.43 742.69,-1510.33 770.755,-1522.64 792.384,-1532.12 815.722,-1544.3 834.624,-1554.69"/>
<polygon fill="#a8a8a8" stroke="#a8a8a8" points="833.077,-1557.84 843.519,-1559.63 836.475,-1551.72 833.077,-1557.84"/>
<text text-anchor="middle" x="738.255" y="-1526.44" font-family="Times,serif" font-size="14.00">publish</text>
</g>
<!-- Researchers&#45;&gt;Archival repositories -->
<g id="edge26" class="edge"><title>Researchers&#45;&gt;Archival repositories</title>
<path fill="none" stroke="#a8a8a8" d="M636.507,-989.928C640.727,-1057.57 658.587,-1292.51 705.755,-1347.64 725.678,-1370.92 749.028,-1349.03 770.755,-1370.64 787.502,-1387.29 779.123,-1399.07 788.755,-1420.64 809.57,-1467.23 838.729,-1518.93 856.685,-1549.56"/>
<polygon fill="#a8a8a8" stroke="#a8a8a8" points="853.781,-1551.52 861.877,-1558.36 859.811,-1547.97 853.781,-1551.52"/>
<text text-anchor="middle" x="738.255" y="-1374.44" font-family="Times,serif" font-size="14.00">disseminate</text>
</g>
<!-- Researchers&#45;&gt;Publishers -->
<g id="edge14" class="edge"><title>Researchers&#45;&gt;Publishers</title>
<path fill="none" stroke="#a8a8a8" d="M640.684,-953.536C649.578,-925.825 670.237,-872.917 705.755,-842.636 729.075,-822.754 750.283,-842.438 770.755,-819.636 793.946,-793.807 765.868,-769.733 788.755,-743.636 797.212,-733.993 808.893,-727.244 820.863,-722.525"/>
<polygon fill="#a8a8a8" stroke="#a8a8a8" points="822.188,-725.769 830.468,-719.159 819.873,-719.163 822.188,-725.769"/>
<text text-anchor="middle" x="738.255" y="-846.436" font-family="Times,serif" font-size="14.00">publish</text>
</g>
<!-- Researchers&#45;&gt;Supporting software -->
<g id="edge41" class="edge"><title>Researchers&#45;&gt;Supporting software</title>
<path fill="none" stroke="#a8a8a8" d="M637.397,-990.021C644.04,-1049.99 667.62,-1238.66 705.755,-1284.64 725.838,-1308.85 745.198,-1294.3 770.755,-1312.64 780.472,-1319.61 779.941,-1324.55 788.755,-1332.64 887.758,-1423.42 950.511,-1406.39 1030.04,-1514.64 1060.55,-1556.16 1104.3,-1703.65 1121.86,-1765.75"/>
<polygon fill="#a8a8a8" stroke="#a8a8a8" points="1118.56,-1766.96 1124.63,-1775.64 1125.3,-1765.06 1118.56,-1766.96"/>
<text text-anchor="middle" x="873.898" y="-1446.44" font-family="Times,serif" font-size="14.00">use</text>
</g>
<!-- Researchers&#45;&gt;Software engineering processes -->
<g id="edge71" class="edge"><title>Researchers&#45;&gt;Software engineering processes</title>
<path fill="none" stroke="#a8a8a8" d="M686.172,-967.004C876.945,-949.157 1544.26,-882.731 1615.21,-820.636 1742.84,-708.921 1754.88,-482.305 1754.97,-402.352"/>
<polygon fill="#a8a8a8" stroke="#a8a8a8" points="1758.47,-402.052 1754.91,-392.071 1751.47,-402.09 1758.47,-402.052"/>
<text text-anchor="middle" x="1130.58" y="-931.436" font-family="Times,serif" font-size="14.00">research</text>
</g>
<!-- Researchers&#45;&gt;Research software -->
<g id="edge3" class="edge"><title>Researchers&#45;&gt;Research software</title>
<path fill="none" stroke="#a8a8a8" d="M642.304,-989.787C652.349,-1013.78 673.465,-1055.47 705.755,-1076.64 828.99,-1157.42 927.213,-1040.09 1030.04,-1145.64 1115.36,-1233.21 1128.1,-1390.19 1129.61,-1454.25"/>
<polygon fill="#a8a8a8" stroke="#a8a8a8" points="1126.11,-1454.46 1129.77,-1464.4 1133.11,-1454.35 1126.11,-1454.46"/>
<text text-anchor="middle" x="873.898" y="-1110.44" font-family="Times,serif" font-size="14.00">research</text>
</g>
<!-- Researchers&#45;&gt;Research software -->
<g id="edge21" class="edge"><title>Researchers&#45;&gt;Research software</title>
<path fill="none" stroke="#a8a8a8" d="M635.484,-989.824C636.505,-1034.77 645.172,-1152.43 705.755,-1221.64 726.475,-1245.3 747.227,-1228.76 770.755,-1249.64 782.673,-1260.21 776.036,-1271.04 788.755,-1280.64 877.067,-1347.24 938.864,-1279.01 1030.04,-1341.64 1071.9,-1370.39 1101.96,-1422.86 1117.5,-1455.05"/>
<polygon fill="#a8a8a8" stroke="#a8a8a8" points="1114.44,-1456.77 1121.85,-1464.34 1120.78,-1453.8 1114.44,-1456.77"/>
<text text-anchor="middle" x="873.898" y="-1317.44" font-family="Times,serif" font-size="14.00">use</text>
</g>
<!-- Researchers&#45;&gt;Research software -->
<g id="edge65" class="edge"><title>Researchers&#45;&gt;Research software</title>
<path fill="none" stroke="#a8a8a8" d="M636.039,-989.664C638.333,-1031.49 649.691,-1136.16 705.755,-1196.64 719.25,-1211.19 769.691,-1224.11 788.755,-1229.64 862.719,-1251.07 888.383,-1231.01 959.04,-1261.64 994.929,-1277.19 1003.8,-1284.63 1030.04,-1313.64 1069.82,-1357.6 1101.54,-1419.95 1117.76,-1455.33"/>
<polygon fill="#a8a8a8" stroke="#a8a8a8" points="1114.62,-1456.87 1121.92,-1464.55 1121,-1454 1114.62,-1456.87"/>
<text text-anchor="middle" x="873.898" y="-1265.44" font-family="Times,serif" font-size="14.00">develop</text>
</g>
<!-- Researchers&#45;&gt;Research software -->
<g id="edge69" class="edge"><title>Researchers&#45;&gt;Research software</title>
<path fill="none" stroke="#a8a8a8" d="M635.965,-989.709C638.126,-1029.47 649.257,-1124.74 705.755,-1171.64 749.576,-1208.01 906.72,-1188.15 959.04,-1210.64 995.713,-1226.4 1005.23,-1234.37 1030.04,-1265.64 1077.39,-1325.3 1108.06,-1411.12 1121.59,-1454.81"/>
<polygon fill="#a8a8a8" stroke="#a8a8a8" points="1118.27,-1455.91 1124.51,-1464.46 1124.97,-1453.88 1118.27,-1455.91"/>
<text text-anchor="middle" x="873.898" y="-1214.44" font-family="Times,serif" font-size="14.00">cite</text>
</g>
<!-- Researchers&#45;&gt;Research software -->
<g id="edge72" class="edge"><title>Researchers&#45;&gt;Research software</title>
<path fill="none" stroke="#a8a8a8" d="M640.18,-989.981C648.501,-1018.6 668.53,-1073.69 705.755,-1103.64 824.458,-1199.11 931.126,-1098.78 1030.04,-1214.64 1092,-1287.21 1117.04,-1401.93 1125.67,-1454.56"/>
<polygon fill="#a8a8a8" stroke="#a8a8a8" points="1122.22,-1455.18 1127.22,-1464.52 1129.14,-1454.1 1122.22,-1455.18"/>
<text text-anchor="middle" x="873.898" y="-1166.44" font-family="Times,serif" font-size="14.00">reproduce</text>
</g>
<!-- Researchers&#45;&gt;Communities -->
<g id="edge28" class="edge"><title>Researchers&#45;&gt;Communities</title>
<path fill="none" stroke="#a8a8a8" d="M663.975,-956.487C676.67,-949.885 691.862,-942.177 705.755,-935.636 734.214,-922.237 746.416,-927.561 770.755,-907.636 781.631,-898.733 777.052,-889.417 788.755,-881.636 880.029,-820.948 937.12,-888.77 1030.04,-830.636 1069.66,-805.845 1099.76,-759.371 1116.02,-729.766"/>
<polygon fill="#a8a8a8" stroke="#a8a8a8" points="1119.19,-731.266 1120.81,-720.796 1113.01,-727.97 1119.19,-731.266"/>
<text text-anchor="middle" x="873.898" y="-885.436" font-family="Times,serif" font-size="14.00">join</text>
</g>
<!-- Researchers&#45;&gt;Funding organizations -->
<g id="edge50" class="edge"><title>Researchers&#45;&gt;Funding organizations</title>
<path fill="none" stroke="#a8a8a8" d="M668.215,-985.582C679.88,-990.055 693.23,-994.626 705.755,-997.636 823.802,-1026 856.021,-1019.94 977.04,-1029.64 1220.46,-1049.13 1507.75,-1057.55 1655.56,-1060.81"/>
<polygon fill="#a8a8a8" stroke="#a8a8a8" points="1655.88,-1064.32 1665.95,-1061.04 1656.03,-1057.32 1655.88,-1064.32"/>
<text text-anchor="middle" x="1130.58" y="-1048.44" font-family="Times,serif" font-size="14.00">propose</text>
</g>
<!-- Archival repositories&#45;&gt;Research Software Engineers -->
<g id="edge83" class="edge"><title>Archival repositories&#45;&gt;Research Software Engineers</title>
<path fill="none" stroke="#a8a8a8" d="M797.931,-1584.82C788.786,-1585.57 779.565,-1586.21 770.755,-1586.64 741.901,-1588.04 734.263,-1591.31 705.755,-1586.64 704.854,-1586.49 582.011,-1544.98 581.165,-1544.64 545.081,-1529.94 526.48,-1537.08 502.165,-1506.64 432.653,-1419.6 386.159,-1064.42 373.965,-961.627"/>
<polygon fill="#a8a8a8" stroke="#a8a8a8" points="377.44,-961.21 372.8,-951.686 370.488,-962.025 377.44,-961.21"/>
<text text-anchor="middle" x="634.46" y="-1584.44" font-family="Times,serif" font-size="14.00">recognize</text>
</g>
<!-- Archival repositories&#45;&gt;Researchers -->
<g id="edge66" class="edge"><title>Archival repositories&#45;&gt;Researchers</title>
<path fill="none" stroke="#a8a8a8" d="M860.906,-1558.75C842.581,-1530.59 807.743,-1473.65 788.755,-1420.64 774.707,-1381.41 798.843,-1359.41 770.755,-1328.64 750.465,-1306.41 726.177,-1331.75 705.755,-1309.64 663.883,-1264.3 643.889,-1073.19 637.67,-1000.17"/>
<polygon fill="#a8a8a8" stroke="#a8a8a8" points="641.133,-999.567 636.82,-989.889 634.157,-1000.14 641.133,-999.567"/>
<text text-anchor="middle" x="738.255" y="-1332.44" font-family="Times,serif" font-size="14.00">recognize</text>
</g>
<!-- Archival repositories&#45;&gt;Supporting software -->
<g id="edge37" class="edge"><title>Archival repositories&#45;&gt;Supporting software</title>
<path fill="none" stroke="#a8a8a8" d="M890.777,-1594.5C909.718,-1614.98 943.101,-1648.56 977.04,-1670.64 998.566,-1684.64 1008.83,-1679.17 1030.04,-1693.64 1060.73,-1714.56 1089.98,-1745.78 1108.74,-1767.76"/>
<polygon fill="#a8a8a8" stroke="#a8a8a8" points="1106.28,-1770.28 1115.39,-1775.69 1111.65,-1765.78 1106.28,-1770.28"/>
<text text-anchor="middle" x="1003.54" y="-1697.44" font-family="Times,serif" font-size="14.00">measure</text>
</g>
<!-- Archival repositories&#45;&gt;Supporting software -->
<g id="edge90" class="edge"><title>Archival repositories&#45;&gt;Supporting software</title>
<path fill="none" stroke="#a8a8a8" d="M890.524,-1594.31C907.997,-1614.4 936.762,-1648.45 959.04,-1679.64 967.857,-1691.98 965.481,-1698.81 977.04,-1708.64 996.475,-1725.15 1007.4,-1718.88 1030.04,-1730.64 1053.02,-1742.57 1077.62,-1758.11 1096.61,-1770.77"/>
<polygon fill="#a8a8a8" stroke="#a8a8a8" points="1094.67,-1773.68 1104.92,-1776.36 1098.58,-1767.87 1094.67,-1773.68"/>
<text text-anchor="middle" x="1003.54" y="-1734.44" font-family="Times,serif" font-size="14.00">archive</text>
</g>
<!-- Archival repositories&#45;&gt;Research software -->
<g id="edge59" class="edge"><title>Archival repositories&#45;&gt;Research software</title>
<path fill="none" stroke="#a8a8a8" d="M958.212,-1573.76C982.048,-1570.86 1007.63,-1565.68 1030.04,-1556.64 1058.17,-1545.28 1085.48,-1524.01 1104.36,-1507.18"/>
<polygon fill="#a8a8a8" stroke="#a8a8a8" points="1106.89,-1509.61 1111.91,-1500.28 1102.17,-1504.44 1106.89,-1509.61"/>
<text text-anchor="middle" x="1003.54" y="-1573.44" font-family="Times,serif" font-size="14.00">measure</text>
</g>
<!-- Archival repositories&#45;&gt;Research software -->
<g id="edge87" class="edge"><title>Archival repositories&#45;&gt;Research software</title>
<path fill="none" stroke="#a8a8a8" d="M915.583,-1560.88C934.272,-1553.7 956.747,-1545.15 977.04,-1537.64 1000.51,-1528.95 1006.5,-1527.11 1030.04,-1518.64 1045.79,-1512.96 1062.94,-1506.77 1078.49,-1501.14"/>
<polygon fill="#a8a8a8" stroke="#a8a8a8" points="1079.73,-1504.42 1087.94,-1497.73 1077.35,-1497.84 1079.73,-1504.42"/>
<text text-anchor="middle" x="1003.54" y="-1541.44" font-family="Times,serif" font-size="14.00">archive</text>
</g>
<!-- Publishers&#45;&gt;Research Software Engineers -->
<g id="edge24" class="edge"><title>Publishers&#45;&gt;Research Software Engineers</title>
<path fill="none" stroke="#a8a8a8" d="M827.09,-714.858C792.857,-718.321 745.343,-725.388 705.755,-739.636 586.063,-782.712 460.237,-868.147 402.783,-909.752"/>
<polygon fill="#a8a8a8" stroke="#a8a8a8" points="400.504,-907.082 394.485,-915.801 404.628,-912.738 400.504,-907.082"/>
<text text-anchor="middle" x="634.46" y="-799.436" font-family="Times,serif" font-size="14.00">reward</text>
</g>
<!-- Publishers&#45;&gt;Research Software Engineers -->
<g id="edge81" class="edge"><title>Publishers&#45;&gt;Research Software Engineers</title>
<path fill="none" stroke="#a8a8a8" d="M829.662,-705.057C770.703,-698.059 663.058,-692.416 581.165,-728.636 492.84,-767.7 420.061,-861.15 388.161,-907.145"/>
<polygon fill="#a8a8a8" stroke="#a8a8a8" points="385.081,-905.449 382.334,-915.682 390.862,-909.396 385.081,-905.449"/>
<text text-anchor="middle" x="634.46" y="-732.436" font-family="Times,serif" font-size="14.00">recognize</text>
</g>
<!-- Publishers&#45;&gt;Researchers -->
<g id="edge6" class="edge"><title>Publishers&#45;&gt;Researchers</title>
<path fill="none" stroke="#a8a8a8" d="M832.189,-720.278C817.129,-725.114 800.808,-732.499 788.755,-743.636 775.03,-756.318 784.628,-769.114 770.755,-781.636 748.008,-802.168 728.047,-783.608 705.755,-804.636 665.664,-842.454 647.523,-906.729 640.066,-943.533"/>
<polygon fill="#a8a8a8" stroke="#a8a8a8" points="636.586,-943.1 638.159,-953.578 643.463,-944.406 636.586,-943.1"/>
<text text-anchor="middle" x="738.255" y="-808.436" font-family="Times,serif" font-size="14.00">reward</text>
</g>
<!-- Publishers&#45;&gt;Researchers -->
<g id="edge70" class="edge"><title>Publishers&#45;&gt;Researchers</title>
<path fill="none" stroke="#a8a8a8" d="M837.062,-723.185C817.512,-729.404 792.857,-737.115 770.755,-743.636 742.004,-752.118 727.505,-741.007 705.755,-761.636 692.157,-774.534 658.488,-889.628 643.215,-943.745"/>
<polygon fill="#a8a8a8" stroke="#a8a8a8" points="639.752,-943.133 640.418,-953.707 646.491,-945.026 639.752,-943.133"/>
<text text-anchor="middle" x="738.255" y="-765.436" font-family="Times,serif" font-size="14.00">recognize</text>
</g>
<!-- Publishers&#45;&gt;Research software -->
<g id="edge22" class="edge"><title>Publishers&#45;&gt;Research software</title>
<path fill="none" stroke="#a8a8a8" d="M918.35,-718.33C933.574,-722.912 949.289,-730.632 959.04,-743.636 989.266,-783.943 963.882,-921.003 977.04,-969.636 991.214,-1022.02 1011.66,-1028.58 1030.04,-1079.64 1079.3,-1216.45 1112.74,-1387.94 1124.71,-1454.46"/>
<polygon fill="#a8a8a8" stroke="#a8a8a8" points="1121.31,-1455.34 1126.5,-1464.57 1128.2,-1454.11 1121.31,-1455.34"/>
<text text-anchor="middle" x="1003.54" y="-1083.44" font-family="Times,serif" font-size="14.00">recognize</text>
</g>
<!-- Publishers&#45;&gt;Communities -->
<g id="edge61" class="edge"><title>Publishers&#45;&gt;Communities</title>
<path fill="none" stroke="#a8a8a8" d="M921.315,-709.995C960.449,-708.612 1016.99,-706.614 1061.29,-705.049"/>
<polygon fill="#a8a8a8" stroke="#a8a8a8" points="1061.54,-708.543 1071.41,-704.691 1061.29,-701.547 1061.54,-708.543"/>
<text text-anchor="middle" x="1003.54" y="-711.436" font-family="Times,serif" font-size="14.00">address</text>
</g>
<!-- Supporting software&#45;&gt;Hardware &amp; system software -->
<g id="edge36" class="edge"><title>Supporting software&#45;&gt;Hardware &amp; system software</title>
<path fill="none" stroke="#a8a8a8" d="M1213.13,-1793.64C1237.67,-1793.64 1265.18,-1793.64 1291.83,-1793.64"/>
<polygon fill="#a8a8a8" stroke="#a8a8a8" points="1292,-1797.14 1302,-1793.64 1292,-1790.14 1292,-1797.14"/>
<text text-anchor="middle" x="1257.63" y="-1797.44" font-family="Times,serif" font-size="14.00">use</text>
</g>
<!-- Indices -->
<g id="node8" class="node"><title>Indices</title>
<ellipse fill="none" stroke="black" cx="83.1926" cy="-2099.64" rx="36.2938" ry="18"/>
<text text-anchor="middle" x="83.1926" y="-2095.94" font-family="Times,serif" font-size="14.00">Indices</text>
</g>
<!-- Indices&#45;&gt;Research Software Engineers -->
<g id="edge31" class="edge"><title>Indices&#45;&gt;Research Software Engineers</title>
<path fill="none" stroke="#a8a8a8" d="M88.5489,-2081.79C120.778,-1949.74 322.047,-1125.09 361.916,-961.737"/>
<polygon fill="#a8a8a8" stroke="#a8a8a8" points="365.335,-962.493 364.306,-951.948 358.534,-960.833 365.335,-962.493"/>
<text text-anchor="middle" x="210.885" y="-1658.44" font-family="Times,serif" font-size="14.00">recognize</text>
</g>
<!-- Indices&#45;&gt;Researchers -->
<g id="edge27" class="edge"><title>Indices&#45;&gt;Researchers</title>
<path fill="none" stroke="#a8a8a8" d="M92.8203,-2081.92C155.718,-1952.75 543.403,-1156.58 620.235,-998.796"/>
<polygon fill="#a8a8a8" stroke="#a8a8a8" points="623.415,-1000.26 624.646,-989.737 617.121,-997.196 623.415,-1000.26"/>
<text text-anchor="middle" x="369.775" y="-1741.44" font-family="Times,serif" font-size="14.00">recognize</text>
</g>
<!-- Indices&#45;&gt;Research software -->
<g id="edge63" class="edge"><title>Indices&#45;&gt;Research software</title>
<path fill="none" stroke="#a8a8a8" d="M117.076,-2106.31C209.267,-2123.69 477.231,-2165.1 687.755,-2106.64 730.525,-2094.76 1005.67,-1937.73 1030.04,-1900.64 1063.04,-1850.41 1035.72,-1825.45 1048.04,-1766.64 1068.07,-1671.05 1103.41,-1560.56 1120.21,-1510.21"/>
<polygon fill="#a8a8a8" stroke="#a8a8a8" points="1123.54,-1511.27 1123.4,-1500.68 1116.9,-1509.05 1123.54,-1511.27"/>
<text text-anchor="middle" x="634.46" y="-2130.44" font-family="Times,serif" font-size="14.00">index</text>
</g>
<!-- Research software&#45;&gt;Hardware &amp; system software -->
<g id="edge88" class="edge"><title>Research software&#45;&gt;Hardware &amp; system software</title>
<path fill="none" stroke="#a8a8a8" d="M1147.7,-1500.25C1195.52,-1552.51 1336.79,-1706.89 1392.85,-1768.16"/>
<polygon fill="#a8a8a8" stroke="#a8a8a8" points="1390.54,-1770.82 1399.87,-1775.83 1395.71,-1766.09 1390.54,-1770.82"/>
<text text-anchor="middle" x="1257.63" y="-1650.44" font-family="Times,serif" font-size="14.00">use</text>
</g>
<!-- Research software&#45;&gt;Research software -->
<g id="edge93" class="edge"><title>Research software&#45;&gt;Research software</title>
<path fill="none" stroke="black" d="M1108.09,-1500.05C1103.89,-1509.72 1111.39,-1518.64 1130.58,-1518.64 1142.58,-1518.64 1150.01,-1515.15 1152.87,-1510.18"/>
<polygon fill="black" stroke="black" points="1156.37,-1510.12 1153.08,-1500.05 1149.37,-1509.97 1156.37,-1510.12"/>
<text text-anchor="middle" x="1130.58" y="-1522.44" font-family="Times,serif" font-size="14.00">depends</text>
</g>
<!-- Communities&#45;&gt;Research Software Engineers -->
<g id="edge51" class="edge"><title>Communities&#45;&gt;Research Software Engineers</title>
<path fill="none" stroke="#a8a8a8" d="M1124.66,-684.611C1114.02,-649.441 1085.23,-572.102 1030.04,-537.636 1028.86,-536.9 814.305,-506.157 705.755,-514.636 660.097,-518.202 533.221,-512.976 502.165,-546.636 466.198,-585.618 502.998,-735.052 484.165,-784.636 465.385,-834.079 424.674,-880.86 397.496,-908.391"/>
<polygon fill="#a8a8a8" stroke="#a8a8a8" points="394.838,-906.098 390.218,-915.632 399.776,-911.06 394.838,-906.098"/>
<text text-anchor="middle" x="738.255" y="-518.436" font-family="Times,serif" font-size="14.00">recognize</text>
</g>
<!-- Communities&#45;&gt;Research Software Engineers -->
<g id="edge64" class="edge"><title>Communities&#45;&gt;Research Software Engineers</title>
<path fill="none" stroke="#a8a8a8" d="M1095.27,-688.071C1032.35,-662.242 893.657,-609.37 770.755,-590.636 742.196,-586.282 734.599,-589.012 705.755,-590.636 614.839,-595.755 566.309,-549.002 502.165,-613.636 475.25,-640.757 498.256,-749.119 484.165,-784.636 464.661,-833.797 424.146,-880.655 397.207,-908.279"/>
<polygon fill="#a8a8a8" stroke="#a8a8a8" points="394.555,-905.982 389.997,-915.547 399.525,-910.912 394.555,-905.982"/>
<text text-anchor="middle" x="738.255" y="-594.436" font-family="Times,serif" font-size="14.00">reward</text>
</g>
<!-- Communities&#45;&gt;Researchers -->
<g id="edge73" class="edge"><title>Communities&#45;&gt;Researchers</title>
<path fill="none" stroke="#a8a8a8" d="M1112.12,-720.042C1093.41,-737.7 1062.04,-764.519 1030.04,-779.636 930.587,-826.609 871.585,-762.271 788.755,-834.636 771.597,-849.626 786.475,-866.143 770.755,-882.636 749.053,-905.405 732.394,-893.908 705.755,-910.636 689.211,-921.025 672.614,-935.208 659.705,-947.283"/>
<polygon fill="#a8a8a8" stroke="#a8a8a8" points="656.989,-945.037 652.177,-954.476 661.825,-950.098 656.989,-945.037"/>
<text text-anchor="middle" x="873.898" y="-838.436" font-family="Times,serif" font-size="14.00">recognize</text>
</g>
<!-- Communities&#45;&gt;Researchers -->
<g id="edge82" class="edge"><title>Communities&#45;&gt;Researchers</title>
<path fill="none" stroke="#a8a8a8" d="M1084.06,-713.899C1067.12,-718.013 1047.73,-722.635 1030.04,-726.636 1016.68,-729.658 798.506,-768.011 788.755,-777.636 762.818,-803.238 794.029,-829.59 770.755,-857.636 750.668,-881.842 730.87,-866.696 705.755,-885.636 683.825,-902.174 664.536,-926.934 651.739,-945.645"/>
<polygon fill="#a8a8a8" stroke="#a8a8a8" points="648.79,-943.759 646.163,-954.023 654.617,-947.638 648.79,-943.759"/>
<text text-anchor="middle" x="873.898" y="-781.436" font-family="Times,serif" font-size="14.00">reward</text>
</g>
<!-- Communities&#45;&gt;Software engineering processes -->
<g id="edge18" class="edge"><title>Communities&#45;&gt;Software engineering processes</title>
<path fill="none" stroke="#a8a8a8" d="M1147.29,-719.936C1211.2,-788.265 1455.82,-1029.74 1615.21,-906.636 1697.54,-843.037 1740.46,-502.548 1751.49,-401.761"/>
<polygon fill="#a8a8a8" stroke="#a8a8a8" points="1754.98,-402.04 1752.57,-391.723 1748.02,-401.292 1754.98,-402.04"/>
<text text-anchor="middle" x="1417.17" y="-944.436" font-family="Times,serif" font-size="14.00">standardize</text>
</g>
<!-- Communities&#45;&gt;Educators -->
<g id="edge7" class="edge"><title>Communities&#45;&gt;Educators</title>
<path fill="none" stroke="#a8a8a8" d="M1166.6,-688.197C1210.86,-669.915 1281.62,-640.545 1284.13,-638.636 1336.41,-598.81 1379.57,-533.644 1401.19,-497.287"/>
<polygon fill="#a8a8a8" stroke="#a8a8a8" points="1404.43,-498.668 1406.46,-488.269 1398.39,-495.136 1404.43,-498.668"/>
<text text-anchor="middle" x="1257.63" y="-663.436" font-family="Times,serif" font-size="14.00">reward</text>
</g>
<!-- Communities&#45;&gt;Educators -->
<g id="edge38" class="edge"><title>Communities&#45;&gt;Educators</title>
<path fill="none" stroke="#a8a8a8" d="M1148.5,-685.281C1167.25,-666.869 1199.09,-637.959 1231.13,-619.636 1252.85,-607.21 1262.94,-613.947 1284.13,-600.636 1329.99,-571.821 1372.64,-524.672 1396.47,-495.772"/>
<polygon fill="#a8a8a8" stroke="#a8a8a8" points="1399.37,-497.751 1402.96,-487.782 1393.94,-493.337 1399.37,-497.751"/>
<text text-anchor="middle" x="1257.63" y="-623.436" font-family="Times,serif" font-size="14.00">recognize</text>
</g>
<!-- Educators&#45;&gt;Hiring organizations -->
<g id="edge78" class="edge"><title>Educators&#45;&gt;Hiring organizations</title>
<path fill="none" stroke="#a8a8a8" d="M1397.3,-454.351C1353.69,-418.446 1241.22,-335.636 1131.58,-335.636 737.255,-335.636 737.255,-335.636 737.255,-335.636 522.907,-335.636 464.256,-307.484 255.385,-355.636 195.561,-369.427 139.075,-416.336 108.294,-445.811"/>
<polygon fill="#a8a8a8" stroke="#a8a8a8" points="105.746,-443.408 101.036,-452.899 110.636,-448.416 105.746,-443.408"/>
<text text-anchor="middle" x="738.255" y="-339.436" font-family="Times,serif" font-size="14.00">educate</text>
</g>
<!-- Educators&#45;&gt;Research Software Engineers -->
<g id="edge9" class="edge"><title>Educators&#45;&gt;Research Software Engineers</title>
<path fill="none" stroke="#a8a8a8" d="M1370.86,-469.591C1194.66,-465.999 561.806,-457.666 502.165,-521.636 462.217,-564.483 504.77,-729.798 484.165,-784.636 465.562,-834.145 424.803,-880.909 397.566,-908.418"/>
<polygon fill="#a8a8a8" stroke="#a8a8a8" points="394.907,-906.126 390.272,-915.653 399.837,-911.096 394.907,-906.126"/>
<text text-anchor="middle" x="873.898" y="-477.436" font-family="Times,serif" font-size="14.00">educate</text>
</g>
<!-- Educators&#45;&gt;Research Software Engineers -->
<g id="edge16" class="edge"><title>Educators&#45;&gt;Research Software Engineers</title>
<path fill="none" stroke="#a8a8a8" d="M1371.56,-467.705C1345.98,-466.081 1313.26,-464.1 1284.13,-462.636 972.031,-446.942 888.11,-418.035 581.165,-476.636 545.589,-483.428 525.293,-468.763 502.165,-496.636 461.217,-545.984 506.542,-724.542 484.165,-784.636 465.709,-834.2 424.91,-880.949 397.624,-908.44"/>
<polygon fill="#a8a8a8" stroke="#a8a8a8" points="394.964,-906.148 390.317,-915.669 399.887,-911.125 394.964,-906.148"/>
<text text-anchor="middle" x="873.898" y="-449.436" font-family="Times,serif" font-size="14.00">train</text>
</g>
<!-- Educators&#45;&gt;Researchers -->
<g id="edge47" class="edge"><title>Educators&#45;&gt;Researchers</title>
<path fill="none" stroke="#a8a8a8" d="M1412.08,-488.538C1400.32,-536.349 1362.14,-668.613 1284.13,-745.636 1116.44,-911.192 1018.29,-881.328 788.755,-934.636 755.238,-942.42 717.683,-951.479 688.133,-958.685"/>
<polygon fill="#a8a8a8" stroke="#a8a8a8" points="686.919,-955.378 678.035,-961.151 688.58,-962.178 686.919,-955.378"/>
<text text-anchor="middle" x="1003.54" y="-902.436" font-family="Times,serif" font-size="14.00">train</text>
</g>
<!-- Educators&#45;&gt;Researchers -->
<g id="edge91" class="edge"><title>Educators&#45;&gt;Researchers</title>
<path fill="none" stroke="#a8a8a8" d="M1376.61,-479.544C1274.91,-503.398 997.715,-574.48 788.755,-684.636 748.024,-706.108 731.526,-708.478 705.755,-746.636 688.258,-772.544 696.7,-784.679 687.755,-814.636 674.168,-860.144 656.322,-912.346 645.383,-943.621"/>
<polygon fill="#a8a8a8" stroke="#a8a8a8" points="641.965,-942.79 641.954,-953.384 648.57,-945.109 641.965,-942.79"/>
<text text-anchor="middle" x="1003.54" y="-602.436" font-family="Times,serif" font-size="14.00">educate</text>
</g>
<!-- Educators&#45;&gt;Software engineering processes -->
<g id="edge40" class="edge"><title>Educators&#45;&gt;Software engineering processes</title>
<path fill="none" stroke="#a8a8a8" d="M1454.79,-460.07C1510.92,-443.877 1619.04,-412.685 1688.89,-392.534"/>
<polygon fill="#a8a8a8" stroke="#a8a8a8" points="1690.27,-395.779 1698.91,-389.644 1688.33,-389.053 1690.27,-395.779"/>
<text text-anchor="middle" x="1582.71" y="-434.436" font-family="Times,serif" font-size="14.00">disseminate</text>
</g>
<!-- Educators&#45;&gt;Communities -->
<g id="edge5" class="edge"><title>Educators&#45;&gt;Communities</title>
<path fill="none" stroke="#a8a8a8" d="M1412.85,-488.765C1403.08,-536.183 1369.57,-663.721 1284.13,-714.636 1252.31,-733.593 1209.91,-728.344 1177.89,-719.631"/>
<polygon fill="#a8a8a8" stroke="#a8a8a8" points="1178.46,-716.153 1167.88,-716.707 1176.5,-722.872 1178.46,-716.153"/>
<text text-anchor="middle" x="1257.63" y="-730.436" font-family="Times,serif" font-size="14.00">educate</text>
</g>
<!-- Educators&#45;&gt;Communities -->
<g id="edge33" class="edge"><title>Educators&#45;&gt;Communities</title>
<path fill="none" stroke="#a8a8a8" d="M1410.36,-488.548C1396.12,-529.389 1355.32,-629.5 1284.13,-676.636 1269.91,-686.051 1232.27,-692.522 1197.94,-696.654"/>
<polygon fill="#a8a8a8" stroke="#a8a8a8" points="1197.43,-693.189 1187.9,-697.81 1198.23,-700.143 1197.43,-693.189"/>
<text text-anchor="middle" x="1257.63" y="-694.436" font-family="Times,serif" font-size="14.00">join</text>
</g>
<!-- Educators&#45;&gt;Funding organizations -->
<g id="edge42" class="edge"><title>Educators&#45;&gt;Funding organizations</title>
<path fill="none" stroke="#a8a8a8" d="M1428.23,-488.353C1476.17,-572.772 1681.51,-934.306 1739.24,-1035.95"/>
<polygon fill="#a8a8a8" stroke="#a8a8a8" points="1736.22,-1037.73 1744.21,-1044.7 1742.31,-1034.27 1736.22,-1037.73"/>
<text text-anchor="middle" x="1582.71" y="-805.436" font-family="Times,serif" font-size="14.00">educate</text>
</g>
<!-- Code platforms&#45;&gt;Research Software Engineers -->
<g id="edge76" class="edge"><title>Code platforms&#45;&gt;Research Software Engineers</title>
<path fill="none" stroke="#a8a8a8" d="M814.21,-1699.11C728.368,-1684.6 571.282,-1643.93 502.165,-1535.64 379.251,-1343.05 369.975,-1052.82 370.277,-961.897"/>
<polygon fill="#a8a8a8" stroke="#a8a8a8" points="373.777,-961.843 370.354,-951.817 366.778,-961.789 373.777,-961.843"/>
<text text-anchor="middle" x="634.46" y="-1669.44" font-family="Times,serif" font-size="14.00">recognize</text>
</g>
<!-- Code platforms&#45;&gt;Supporting software -->
<g id="edge25" class="edge"><title>Code platforms&#45;&gt;Supporting software</title>
<path fill="none" stroke="#a8a8a8" d="M908.554,-1721.98C928.284,-1730.68 953.82,-1741.43 977.04,-1749.64 1006.09,-1759.9 1038.85,-1769.59 1066.55,-1777.25"/>
<polygon fill="#a8a8a8" stroke="#a8a8a8" points="1065.93,-1780.71 1076.5,-1779.98 1067.78,-1773.96 1065.93,-1780.71"/>
<text text-anchor="middle" x="1003.54" y="-1769.44" font-family="Times,serif" font-size="14.00">store</text>
</g>
<!-- Code platforms&#45;&gt;Supporting software -->
<g id="edge34" class="edge"><title>Code platforms&#45;&gt;Supporting software</title>
<path fill="none" stroke="#a8a8a8" d="M895.892,-1723.73C923.01,-1745.63 967.837,-1781.22 977.04,-1784.64 996.792,-1791.97 1018.97,-1795.62 1040.17,-1797.17"/>
<polygon fill="#a8a8a8" stroke="#a8a8a8" points="1039.97,-1800.66 1050.15,-1797.75 1040.37,-1793.67 1039.97,-1800.66"/>
<text text-anchor="middle" x="1003.54" y="-1799.44" font-family="Times,serif" font-size="14.00">measure</text>
</g>
<!-- Code platforms&#45;&gt;Research software -->
<g id="edge39" class="edge"><title>Code platforms&#45;&gt;Research software</title>
<path fill="none" stroke="#a8a8a8" d="M902.511,-1690.31C922.748,-1678.7 951.1,-1663.19 977.04,-1651.64 999.898,-1641.45 1010.34,-1648.07 1030.04,-1632.64 1072.36,-1599.48 1102.75,-1543.15 1118.14,-1509.77"/>
<polygon fill="#a8a8a8" stroke="#a8a8a8" points="1121.35,-1511.15 1122.25,-1500.6 1114.97,-1508.29 1121.35,-1511.15"/>
<text text-anchor="middle" x="1003.54" y="-1655.44" font-family="Times,serif" font-size="14.00">measure</text>
</g>
<!-- Code platforms&#45;&gt;Research software -->
<g id="edge79" class="edge"><title>Code platforms&#45;&gt;Research software</title>
<path fill="none" stroke="#a8a8a8" d="M890.938,-1689.17C910.029,-1669.09 943.554,-1636.04 977.04,-1613.64 998.687,-1599.15 1008.98,-1603.95 1030.04,-1588.64 1061.68,-1565.63 1091.49,-1531.63 1110.09,-1508.38"/>
<polygon fill="#a8a8a8" stroke="#a8a8a8" points="1112.99,-1510.37 1116.42,-1500.34 1107.49,-1506.04 1112.99,-1510.37"/>
<text text-anchor="middle" x="1003.54" y="-1617.44" font-family="Times,serif" font-size="14.00">store</text>
</g>
<!-- Funding organizations&#45;&gt;Hiring organizations -->
<g id="edge45" class="edge"><title>Funding organizations&#45;&gt;Hiring organizations</title>
<path fill="none" stroke="#a8a8a8" d="M1752.17,-1044.32C1735.54,-911.596 1625.66,-102.636 1418.17,-102.636 368.775,-102.636 368.775,-102.636 368.775,-102.636 285.361,-102.636 246.373,-81.8193 184.385,-137.636 94.2613,-218.787 83.8835,-377.619 83.5927,-442.256"/>
<polygon fill="#a8a8a8" stroke="#a8a8a8" points="80.0935,-442.507 83.63,-452.495 87.0934,-442.482 80.0935,-442.507"/>
<text text-anchor="middle" x="873.898" y="-106.436" font-family="Times,serif" font-size="14.00">fund</text>
</g>
<!-- Funding organizations&#45;&gt;Research Software Engineers -->
<g id="edge30" class="edge"><title>Funding organizations&#45;&gt;Research Software Engineers</title>
<path fill="none" stroke="#a8a8a8" d="M1754.02,-1080.99C1751.29,-1197.16 1731.2,-1829.99 1615.21,-1975.64 1556.53,-2049.31 1512.35,-2053.64 1418.17,-2053.64 1002.54,-2053.64 1002.54,-2053.64 1002.54,-2053.64 842.253,-2053.64 837.999,-1933.48 687.755,-1877.64 608.835,-1848.3 556.431,-1904.01 502.165,-1839.64 481.995,-1815.71 489.632,-1307.45 484.165,-1276.64 462.664,-1155.46 407.507,-1018.53 382.92,-961.19"/>
<polygon fill="#a8a8a8" stroke="#a8a8a8" points="386.016,-959.532 378.835,-951.742 379.591,-962.31 386.016,-959.532"/>
<text text-anchor="middle" x="1003.54" y="-2057.44" font-family="Times,serif" font-size="14.00">recognize</text>
</g>
<!-- Funding organizations&#45;&gt;Research Software Engineers -->
<g id="edge49" class="edge"><title>Funding organizations&#45;&gt;Research Software Engineers</title>
<path fill="none" stroke="#a8a8a8" d="M1751.96,-1080.85C1737.39,-1187.05 1657.95,-1724.89 1532.21,-1820.64 1441.15,-1889.97 583.009,-1892.65 502.165,-1811.64 481.159,-1790.58 489.385,-1305.91 484.165,-1276.64 462.562,-1155.48 407.46,-1018.54 382.903,-961.193"/>
<polygon fill="#a8a8a8" stroke="#a8a8a8" points="386.001,-959.538 378.824,-951.744 379.574,-962.313 386.001,-959.538"/>
<text text-anchor="middle" x="1003.54" y="-1875.44" font-family="Times,serif" font-size="14.00">reward</text>
</g>
<!-- Funding organizations&#45;&gt;Researchers -->
<g id="edge12" class="edge"><title>Funding organizations&#45;&gt;Researchers</title>
<path fill="none" stroke="#a8a8a8" d="M1708.88,-1047.2C1681.96,-1038.74 1647.01,-1028.94 1615.21,-1023.64 1438.65,-994.206 1391.93,-1008.92 1213.13,-1000.64 1184.95,-999.33 733.832,-985.321 705.755,-982.636 701.348,-982.214 696.797,-981.695 692.228,-981.114"/>
<polygon fill="#a8a8a8" stroke="#a8a8a8" points="692.629,-977.636 682.249,-979.756 691.686,-984.572 692.629,-977.636"/>
<text text-anchor="middle" x="1130.58" y="-1004.44" font-family="Times,serif" font-size="14.00">reward</text>
</g>
<!-- Funding organizations&#45;&gt;Researchers -->
<g id="edge58" class="edge"><title>Funding organizations&#45;&gt;Researchers</title>
<path fill="none" stroke="#a8a8a8" d="M1672.38,-1069.51C1653.61,-1070.81 1633.73,-1071.97 1615.21,-1072.64 1586.33,-1073.67 1579.09,-1072.89 1550.21,-1072.64 1211.38,-1069.6 1123.45,-1087.52 788.755,-1034.64 751.562,-1028.76 740.572,-1031.98 705.755,-1017.64 691.323,-1011.69 676.672,-1002.68 664.507,-994.199"/>
<polygon fill="#a8a8a8" stroke="#a8a8a8" points="666.29,-991.17 656.128,-988.172 662.203,-996.853 666.29,-991.17"/>
<text text-anchor="middle" x="1130.58" y="-1076.44" font-family="Times,serif" font-size="14.00">recognize</text>
</g>
</g>
</svg>
